# Object Export From Tinkercad Server 2015

mtllib obj.mtl

o obj_0
v -13 		0.5 		85.843
v -14.963 		0 		66.414
v -9.5548 		3.416 		103.756
v -8.9834 		4.309 		102.494
v 9.8505 		-0.9448 		17.7967
v 10 		0 		18.1465
v 10.1833 		-2.1953 		107.1089
v -16 		0.5 		33.143
v -2.757 		-6.144 		96.99
v 10.1289 		-2.311 		106.754
v -9.2671 		3.8657 		103.1205
v 8.5769 		-2.311 		106.754
v -6.0285 		6.997 		100.4629
v -8.5769 		-2.311 		106.754
v -1.721 		-7.156 		96.99
v -5.8271 		7.344 		100.317
v -5.9728 		7.1205 		100.4109
v -10 		0 		19.1062
v -3.633 		-4.701 		96.99
v -10.293 		3 		5.533
v -10.293 		-2 		5.533
v -4.8112 		8.0076 		99.1642
v -8.9826 		-1.714 		108.585
v 9.5252 		3 		4.9949
v -10 		0 		5.6944
v 8.9826 		-1.714 		108.585
v 10 		0 		4.7334
v 10 		0 		0
v 9.511 		3.09 		0
v -12.5 		0 		90.287
v -4.1791 		8.1765 		98.3097
v -4.3526 		8.1301 		98.5443
v -10.686 		0.205 		117
v -9.4092 		-1.239 		110.56
v -2.6982 		-3.7882 		96.002
v -2.8887 		-3.4739 		96.002
v 8.4071 		5.273 		101.49
v 10.3957 		-1.714 		108.585
v 10.3892 		-1.757 		108.453
v -3.2723 		-2.4389 		96.002
v -4.297 		-2.909 		96.99
v -10.6839 		0.2185 		117
v -10.6757 		0.273 		115.262
v -3.4167 		-2.0494 		96.002
v 4.08 		-8.288 		100.121
v 4.0818 		-8.2918 		100.1635
v -3.4169 		-2.0485 		96.002
v -3.6564 		-0.874 		96.002
v -9.6098 		-1.0818 		111.51
v 4.0707 		-8.2937 		100.1514
v -10.2114 		0.2185 		117
v 9.4092 		-1.239 		110.56
v 9.1649 		-1.511 		109.429
v -9.7289 		-0.894 		112.645
v -3.7468 		-0.4309 		96.002
v -6.724 		-1.796 		100.736
v 4.0427 		-8.2984 		100.121
v -3.7468 		-0.4307 		96.002
v 8.09 		5.878 		0
v 5.878 		8.09 		0
v 3.09 		9.511 		0
v 0 		10 		0
v -3.09 		9.511 		0
v 10.4675 		-1.239 		110.56
v -4.712 		-0.874 		96.99
v -10.0513 		0.273 		115.262
v -10.1532 		0.2384 		116.3676
v -5.878 		8.09 		0
v -8.09 		5.878 		0
v -7.3228 		4.309 		102.494
v -7.7525 		3.5181 		103.6117
v 4.1821 		-8.2402 		100.2468
v 9.6098 		-1.0818 		111.51
v 4.9883 		-7.755 		100.312
v -7.2047 		4.5916 		102.1996
v 5.878 		-8.09 		0
v 8.09 		-5.878 		0
v 6.3101 		-6.9836 		100.6267
v 9.7288 		-0.894 		112.645
v 9.511 		-3.09 		0
v 9.6835 		-2 		4.9078
v 10.5197 		-0.894 		112.645
v -6.724 		4.371 		100.736
v -9.423 		-2.425 		100.121
v 6.431 		-6.851 		100.121
v -8.09 		-5.878 		0
v -5.878 		-8.09 		0
v 9.6408 		2.2697 		45.715
v 9.511 		3.09 		45.715
v -8.3667 		2.608 		105.253
v 9.511 		-3.09 		45.715
v 9.6408 		-2.2697 		45.715
v 9.8961 		-0.732 		114.3114
v 3.09 		9.511 		45.715
v 0 		10 		45.715
v -3.09 		9.511 		45.715
v -10.5515 		-0.684 		114.805
v 0 		8.5 		45.715
v -7.8079 		3.416 		103.756
v -10.5621 		-0.6141 		117
v 8.09 		5.878 		45.715
v 8.084 		2.627 		45.715
v 8.1291 		2.3421 		45.715
v 5.878 		8.09 		45.715
v 6.877 		4.996 		45.715
v -10.1571 		-0.6141 		117
v 4.996 		6.877 		45.715
v 2.627 		8.084 		45.715
v -9.0581 		-3.969 		103.4524
v -5.878 		8.09 		45.715
v -9.1482 		-3.827 		103.647
v -2.627 		8.084 		45.715
v -9.7002 		-3.019 		105.099
v -8.09 		5.878 		45.715
v -4.996 		6.877 		45.715
v -8.5 		5.0736 		45.715
v -6.877 		4.996 		45.715
v 7.4737 		4.7715 		96.002
v 7.4737 		4.7714 		96.002
v 7.9801 		3.7169 		96.002
v 8.5 		2.6345 		96.002
v 5.8175 		6.5877 		96.002
v 5.8179 		6.5873 		96.002
v 6.6161 		5.712 		96.002
v 3.6904 		7.8877 		96.002
v 6.468 		-6.8916 		100.6643
v 4.7157 		7.261 		96.002
v 2.1891 		8.3068 		96.002
v 2.1892 		8.3067 		96.002
v 2.4341 		8.2385 		96.002
v -1.9907 		-8.479 		98.3648
v 9.7003 		-3.019 		105.099
v 9.2288 		-3.7093 		103.8585
v 2.6005 		8.192 		96.002
v 2.6376 		8.1816 		96.002
v 3.1989 		8.0249 		96.002
v 10.0184 		-2.5914 		106.0985
v -2.9645 		-8.3703 		99.0949
v 3.7772 		0.0392 		96.002
v 3.8587 		1.288 		96.002
v 3.8283 		1.7577 		96.002
v 3.7468 		3.0057 		96.002
v 3.6564 		3.449 		96.002
v -3.5582 		-8.304 		99.54
v 8.4426 		-4.9534 		102.1874
v 8.0114 		-5.3643 		101.7726
v 3.7468 		3.0059 		96.002
v 9.423 		-2.425 		100.121
v 3.7747 		0 		96.002
v -8.5 		2.4007 		45.715
v -8.084 		2.627 		45.715
v 8.5812 		-4.72 		102.423
v -8.1169 		2.419 		45.715
v -8.5812 		-4.72 		102.423
v 0 		-8.5 		45.715
v 5.0736 		-8.5 		45.715
v 9.1483 		-3.827 		103.647
v 5.878 		-8.09 		45.715
v 2.627 		-8.084 		45.715
v 3.4169 		4.6235 		96.002
v 3.2723 		5.0139 		96.002
v 2.8887 		6.0489 		96.002
v 2.6982 		6.3632 		96.002
v 2.1926 		7.196 		96.002
v 1.9667 		7.4167 		96.002
v 8.09 		-5.878 		45.715
v 1.3685 		8.001 		96.002
v 1.1212 		8.1145 		96.002
v 4.996 		-6.877 		45.715
v 0.9521 		8.192 		96.002
v 1.3683 		8.0013 		96.002
v 6.877 		-4.996 		45.715
v 2.1923 		7.1967 		96.002
v 8.084 		-2.627 		45.715
v 3.4167 		4.6244 		96.002
v 8.1291 		-2.3421 		45.715
v -8.5 		-2.4007 		45.715
v -8.5 		-5.0736 		45.715
v 0.465 		8.4154 		96.002
v -8.09 		-5.878 		45.715
v -8.084 		-2.627 		45.715
v -8.1169 		-2.419 		45.715
v 1.2644 		-8.1547 		96.002
v -5.878 		-8.09 		45.715
v -6.877 		-4.996 		45.715
v -5.0736 		-8.5 		45.715
v 3.6904 		-7.4777 		96.002
v 2.5206 		-7.804 		96.002
v -4.996 		-6.877 		45.715
v 5.8175 		-6.1777 		96.002
v -2.627 		-8.084 		45.715
v 4.7922 		-6.8045 		96.002
v 15 		0 		65.64
v 7.4737 		-4.3615 		96.002
v 6.6752 		-5.2372 		96.002
v 13 		0.5 		85.069
v 8.5 		-2.2245 		96.002
v 8.192 		-2.866 		96.002
v 8.0178 		-3.2287 		96.002
v 8.5 		0 		74.6471
v 0.465 		-5.8404 		96.002
v 0.7121 		-5.7272 		96.002
v 1.3683 		-5.4263 		96.002
v 1.5939 		-5.2062 		96.002
v 2.1916 		-4.6223 		96.002
v 2.3828 		-4.3074 		96.002
v -6.8825 		5.149 		101.6191
v 8.262 		-4.843 		100.121
v 2.1923 		-4.6217 		96.002
v 6.6523 		-6.701 		100.742
v 7.676 		-5.684 		101.45
v 2.8887 		-3.4739 		96.002
v 3.0332 		-3.0845 		96.002
v 3.4167 		-2.0494 		96.002
v 3.5071 		-1.6063 		96.002
v 3.7464 		-0.4327 		96.002
v -6.3213 		6.3471 		100.736
v 3.7468 		-0.4309 		96.002
v -6.8109 		5.273 		101.49
v -10.686 		0.205 		108.453
v -6.3415 		6.29 		100.76
v -10.6441 		0.482 		113.035
v -10.5917 		0.828 		110.885
v -3.6904 		7.8877 		96.002
v -2.5206 		8.214 		96.002
v -1.9414 		8.3757 		96.002
v -1.9412 		8.3757 		96.002
v -1.7991 		8.4154 		96.002
v -8.8839 		0.205 		96.002
v -1.4961 		8.5 		96.002
v -10.5199 		1.303 		108.848
v 8.5 		0 		63.5142
v -8.5237 		2.5852 		96.002
v -8.5242 		2.5841 		96.002
v -5.8175 		6.5877 		96.002
v -4.7922 		7.2145 		96.002
v -10.501 		1.4279 		108.453
v -8.5 		2.6345 		96.002
v 8.5 		0 		52.5761
v -7.4737 		4.7715 		96.002
v -6.6752 		5.6472 		96.002
v -8.7103 		1.352 		96.002
v -8.192 		3.276 		96.002
v -8.0178 		3.6387 		96.002
v -8.5243 		-2.1734 		96.002
v -8.5242 		-2.1741 		96.002
v -7.7982 		4.096 		96.002
v -8.6978 		-1.027 		96.002
v 12.5 		0 		90.287
v 8.5 		0 		90.287
v -8.5 		-2.2245 		96.002
v -3.7465 		3.0076 		96.002
v 10.686 		0.205 		117
v -3.7772 		2.5362 		96.002
v -3.8587 		1.288 		96.002
v -3.8283 		0.8179 		96.002
v 3.8677 		-8.3003 		99.911
v 3.5582 		-8.3039 		99.54
v -3.7468 		3.0059 		96.002
v 2.6093 		-8.4098 		98.8284
v 1.9907 		-8.4788 		98.3646
v 10.6757 		0.273 		115.262
v 10.6839 		0.2185 		117
v -0.9524 		8.192 		96.002
v -1.3683 		8.0013 		96.002
v -1.5939 		7.7812 		96.002
v -2.1916 		7.1973 		96.002
v -2.3828 		6.8824 		96.002
v -2.8887 		6.0489 		96.002
v -3.0332 		5.6595 		96.002
v -3.4167 		4.6244 		96.002
v -3.5071 		4.1813 		96.002
v -2.1923 		7.1967 		96.002
v -0.465 		8.4154 		96.002
v -0.7121 		8.3022 		96.002
v -6.3813 		7.3155 		100.329
v -6.4462 		7.2777 		100.3449
v -10.2746 		1.9 		106.96
v -7.4737 		-4.3615 		96.002
v -7.4737 		-4.3614 		96.002
v -7.6012 		-4.096 		96.002
v -7.9801 		-3.3069 		96.002
v -5.8175 		-6.1777 		96.002
v -5.8179 		-6.1773 		96.002
v -6.6161 		-5.302 		96.002
v -9.511 		3.09 		45.715
v -9.6286 		2.3468 		45.715
v -3.6904 		-7.4777 		96.002
v -4.7157 		-6.851 		96.002
v -9.9828 		0.1087 		45.715
v -10 		0 		45.715
v -9.9828 		-0.1087 		45.715
v -9.6286 		-2.3468 		45.715
v -9.511 		-3.09 		45.715
v 10.2113 		0.2185 		117
v 3.8825 		8.2872 		98.0327
v -6.925 		1.288 		100.736
v 2.5444 		8.3688 		96.7243
v 2.6215 		8.3537 		96.7529
v 2.7701 		8.3323 		96.8429
v -9.511 		3.09 		32.768
v -9.6044 		2.5 		44.2104
v -9.6044 		2.5 		44.2099
v -9.619 		2.5 		44.203
v 8.8839 		0.205 		96.002
v -9.619 		2.4076 		44.203
v -9.619 		2.4075 		44.203
v -9.6191 		2.4069 		44.2034
v 8.5243 		2.5834 		96.002
v 8.5242 		2.5841 		96.002
v 8.6978 		1.437 		96.002
v -9.6065 		2.4865 		44.2089
v 10.0512 		0.273 		115.262
v 3.013 		8.2973 		96.99
v 8.5242 		-2.1741 		96.002
v -9.6191 		-2.4069 		44.2034
v -9.619 		-2.4076 		44.203
v 8.5237 		-2.1752 		96.002
v -9.619 		-2.5 		44.203
v -9.6191 		-2.4069 		44.2034
v 4.712 		3.449 		96.99
v -9.6044 		-2.5 		44.2099
v -9.6044 		-2.5 		44.2099
v -9.6044 		-2.5 		44.2104
v 8.7103 		-0.9421 		96.002
v -9.6065 		-2.4865 		44.2089
v 12.5 		0 		96.002
v 10.5515 		-0.684 		114.805
v 10.5621 		-0.6141 		117
v -1.2644 		-8.1547 		96.002
v -1.7409 		-8.0218 		96.002
v -2.4341 		-7.8285 		96.002
v -9.6861 		1.9835 		18.3718
v 10.157 		-0.6141 		117
v 4.853 		1.288 		96.99
v -9.8505 		-0.9449 		18.7563
v -2.1926 		-4.621 		96.002
v -1.9667 		-4.8417 		96.002
v -1.3685 		-5.426 		96.002
v -1.1212 		-5.5395 		96.002
v -0.465 		-5.8404 		96.002
v -1.3683 		-5.4263 		96.002
v -2.1923 		-4.6217 		96.002
v 9.9457 		-0.684 		114.805
v -9.511 		3.09 		0
v -9.5252 		3 		5.956
v -9.6313 		2.3295 		5.8975
v -10 		0 		0
v 8.084 		2.627 		90.287
v 4.5302 		-7.755 		100.312
v -9.6835 		-2 		5.8688
v -9.7677 		-1.4677 		5.8224
v -9.511 		-3.09 		0
v 5.384 		-6.7157 		100.736
v 10.686 		0.205 		108.453
v 5.1475 		-7.0831 		100.5861
v 5.1115 		-7.1391 		100.5633
v 10.6441 		0.482 		113.035
v 6.877 		4.996 		90.287
v 5.3919 		-6.701 		100.742
v 10.5917 		0.828 		110.885
v 4.996 		6.877 		90.287
v 10.5199 		1.303 		108.848
v 6.25 		-10 		90.287
v 6.25 		-10 		96.002
v -6.25 		-10 		96.002
v -6.25 		-10 		90.287
v 2.627 		8.084 		90.287
v 10.501 		1.4279 		108.453
v 3.09 		-9.511 		0
v 0 		-10 		0
v -3.09 		-9.511 		0
v 3.633 		7.276 		96.99
v 0 		-8.5 		90.287
v -6.25 		10 		90.287
v 6.25 		10 		90.287
v 1.8831 		-8.5037 		98.3413
v 0 		8.5 		90.287
v 1.2743 		8.6302 		96.308
v 1.3092 		8.6212 		96.3117
v 1.4855 		8.5762 		96.3304
v 1.3816 		8.532 		96.002
v 1.2644 		8.5647 		96.002
v 4.297 		5.484 		96.99
v -2.627 		8.084 		90.287
v 10.2745 		1.9 		106.96
v 1.3364 		-8.6299 		98.2231
v 0.4761 		8.5841 		96.0928
v 0.6419 		-8.5486 		97.8432
v 1.4248 		-8.6095 		98.2423
v -4.996 		6.877 		90.287
v 6.0585 		-5.684 		101.45
v -6.877 		4.996 		90.287
v -10.1309 		2.2578 		106.0973
v 9.2435 		1.288 		108.9123
v 9.2296 		1.303 		108.848
v -8.084 		2.627 		90.287
v 8.8125 		1.9 		106.96
v -8.5 		0 		90.287
v -1.3364 		-8.6299 		98.223
v 2.627 		-8.084 		90.287
v -1.3248 		-8.5534 		97.8655
v 4.996 		-6.877 		90.287
v -7.4034 		6.29 		100.76
v -0.6419 		-8.5486 		97.8432
v -1.1499 		-8.6081 		98.1209
v 6.877 		-4.996 		90.287
v 8.084 		-2.627 		90.287
v -8.4071 		5.273 		101.49
v -8.084 		-2.627 		90.287
v 9.6088 		0.828 		110.885
v -8.0909 		5.609 		101.2488
v -8.3784 		5.3242 		101.4533
v -6.877 		-4.996 		90.287
v -10.3892 		-1.757 		108.453
v -8.262 		-4.843 		100.121
v -10.3957 		-1.714 		108.585
v -10.4675 		-1.239 		110.56
v -4.996 		-6.877 		90.287
v -10.5197 		-0.894 		112.645
v -8.4426 		-4.9534 		102.1874
v -2.627 		-8.084 		90.287
v -3.09 		-9.511 		45.715
v 0 		-10 		45.715
v 3.09 		-9.511 		45.715
v -10.1289 		-2.311 		106.754
v -1.2743 		8.6302 		96.308
v -1.2644 		8.5647 		96.002
v -0.6929 		8.5966 		96.1512
v -0.4761 		8.5841 		96.0928
v -1.6437 		8.5451 		96.3891
v -1.4855 		8.5762 		96.3304
v -6.6172 		-6.7373 		100.7272
v -6.6523 		-6.701 		100.742
v -7.676 		-5.684 		101.45
v -10.0184 		-2.5914 		106.0985
v 16 		0.5 		32.182
v -6.431 		-6.851 		100.121
v 10 		0 		44.8588
v 6.25 		10 		96.002
v 9.8551 		0.482 		113.035
v 10.293 		-2 		4.572
v 10.293 		3 		4.572
v 9.8112 		0.5664 		112.5108
v 6.7339 		-4.72 		102.423
v 9.656 		2.1737 		43.429
v 9.656 		2.5 		43.429
v 6.5266 		-5.0862 		102.0534
v 9.6044 		2.5 		43.4534
v 9.6044 		2.5 		43.4534
v 6.1855 		-5.5219 		101.6136
v -6.25 		10 		96.002
v 9.6119 		2.4523 		43.4499
v -12.5 		0 		96.002
v 9.7275 		0.7274 		111.51
v 8.084 		2.627 		66.7015
v 8.2011 		1.8876 		73.9548
v 2.757 		-6.144 		96.99
v 8.262 		5.253 		100.121
v 1.721 		-7.156 		96.99
v 8.3784 		5.3242 		101.4533
v -8.084 		2.627 		67.4748
v 3.633 		-4.701 		96.99
v -8.5 		0 		75.4193
v -8.2011 		1.8878 		74.7269
v 9.656 		-2.5 		43.429
v 9.656 		-2.1737 		43.429
v 7.4034 		6.29 		100.76
v 9.6044 		-2.5 		43.4534
v 9.6044 		-2.5 		43.4534
v 6.508 		7.214 		100.3717
v 9.6119 		-2.4523 		43.4499
v 6.431 		7.261 		100.121
v 8.084 		-2.627 		65.536
v 8.367 		-0.8396 		74.3391
v 9.6861 		1.9834 		17.4122
v 7.3555 		-3.827 		103.647
v 7.1871 		-4.0688 		103.3156
v -8.367 		-0.8398 		75.1113
v 9.821 		0.205 		100.121
v -8.5 		0 		64.2873
v 0.585 		-7.677 		96.99
v -8.5 		0 		53.4238
v 8.4091 		0.5741 		63.0787
v 8.363 		0.8651 		62.858
v 8.363 		3 		62.858
v 4.712 		-0.874 		96.99
v 8.084 		2.627 		63.0103
v 8.231 		1.6985 		52.0355
v 4.297 		-2.909 		96.99
v 9.423 		2.835 		100.121
v -9.946 		-0.684 		114.805
v 7.894 		3 		63.1139
v 7.894 		3 		63.114
v 8.0762 		2.6423 		63.0145
v 9.8693 		2.9598 		104.6013
v 6.4462 		7.2777 		100.3449
v -9.9666 		-0.6772 		115.0197
v 5.6316 		7.7656 		100.2584
v 5.5207 		7.8174 		100.121
v 9.9902 		2.608 		105.253
v -7.894 		2.9999 		63.8878
v -7.894 		3 		63.8869
v -8.363 		3 		63.631
v -9.2296 		1.303 		108.848
v -6.468 		-6.8916 		100.6643
v -9.2435 		1.288 		108.9123
v -8.8125 		1.9 		106.96
v -8.7442 		2.0244 		106.66
v -8.0762 		2.6423 		63.7876
v -8.084 		2.627 		63.7833
v -2.3441 		8.4077 		96.6496
v 6.3325 		7.344 		100.317
v -4.0818 		-8.2918 		100.1637
v -4.08 		-8.288 		100.121
v -4.1003 		-8.2823 		100.1791
v 9.5547 		3.416 		103.756
v 8.9834 		4.309 		102.494
v -3.0132 		8.297 		96.99
v -2.6808 		8.3448 		96.7887
v -2.6214 		8.3534 		96.7527
v 8.719 		4.7513 		102.0334
v -4.1818 		-8.2404 		100.2468
v -8.363 		0.8651 		63.631
v -8.3631 		0.8646 		63.6314
v 8.0418 		-3.019 		105.099
v -8.3632 		0.864 		63.6319
v -3.6991 		8.2892 		97.8122
v -8.2326 		1.6889 		52.8862
v -3.8824 		8.2871 		98.0323
v -4.9883 		-7.755 		100.312
v -9.5984 		0.8412 		110.8285
v 8.363 		-2 		62.858
v 8.363 		-0.8651 		62.858
v 8.1833 		-2 		62.956
v 8.1833 		-2 		62.9561
v 8.2129 		-1.8128 		62.9399
v 8.2972 		-2.7743 		105.671
v 8.231 		-1.6985 		52.0355
v 8.4332 		-2.5804 		106.1242
v 8.3549 		-2.692 		105.8633
v 8.5194 		2.4346 		105.671
v 4.179 		8.1764 		98.3096
v -8.3631 		-0.8642 		63.6317
v -8.363 		-0.8651 		63.631
v -8.363 		-2 		63.631
v -8.3632 		-0.864 		63.6319
v 8.594 		1.288 		105.671
v -8.1833 		-2 		63.7291
v -8.1833 		-2 		63.7291
v -9.6088 		0.828 		110.885
v -9.7275 		0.7274 		111.51
v -8.1833 		-1.9999 		63.73
v -4.0425 		-8.2985 		100.121
v -8.2129 		-1.8128 		63.7129
v -8.2326 		-1.6889 		52.8862
v 6.132 		-4.701 		100.736
v -8.084 		-2.627 		62.2945
v 5.9728 		7.1205 		100.4109
v 5.8716 		7.276 		100.3456
v -4.712 		3.449 		96.99
v -4.853 		1.288 		96.99
v -9.8552 		0.482 		113.035
v -4.297 		5.484 		96.99
v 5.8272 		7.344 		100.317
v 8.345 		-2.54 		105.671
v -4.5301 		-7.755 		100.312
v -3.633 		7.276 		96.99
v 6.724 		4.371 		100.736
v 6.3213 		6.3471 		100.736
v -5.0555 		-7.1985 		100.539
v -5.1115 		-7.1391 		100.5633
v -5.384 		-6.7157 		100.736
v -5.3919 		-6.701 		100.742
v -6.0584 		-5.684 		101.45
v -9.821 		0.205 		100.121
v -9.8693 		2.9598 		104.6013
v -6.5266 		-5.0862 		102.0534
v 7.2047 		4.5916 		102.1996
v -6.734 		-4.72 		102.423
v 6.811 		5.273 		101.49
v -9.423 		2.835 		100.121
v 6.3415 		6.29 		100.76
v 6.724 		-1.796 		100.736
v -7.3557 		-3.827 		103.647
v -9.9902 		2.608 		105.253
v 8.3667 		2.608 		105.253
v 7.8077 		3.416 		103.756
v -8.0419 		-3.019 		105.099
v 7.3227 		4.309 		102.494
v 6.925 		1.288 		100.736
v -0.585 		-7.677 		96.99
v -8.2972 		-2.7743 		105.671
v -8.4332 		-2.5804 		106.1242
v -6.132 		-4.701 		100.736
v -8.594 		1.288 		105.671
v -8.345 		-2.54 		105.671
v -8.5194 		2.4346 		105.671
v -5.6314 		7.7657 		100.2584
v -5.5204 		7.8176 		100.121
v -6.3324 		7.344 		100.317
v -6.431 		7.261 		100.121
v -8.262 		5.253 		100.121
# 603 vertices

g group_0_16089887

usemtl color_16089887
s 0

f 6 	469 	5
f 20 	21 	8
f 21 	20 	25
f 347 	25 	20
f 17 	564 	16
f 29 	89 	24
f 10 	7 	12
f 22 	564 	32
f 7 	39 	26
f 26 	12 	7
f 38 	26 	39
f 40 	41 	36
f 36 	41 	19
f 220 	33 	43
f 42 	43 	33
f 40 	44 	41
f 566 	540 	548
f 597 	532 	14
f 48 	65 	47
f 45 	46 	50
f 41 	44 	47
f 48 	55 	65
f 57 	45 	50
f 54 	420 	49
f 24 	27 	29
f 28 	29 	27
f 89 	29 	59
f 53 	26 	38
f 65 	55 	58
f 532 	34 	23
f 38 	64 	53
f 42 	33 	51
f 52 	53 	64
f 41 	47 	65
f 53 	548 	26
f 67 	498 	66
f 297 	75 	70
f 297 	70 	71
f 72 	45 	74
f 297 	83 	75
f 64 	82 	73
f 52 	64 	73
f 79 	73 	82
f 51 	106 	67
f 72 	46 	45
f 66 	43 	67
f 80 	28 	81
f 469 	91 	5
f 45 	85 	74
f 78 	74 	85
f 81 	28 	27
f 51 	67 	42
f 42 	67 	43
f 92 	176 	91
f 79 	82 	93
f 96 	98 	95
f 94 	95 	98
f 94 	98 	108
f 350 	463 	72
f 100 	33 	97
f 101 	105 	89
f 102 	103 	89
f 88 	89 	103
f 420 	97 	220
f 104 	105 	101
f 102 	89 	105
f 411 	395 	52
f 94 	107 	104
f 108 	107 	94
f 105 	104 	107
f 110 	115 	96
f 98 	96 	112
f 106 	51 	100
f 114 	115 	110
f 112 	96 	115
f 51 	33 	100
f 115 	114 	117
f 116 	117 	114
f 111 	113 	84
f 111 	84 	109
f 119 	327 	118
f 120 	327 	119
f 121 	327 	120
f 97 	498 	100
f 124 	440 	123
f 118 	440 	124
f 122 	123 	440
f 416 	109 	84
f 106 	100 	498
f 127 	440 	125
f 122 	440 	127
f 129 	440 	128
f 130 	440 	129
f 382 	128 	440
f 93 	444 	79
f 135 	440 	134
f 136 	440 	135
f 125 	440 	136
f 134 	440 	130
f 133 	148 	132
f 132 	148 	137
f 84 	282 	416
f 126 	78 	85
f 9 	144 	138
f 252 	259 	141
f 142 	147 	164
f 259 	254 	141
f 143 	164 	147
f 153 	151 	150
f 116 	150 	151
f 116 	151 	117
f 158 	169 	156
f 155 	156 	159
f 99 	90 	297
f 166 	169 	158
f 159 	156 	169
f 160 	161 	143
f 175 	161 	160
f 162 	163 	161
f 163 	164 	143
f 141 	142 	164
f 164 	173 	141
f 141 	165 	167
f 167 	171 	141
f 141 	168 	170
f 9 	138 	15
f 157 	152 	148
f 91 	172 	166
f 169 	166 	172
f 168 	141 	171
f 165 	141 	173
f 172 	91 	174
f 133 	157 	148
f 161 	163 	143
f 174 	91 	176
f 9 	567 	144
f 141 	170 	179
f 180 	185 	178
f 177 	178 	181
f 177 	181 	182
f 180 	184 	185
f 181 	178 	185
f 184 	186 	189
f 185 	184 	189
f 183 	365 	188
f 188 	365 	187
f 186 	191 	189
f 192 	365 	190
f 187 	365 	192
f 186 	155 	191
f 195 	365 	194
f 190 	365 	195
f 111 	109 	585
f 154 	585 	109
f 199 	327 	198
f 197 	198 	327
f 585 	589 	111
f 194 	327 	199
f 145 	146 	208
f 573 	572 	19
f 137 	480 	10
f 337 	343 	205
f 205 	209 	35
f 35 	337 	205
f 206 	35 	209
f 343 	338 	205
f 7 	10 	480
f 207 	75 	83
f 65 	56 	41
f 213 	40 	212
f 215 	40 	214
f 214 	40 	213
f 216 	48 	215
f 126 	85 	210
f 297 	56 	65
f 23 	14 	532
f 17 	601 	13
f 146 	211 	208
f 148 	315 	325
f 208 	210 	85
f 211 	210 	208
f 83 	221 	219
f 83 	219 	207
f 83 	217 	221
f 255 	256 	141
f 254 	255 	141
f 119 	459 	120
f 223 	220 	222
f 43 	222 	220
f 103 	489 	88
f 225 	452 	224
f 226 	452 	225
f 227 	452 	226
f 228 	452 	227
f 230 	452 	228
f 237 	220 	231
f 533 	534 	196
f 232 	484 	196
f 236 	452 	235
f 231 	220 	223
f 224 	452 	236
f 196 	475 	533
f 603 	244 	582
f 539 	193 	239
f 489 	239 	193
f 241 	452 	240
f 235 	452 	241
f 247 	240 	454
f 244 	247 	454
f 148 	152 	145
f 246 	84 	245
f 221 	404 	219
f 452 	454 	240
f 245 	84 	248
f 349 	249 	250
f 148 	145 	208
f 408 	249 	407
f 221 	217 	404
f 13 	277 	217
f 282 	84 	251
f 246 	251 	84
f 216 	218 	256
f 218 	149 	256
f 139 	140 	256
f 140 	141 	256
f 540 	137 	12
f 16 	601 	17
f 149 	139 	256
f 258 	260 	187
f 257 	45 	57
f 329 	328 	253
f 262 	263 	253
f 540 	541 	137
f 10 	12 	137
f 266 	141 	265
f 267 	273 	141
f 266 	267 	141
f 269 	141 	268
f 270 	141 	269
f 271 	141 	270
f 272 	141 	271
f 252 	141 	272
f 264 	265 	141
f 275 	141 	274
f 234 	233 	454
f 233 	238 	454
f 238 	243 	454
f 243 	244 	454
f 268 	141 	273
f 234 	454 	242
f 229 	242 	454
f 26 	548 	12
f 264 	141 	275
f 179 	274 	141
f 454 	246 	245
f 248 	229 	454
f 277 	13 	276
f 404 	217 	277
f 251 	246 	454
f 280 	454 	279
f 281 	454 	280
f 366 	279 	454
f 251 	454 	282
f 282 	454 	281
f 285 	366 	284
f 279 	366 	285
f 283 	284 	366
f 188 	187 	261
f 287 	150 	286
f 116 	286 	150
f 283 	366 	289
f 289 	366 	288
f 12 	548 	540
f 291 	292 	290
f 253 	355 	262
f 125 	296 	127
f 296 	543 	127
f 177 	293 	294
f 177 	294 	178
f 299 	130 	298
f 116 	301 	286
f 300 	130 	299
f 382 	381 	128
f 329 	253 	295
f 304 	302 	303
f 2 	287 	304
f 128 	298 	129
f 253 	263 	295
f 308 	2 	307
f 129 	298 	130
f 190 	85 	192
f 309 	310 	491
f 307 	2 	306
f 491 	311 	309
f 312 	306 	304
f 134 	300 	135
f 135 	300 	136
f 303 	312 	304
f 136 	314 	125
f 302 	286 	303
f 287 	286 	302
f 301 	303 	286
f 121 	491 	310
f 120 	491 	121
f 308 	301 	290
f 291 	290 	301
f 307 	301 	308
f 306 	301 	307
f 301 	306 	312
f 301 	312 	303
f 99 	297 	71
f 130 	300 	134
f 314 	136 	300
f 296 	125 	314
f 262 	313 	295
f 316 	317 	2
f 319 	2 	317
f 320 	316 	2
f 358 	441 	313
f 358 	313 	262
f 321 	143 	147
f 324 	319 	323
f 322 	323 	319
f 293 	319 	324
f 326 	322 	319
f 141 	140 	335
f 317 	326 	319
f 321 	142 	141
f 317 	316 	18
f 320 	18 	316
f 320 	292 	18
f 291 	18 	292
f 321 	147 	142
f 440 	118 	327
f 295 	263 	262
f 323 	294 	324
f 322 	294 	323
f 293 	324 	294
f 192 	45 	187
f 219 	409 	207
f 309 	327 	310
f 311 	327 	309
f 317 	18 	326
f 326 	18 	322
f 311 	305 	327
f 139 	335 	140
f 487 	335 	139
f 85 	195 	208
f 194 	208 	195
f 180 	178 	86
f 310 	327 	121
f 487 	139 	149
f 85 	190 	195
f 69 	301 	114
f 355 	253 	328
f 18 	333 	8
f 332 	366 	331
f 288 	366 	332
f 291 	301 	18
f 333 	18 	301
f 141 	335 	321
f 8 	336 	18
f 8 	21 	336
f 351 	336 	21
f 336 	322 	18
f 294 	322 	336
f 295 	334 	329
f 202 	203 	338
f 339 	340 	338
f 201 	202 	340
f 341 	201 	340
f 203 	204 	338
f 204 	205 	338
f 336 	351 	294
f 86 	178 	353
f 342 	340 	339
f 8 	333 	20
f 338 	340 	202
f 346 	347 	20
f 344 	93 	328
f 93 	82 	328
f 58 	55 	216
f 47 	44 	215
f 40 	36 	212
f 35 	212 	36
f 48 	47 	215
f 206 	212 	35
f 256 	58 	216
f 301 	69 	345
f 40 	215 	44
f 334 	344 	328
f 208 	199 	148
f 315 	148 	318
f 318 	148 	197
f 563 	222 	66
f 48 	216 	55
f 346 	20 	333
f 454 	30 	366
f 334 	328 	329
f 334 	313 	344
f 333 	301 	346
f 345 	346 	301
f 99 	71 	11
f 70 	4 	71
f 93 	344 	313
f 295 	313 	334
f 348 	25 	345
f 349 	359 	249
f 278 	237 	508
f 74 	350 	72
f 346 	345 	347
f 347 	345 	25
f 305 	325 	327
f 197 	327 	318
f 318 	327 	315
f 43 	66 	222
f 25 	352 	21
f 50 	46 	463
f 315 	327 	325
f 352 	351 	21
f 223 	222 	552
f 563 	552 	222
f 249 	327 	364
f 348 	353 	352
f 351 	353 	294
f 328 	82 	355
f 356 	357 	78
f 350 	74 	357
f 359 	362 	376
f 376 	249 	359
f 25 	348 	352
f 351 	352 	353
f 262 	355 	358
f 354 	356 	78
f 165 	298 	167
f 368 	376 	362
f 361 	358 	355
f 364 	365 	366
f 364 	366 	367
f 355 	369 	363
f 363 	361 	355
f 163 	162 	373
f 364 	367 	374
f 360 	354 	78
f 78 	357 	74
f 376 	440 	249
f 440 	327 	249
f 75 	207 	409
f 70 	75 	4
f 368 	378 	376
f 375 	376 	378
f 378 	385 	375
f 314 	300 	164
f 173 	164 	300
f 404 	412 	219
f 298 	128 	381
f 163 	373 	164
f 261 	377 	188
f 380 	381 	382
f 382 	383 	380
f 379 	380 	383
f 78 	126 	360
f 210 	360 	126
f 161 	384 	162
f 373 	162 	384
f 384 	161 	175
f 557 	490 	354
f 321 	384 	160
f 321 	160 	143
f 4 	11 	71
f 385 	391 	375
f 160 	384 	175
f 409 	4 	75
f 385 	378 	98
f 543 	296 	373
f 388 	379 	383
f 360 	557 	354
f 387 	183 	390
f 30 	375 	393
f 391 	393 	375
f 369 	355 	386
f 377 	261 	460
f 360 	210 	392
f 380 	379 	168
f 168 	379 	170
f 30 	393 	397
f 389 	387 	460
f 390 	460 	387
f 381 	380 	171
f 398 	548 	396
f 395 	396 	548
f 211 	392 	210
f 399 	30 	397
f 171 	167 	298
f 401 	403 	364
f 374 	401 	364
f 173 	299 	298
f 173 	298 	165
f 299 	173 	300
f 373 	314 	164
f 407 	364 	403
f 412 	413 	219
f 327 	365 	364
f 237 	278 	220
f 394 	576 	278
f 220 	278 	576
f 406 	400 	402
f 405 	406 	402
f 314 	373 	296
f 387 	389 	183
f 364 	407 	249
f 3 	99 	11
f 408 	250 	249
f 394 	586 	576
f 400 	406 	15
f 592 	15 	406
f 405 	592 	406
f 414 	419 	367
f 367 	30 	414
f 410 	414 	30
f 409 	219 	413
f 366 	365 	330
f 183 	330 	365
f 327 	194 	365
f 188 	390 	183
f 377 	390 	188
f 52 	73 	411
f 330 	331 	366
f 418 	220 	417
f 415 	417 	220
f 260 	261 	187
f 420 	220 	418
f 257 	258 	187
f 185 	189 	414
f 548 	53 	395
f 33 	220 	97
f 367 	419 	422
f 367 	422 	374
f 45 	257 	187
f 156 	155 	425
f 424 	425 	155
f 423 	424 	155
f 423 	155 	186
f 179 	170 	379
f 388 	179 	379
f 455 	411 	73
f 53 	52 	395
f 45 	192 	85
f 168 	171 	380
f 381 	171 	298
f 184 	87 	186
f 421 	154 	416
f 158 	156 	76
f 154 	109 	416
f 423 	186 	372
f 430 	428 	429
f 429 	428 	427
f 372 	371 	423
f 383 	428 	430
f 383 	430 	388
f 370 	425 	371
f 424 	371 	425
f 415 	426 	23
f 417 	415 	23
f 14 	23 	426
f 363 	396 	395
f 395 	411 	363
f 76 	156 	370
f 418 	417 	34
f 23 	34 	417
f 363 	369 	396
f 230 	228 	432
f 432 	427 	230
f 428 	230 	427
f 424 	423 	371
f 34 	49 	418
f 418 	49 	420
f 431 	432 	228
f 433 	434 	438
f 197 	148 	198
f 199 	198 	148
f 54 	492 	420
f 62 	371 	63
f 68 	63 	371
f 61 	371 	62
f 60 	371 	61
f 59 	371 	60
f 29 	371 	59
f 28 	371 	29
f 69 	68 	371
f 421 	416 	435
f 426 	220 	436
f 199 	208 	194
f 431 	265 	432
f 371 	28 	80
f 371 	80 	77
f 371 	77 	76
f 76 	370 	371
f 86 	371 	87
f 372 	87 	371
f 275 	274 	429
f 416 	438 	434
f 434 	435 	416
f 264 	275 	427
f 265 	264 	427
f 432 	265 	427
f 439 	446 	193
f 84 	436 	220
f 388 	430 	179
f 466 	467 	193
f 467 	439 	193
f 501 	542 	398
f 415 	220 	426
f 390 	377 	460
f 463 	350 	357
f 442 	443 	437
f 437 	5 	442
f 392 	557 	360
f 444 	93 	441
f 81 	27 	442
f 443 	442 	27
f 443 	27 	24
f 84 	113 	436
f 592 	405 	389
f 452 	428 	440
f 440 	383 	382
f 447 	193 	446
f 113 	594 	436
f 447 	449 	450
f 193 	447 	88
f 450 	88 	447
f 594 	14 	436
f 313 	441 	93
f 453 	449 	447
f 383 	440 	428
f 453 	447 	446
f 428 	452 	230
f 245 	248 	454
f 392 	211 	451
f 439 	6 	446
f 6 	476 	449
f 452 	440 	375
f 376 	375 	440
f 449 	89 	450
f 453 	6 	449
f 88 	450 	89
f 457 	196 	456
f 448 	451 	211
f 457 	200 	196
f 446 	6 	453
f 206 	458 	463
f 456 	349 	457
f 458 	206 	209
f 250 	200 	349
f 457 	349 	200
f 361 	411 	455
f 460 	204 	203
f 458 	205 	204
f 458 	204 	460
f 349 	456 	359
f 361 	363 	411
f 37 	459 	461
f 211 	146 	448
f 458 	209 	205
f 359 	105 	362
f 107 	368 	362
f 398 	386 	501
f 98 	378 	368
f 460 	203 	202
f 445 	448 	146
f 146 	145 	445
f 152 	445 	145
f 301 	116 	114
f 455 	73 	444
f 470 	466 	92
f 73 	79 	444
f 80 	91 	166
f 397 	393 	462
f 462 	1 	465
f 469 	466 	470
f 358 	361 	444
f 441 	358 	444
f 455 	444 	361
f 399 	397 	464
f 465 	464 	397
f 193 	92 	466
f 461 	459 	468
f 462 	465 	397
f 466 	469 	472
f 466 	472 	467
f 459 	473 	468
f 155 	159 	374
f 471 	468 	473
f 398 	396 	369
f 6 	439 	467
f 467 	472 	6
f 80 	81 	91
f 81 	5 	91
f 451 	557 	392
f 91 	469 	470
f 92 	91 	470
f 469 	6 	472
f 474 	408 	407
f 294 	353 	178
f 196 	200 	475
f 367 	366 	30
f 180 	86 	184
f 87 	184 	86
f 375 	30 	452
f 454 	452 	30
f 536 	533 	475
f 372 	186 	87
f 69 	371 	345
f 348 	345 	371
f 443 	24 	476
f 443 	476 	437
f 475 	200 	408
f 250 	408 	200
f 476 	6 	437
f 348 	371 	353
f 86 	353 	371
f 386 	398 	369
f 408 	474 	475
f 536 	475 	474
f 465 	1 	464
f 479 	464 	1
f 89 	449 	476
f 89 	476 	24
f 59 	101 	89
f 481 	547 	1
f 524 	525 	1
f 504 	524 	1
f 479 	410 	464
f 399 	464 	410
f 101 	59 	104
f 60 	104 	59
f 482 	202 	201
f 445 	152 	478
f 1 	546 	479
f 553 	558 	479
f 104 	60 	94
f 61 	94 	60
f 202 	482 	460
f 529 	2 	483
f 410 	558 	414
f 95 	94 	62
f 61 	62 	94
f 482 	201 	592
f 419 	414 	189
f 63 	96 	62
f 95 	62 	96
f 302 	304 	287
f 153 	150 	529
f 2 	529 	287
f 482 	389 	460
f 419 	189 	422
f 110 	96 	68
f 63 	68 	96
f 292 	2 	290
f 292 	320 	2
f 290 	2 	308
f 304 	306 	2
f 110 	68 	114
f 69 	114 	68
f 155 	374 	422
f 182 	556 	177
f 177 	556 	293
f 319 	293 	2
f 157 	477 	152
f 478 	152 	477
f 485 	486 	196
f 592 	389 	482
f 399 	410 	30
f 425 	370 	156
f 486 	494 	456
f 486 	456 	196
f 158 	76 	166
f 77 	166 	76
f 485 	488 	486
f 80 	166 	77
f 149 	218 	487
f 137 	148 	480
f 6 	5 	437
f 490 	215 	214
f 485 	196 	484
f 81 	442 	5
f 491 	355 	480
f 484 	239 	485
f 485 	239 	488
f 103 	102 	489
f 148 	325 	480
f 478 	584 	445
f 489 	488 	239
f 239 	484 	232
f 468 	581 	461
f 97 	420 	492
f 486 	493 	494
f 480 	305 	311
f 487 	216 	215
f 487 	215 	490
f 495 	493 	486
f 495 	486 	488
f 488 	102 	105
f 487 	218 	216
f 49 	552 	54
f 456 	494 	359
f 494 	493 	359
f 105 	359 	493
f 492 	498 	97
f 488 	105 	495
f 493 	495 	105
f 213 	212 	463
f 107 	362 	105
f 490 	214 	213
f 463 	490 	213
f 497 	471 	473
f 463 	212 	206
f 279 	285 	416
f 563 	66 	492
f 284 	438 	285
f 416 	285 	438
f 112 	391 	385
f 115 	117 	391
f 504 	502 	503
f 498 	492 	66
f 386 	355 	501
f 491 	501 	355
f 435 	578 	421
f 498 	67 	106
f 462 	502 	504
f 504 	1 	462
f 496 	501 	491
f 596 	505 	507
f 510 	511 	504
f 431 	227 	512
f 513 	473 	499
f 503 	510 	504
f 506 	433 	438
f 226 	512 	227
f 225 	512 	226
f 228 	227 	431
f 393 	117 	503
f 502 	393 	503
f 462 	393 	502
f 151 	511 	117
f 500 	499 	473
f 516 	515 	514
f 510 	117 	511
f 503 	117 	510
f 513 	497 	473
f 496 	491 	517
f 518 	517 	491
f 516 	523 	515
f 518 	491 	522
f 527 	1 	525
f 512 	225 	521
f 508 	505 	596
f 596 	509 	508
f 481 	1 	527
f 491 	459 	522
f 511 	524 	504
f 520 	224 	519
f 528 	519 	224
f 530 	528 	224
f 157 	133 	477
f 477 	133 	526
f 224 	521 	225
f 520 	521 	224
f 481 	527 	483
f 527 	525 	483
f 525 	524 	483
f 524 	511 	483
f 529 	483 	511
f 153 	529 	151
f 511 	151 	529
f 132 	526 	133
f 401 	374 	159
f 224 	236 	530
f 401 	159 	403
f 407 	403 	172
f 566 	584 	526
f 92 	193 	539
f 491 	120 	459
f 118 	459 	119
f 522 	459 	37
f 459 	118 	124
f 172 	474 	407
f 305 	480 	325
f 459 	124 	473
f 232 	196 	534
f 535 	533 	536
f 451 	448 	557
f 533 	535 	537
f 311 	491 	480
f 533 	537 	534
f 538 	526 	132
f 531 	506 	438
f 123 	473 	124
f 596 	507 	597
f 232 	534 	239
f 534 	537 	239
f 239 	537 	539
f 474 	539 	535
f 532 	597 	507
f 122 	473 	123
f 515 	523 	531
f 474 	535 	536
f 122 	127 	473
f 505 	231 	507
f 535 	539 	537
f 132 	137 	541
f 541 	538 	132
f 539 	474 	174
f 546 	1 	545
f 515 	531 	438
f 544 	545 	1
f 543 	500 	127
f 547 	544 	1
f 500 	473 	127
f 546 	549 	550
f 550 	553 	546
f 552 	49 	551
f 34 	551 	49
f 515 	554 	514
f 553 	479 	546
f 555 	549 	546
f 551 	34 	532
f 545 	555 	546
f 478 	477 	584
f 538 	566 	526
f 483 	2 	556
f 2 	293 	556
f 238 	582 	243
f 233 	582 	238
f 243 	582 	244
f 551 	223 	552
f 545 	483 	558
f 544 	483 	545
f 547 	483 	544
f 481 	483 	547
f 483 	556 	558
f 181 	558 	556
f 603 	247 	244
f 223 	551 	532
f 550 	558 	553
f 549 	558 	550
f 410 	479 	558
f 281 	416 	282
f 280 	416 	281
f 373 	384 	560
f 545 	558 	555
f 549 	555 	558
f 240 	247 	603
f 556 	182 	181
f 438 	284 	283
f 561 	562 	254
f 255 	254 	562
f 559 	560 	384
f 542 	548 	398
f 254 	259 	561
f 185 	414 	558
f 181 	185 	558
f 252 	272 	561
f 532 	507 	231
f 422 	189 	191
f 561 	259 	252
f 155 	422 	191
f 231 	505 	237
f 508 	237 	505
f 256 	255 	562
f 193 	88 	489
f 65 	256 	562
f 58 	256 	65
f 488 	489 	102
f 557 	448 	584
f 107 	108 	368
f 108 	98 	368
f 385 	98 	112
f 391 	112 	115
f 393 	391 	117
f 438 	289 	515
f 297 	65 	562
f 287 	529 	150
f 272 	271 	564
f 288 	515 	289
f 564 	561 	272
f 587 	542 	501
f 563 	54 	552
f 588 	587 	517
f 564 	271 	270
f 492 	54 	563
f 403 	159 	169
f 131 	138 	332
f 144 	332 	138
f 519 	568 	268
f 269 	268 	568
f 403 	169 	172
f 37 	579 	522
f 539 	176 	92
f 554 	515 	144
f 332 	144 	515
f 355 	38 	39
f 474 	172 	174
f 355 	64 	38
f 490 	557 	487
f 539 	174 	176
f 560 	565 	373
f 499 	500 	565
f 500 	543 	565
f 82 	64 	355
f 515 	288 	332
f 373 	565 	543
f 17 	13 	564
f 559 	513 	560
f 523 	516 	567
f 514 	567 	516
f 22 	600 	564
f 477 	526 	584
f 531 	523 	567
f 355 	39 	7
f 269 	568 	270
f 270 	568 	564
f 559 	384 	570
f 514 	554 	567
f 31 	32 	564
f 568 	31 	564
f 569 	570 	384
f 567 	571 	531
f 572 	506 	571
f 531 	571 	506
f 7 	480 	355
f 573 	506 	572
f 541 	566 	538
f 31 	568 	530
f 569 	384 	321
f 574 	506 	573
f 540 	566 	541
f 434 	433 	574
f 433 	506 	574
f 565 	560 	513
f 554 	144 	567
f 571 	567 	9
f 231 	223 	532
f 268 	520 	519
f 9 	19 	571
f 513 	499 	565
f 268 	273 	520
f 521 	520 	273
f 431 	266 	265
f 573 	595 	574
f 266 	431 	512
f 273 	267 	521
f 267 	266 	512
f 512 	521 	267
f 430 	429 	274
f 574 	575 	434
f 435 	434 	575
f 220 	576 	84
f 429 	427 	275
f 445 	584 	448
f 430 	274 	179
f 3 	11 	582
f 528 	568 	519
f 568 	528 	530
f 577 	3 	582
f 279 	416 	280
f 575 	574 	595
f 580 	421 	578
f 575 	578 	435
f 583 	569 	581
f 579 	581 	569
f 570 	569 	583
f 154 	421 	580
f 572 	571 	19
f 438 	283 	289
f 573 	19 	595
f 4 	409 	582
f 570 	471 	559
f 11 	4 	582
f 400 	131 	402
f 332 	402 	131
f 330 	402 	331
f 331 	402 	332
f 583 	468 	570
f 580 	585 	154
f 405 	183 	389
f 402 	330 	405
f 569 	548 	588
f 578 	595 	580
f 183 	405 	330
f 590 	569 	588
f 542 	587 	548
f 586 	577 	576
f 577 	582 	576
f 587 	588 	548
f 579 	569 	590
f 113 	111 	589
f 131 	400 	15
f 578 	575 	595
f 580 	595 	585
f 131 	15 	138
f 321 	591 	569
f 576 	248 	84
f 591 	321 	335
f 201 	341 	592
f 576 	229 	248
f 340 	15 	341
f 592 	341 	15
f 584 	591 	335
f 15 	340 	342
f 593 	113 	589
f 594 	113 	593
f 338 	9 	339
f 591 	548 	569
f 426 	436 	14
f 339 	9 	342
f 41 	595 	19
f 343 	9 	338
f 72 	463 	46
f 50 	463 	57
f 234 	582 	233
f 234 	242 	582
f 36 	19 	35
f 260 	458 	261
f 582 	242 	576
f 229 	576 	242
f 9 	343 	19
f 35 	19 	337
f 337 	19 	343
f 589 	585 	595
f 584 	335 	487
f 597 	594 	593
f 14 	594 	597
f 518 	522 	590
f 583 	581 	468
f 15 	342 	9
f 471 	570 	468
f 497 	559 	471
f 513 	559 	497
f 596 	597 	56
f 595 	597 	589
f 591 	584 	566
f 557 	584 	487
f 593 	589 	597
f 56 	297 	596
f 566 	548 	591
f 595 	41 	56
f 598 	596 	90
f 597 	595 	56
f 297 	90 	596
f 586 	598 	90
f 37 	581 	579
f 501 	496 	587
f 496 	517 	587
f 596 	598 	509
f 517 	518 	588
f 590 	588 	518
f 579 	590 	522
f 37 	461 	581
f 598 	394 	509
f 356 	354 	490
f 357 	356 	463
f 490 	463 	356
f 278 	508 	394
f 508 	509 	394
f 586 	394 	598
f 458 	258 	463
f 257 	463 	258
f 586 	90 	577
f 99 	3 	90
f 3 	577 	90
f 257 	57 	463
f 460 	261 	458
f 258 	458 	260
f 601 	599 	602
f 600 	602 	599
f 276 	601 	602
f 16 	564 	599
f 600 	599 	564
f 601 	16 	599
f 276 	13 	601
f 277 	276 	602
f 413 	412 	603
f 277 	602 	404
f 602 	603 	404
f 412 	404 	603
f 413 	582 	409
f 603 	582 	413
f 235 	22 	32
f 22 	235 	600
f 236 	235 	32
f 602 	600 	235
f 530 	236 	31
f 32 	31 	236
f 240 	603 	241
f 602 	241 	603
f 235 	241 	602
f 83 	562 	561
f 83 	297 	562
f 561 	564 	13
f 217 	561 	13
f 83 	561 	217
# 1202 faces

 #end of obj_0

