# Object Export From Tinkercad Server 2015

mtllib obj.mtl

o obj_0
v 30.736 		-39.625 		20
v 30.736 		-39.625 		21
v 30 		-39.625 		20
v 32.848 		27.223 		0
v 32.848 		27.223 		19.998
v -28.264 		-40.25 		21
v -28.393 		-39.769 		21
v 30.607 		28.517 		0
v 31.573 		-39.142 		20
v 30.607 		-39.144 		20
v 30.6105 		-39.142 		20
v 25.776 		-30.776 		20
v 25.776 		-30.776 		21
v 30 		-39.144 		20
v -27.427 		-39.767 		20
v 30.607 		28.517 		19.998
v 25.776 		-37.849 		21
v 25.776 		-37.849 		20
v -31.111 		19 		21
v 25.777 		20.152 		2.503
v 26.6759 		19.6329 		2.503
v 30.478 		28.036 		19.998
v -28.264 		-40.25 		20
v -31.111 		19 		20
v 25.777 		27.223 		19.998
v -25.6329 		21.6759 		0
v -25.985 		22.028 		0
v -25.339 		23.147 		0
v 24.4934 		25 		15
v 24.483 		24.982 		15
v 24.483 		24.982 		19.998
v -28.3895 		-39.767 		20
v -28.393 		-39.769 		20
v 32.496 		26.871 		19.998
v 28.018 		-29.481 		21
v 28.018 		-29.481 		20
v -28.393 		-39.767 		19.998
v 26.6759 		19.6329 		0
v -24.858 		23.018 		0
v 30.607 		-39.144 		21
v 33.661 		24.853 		19.998
v 25.777 		20.152 		19.998
v -28.393 		19.481 		21
v -30.982 		19.481 		21
v -30.982 		19.481 		20
v -28.264 		19 		21
v 28.018 		18.858 		0
v -28.522 		19.964 		0
v 33.661 		22.522 		19.998
v 24.483 		22.393 		19.998
v 34.142 		24.982 		19.998
v 25.2579 		21.0509 		2.503
v -28.393 		19.483 		0
v -24.375 		-33.514 		21
v 32.496 		20.504 		19.998
v -24.375 		-33.514 		20
v 26.129 		20.504 		19.998
v -29.003 		19.483 		0
v -25.798 		-31.048 		20
v -26.151 		20.776 		21
v -25.798 		-31.048 		21
v 34.142 		22.393 		19.998
v 24.964 		22.522 		0
v 25.2579 		21.0509 		0
v 25.61 		21.403 		0
v 24.964 		22.522 		19.998
v -24.375 		-36.361 		21
v -31.111 		29.625 		20
v -31.111 		29.625 		21
v -24.375 		-36.361 		20
v -28.393 		29.144 		21
v 30.478 		19.339 		19.998
v 27.028 		19.985 		0
v 28.147 		19.339 		0
v 32.848 		20.152 		19.998
v 29.003 		18.858 		0
v 24.964 		24.853 		19.998
v 26.129 		26.871 		19.998
v 30.607 		-39.142 		0
v 30.607 		-39.142 		19.998
v -26.151 		27.849 		21
v -28.264 		29.625 		21
v 30.607 		18.858 		19.998
v -25.798 		-38.827 		21
v 28.147 		28.036 		19.998
v 24.483 		22.393 		0
v 30.478 		28.036 		0
v -25.798 		-38.827 		20
v -33.577 		28.202 		20
v -33.577 		28.202 		21
v -24.856 		25.607 		21
v 26.129 		20.504 		2.503
v 25.61 		21.403 		2.503
v -25.798 		28.202 		21
v 24.483 		24.003 		0
v 32.496 		26.871 		0
v -24.375 		25.736 		21
v 25.2579 		-31.6759 		0
v 25.61 		-32.028 		0
v 28.018 		28.517 		19.998
v -24.856 		23.018 		21
v 33.661 		24.853 		0
v 24.964 		-33.147 		0
v -34.517 		26.573 		20
v 28.147 		-29.964 		0
v 33.661 		22.522 		0
v 29.003 		-29.483 		0
v 34.142 		24.982 		0
v -25.798 		20.423 		21
v -24.375 		22.889 		21
v 28.147 		19.339 		19.998
v 27.028 		-30.61 		0
v 32.496 		20.504 		0
v 26.6759 		-30.2579 		0
v 28.018 		-29.483 		0
v 34.142 		22.393 		0
v -34.517 		22.052 		20
v 24.481 		22.393 		21
v -33.577 		20.423 		20
v 30.478 		19.339 		0
v -33.577 		20.423 		21
v -28.264 		-29.625 		21
v 24.483 		-34.003 		0
v 24.483 		-33.018 		0
v -28.264 		-29.625 		20
v 27.028 		19.985 		2.503
v 32.848 		20.152 		0
v 24.481 		24.982 		21
v 30.607 		18.858 		0
v 24 		25.111 		21
v 24 		22.264 		21
v 28.018 		18.858 		19.998
v 30 		18.858 		0
v 24.481 		-33.018 		21
v 30.478 		-38.661 		0
v 24.481 		-35.607 		21
v 32.496 		-37.496 		0
v -27.0509 		-30.8829 		0
v -27.403 		-31.235 		0
v -28.522 		-30.589 		0
v 24 		-32.889 		21
v 33.661 		-35.478 		0
v 24 		-35.736 		21
v -33.224 		20.776 		20
v -29.003 		-30.108 		0
v 32.848 		-37.848 		0
v -33.224 		20.776 		21
v -28.393 		-30.108 		0
v 28.018 		-39.144 		21
v 33.661 		-33.147 		0
v -25.339 		-33.772 		0
v 34.142 		-35.607 		0
v -34.517 		23.0145 		20
v 30.607 		-29.483 		19.998
v 32.496 		-31.129 		0
v -25.985 		-32.653 		0
v 30.607 		-29.483 		0
v 34.142 		-33.018 		0
v 27.889 		-39.625 		21
v 30 		-29.483 		0
v -25.6329 		-32.3009 		0
v -24.858 		-33.643 		0
v 30 		-29.483 		15
v -24.858 		-34.003 		0
v 30.478 		-29.964 		0
v -26.151 		-31.401 		20
v -26.151 		-31.401 		21
v -28.393 		-30.106 		21
v -33.224 		27.849 		20
v -28.393 		-30.106 		20
v 24.964 		24.853 		0
v 28.018 		18.856 		21
v 32.848 		-30.777 		19.998
v -33.224 		27.849 		21
v 32.848 		-30.777 		0
v -34.517 		25.6105 		20
v -24.858 		24.003 		0
v 27.889 		18.375 		21
v -24.858 		25 		0
v 26.6759 		-30.2579 		2.503
v 25.777 		-30.777 		2.503
v -30.982 		29.144 		20
v -30.982 		29.144 		21
v 25.776 		20.151 		21
v 34.142 		-33.018 		19.998
v -26.151 		-38.474 		21
v -26.151 		-38.474 		20
v 25.776 		27.224 		21
v 30.607 		18.856 		21
v 29.003 		-29.483 		15
v -33.577 		-38.827 		21
v -33.577 		-38.827 		20
v 24.4934 		25 		0
v -31.948 		-39.767 		20
v 34.142 		-35.607 		19.998
v 30.736 		18.375 		21
v -24.856 		-36.232 		21
v -24.856 		-36.232 		20
v -34.517 		-37.198 		20
v 28.018 		28.519 		21
v 25.423 		27.577 		21
v -24.856 		-33.643 		21
v -24.858 		-35 		0
v -24.856 		-33.643 		20
v 30.607 		28.519 		21
v 25.2579 		-31.6759 		2.503
v 32.848 		-37.848 		19.998
v 2.315 		-35 		0
v 2.315 		-34.003 		0
v 27.889 		29 		21
v -33.577 		-31.048 		21
v -33.577 		-31.048 		20
v -34.517 		-32.677 		20
v 32.849 		27.224 		21
v 30.736 		29 		21
v 24.483 		-35 		0
v -31.111 		-29.625 		21
v -31.111 		-29.625 		20
v 25.777 		-30.777 		19.998
v -28.393 		19.481 		20
v -2.69 		-34.003 		0
v 28.018 		-29.483 		19.998
v -2.69 		-35 		0
v 34.144 		24.982 		21
v 33.202 		27.577 		21
v 34.625 		25.111 		21
v -28.264 		19 		20
v 25.423 		19.798 		21
v 34.144 		22.393 		21
v -30 		-30.108 		0
v 32.849 		20.151 		21
v 34.625 		22.264 		21
v 24.481 		-33.018 		20
v 33.202 		19.798 		21
v 24.481 		-35.607 		20
v 32.496 		-37.496 		19.998
v 30.478 		-38.661 		19.998
v 25.61 		-32.028 		2.503
v 26.129 		-31.129 		2.503
v 24 		-35.736 		20
v 24 		-32.889 		20
v 33.661 		-35.478 		19.998
v 25.777 		-37.848 		19.998
v 25.423 		-38.202 		21
v 32.849 		-37.849 		21
v 28.018 		-39.142 		19.998
v -30.982 		-30.106 		21
v -30.982 		-30.106 		20
v -33.224 		-31.401 		21
v -33.224 		-31.401 		20
v 34.144 		-35.607 		21
v 33.661 		-33.147 		19.998
v 33.202 		-38.202 		21
v -30 		19.483 		0
v 32.496 		-31.129 		19.998
v 27.889 		-29 		21
v -34.517 		-33.6395 		20
v 25.423 		-30.423 		21
v 34.144 		-33.018 		21
v 30.478 		-29.964 		19.998
v 34.625 		-35.736 		21
v 24.483 		-35.607 		19.998
v -33.224 		-38.474 		21
v -33.224 		-38.474 		20
v -34.517 		-36.2355 		20
v -26.151 		20.776 		20
v 32.849 		-30.776 		21
v 34.625 		-32.889 		21
v -30.9855 		-39.767 		20
v -24.856 		23.018 		20
v -28.393 		-39.767 		0
v 30.607 		-29.481 		21
v 33.202 		-30.423 		21
v -24.375 		22.889 		20
v -25.798 		20.423 		20
v 27.028 		-30.61 		2.503
v 24.483 		-35 		15
v 24.483 		-35.607 		0
v 30.736 		-29 		21
v 30.736 		18.375 		20
v 24.483 		-33.018 		19.998
v 28.018 		-39.142 		0
v 24.481 		22.393 		20
v 24.964 		-33.147 		19.998
v 26.129 		-31.129 		19.998
v 25.777 		-37.848 		0
v 24.481 		24.982 		20
v 26.129 		-37.496 		19.998
v 24.964 		-35.478 		19.998
v 30.607 		18.856 		20
v 24 		22.264 		20
v 24 		25.111 		20
v 28.147 		-38.661 		19.998
v 33.202 		19.798 		20
v -24.856 		25.607 		20
v 28.147 		-29.964 		19.998
v -25.6329 		-32.3009 		2.503
v -26.152 		-31.402 		2.503
v 34.625 		22.264 		20
v -24.375 		25.736 		20
v 30 		18.858 		15
v -26.151 		27.849 		20
v 34.625 		25.111 		20
v -24.858 		-34.003 		15
v -35 		25.736 		21
v -25.798 		28.202 		20
v -35 		25.736 		20
v -35 		22.889 		20
v -35 		22.889 		21
v 26.129 		-37.496 		0
v -35 		-33.514 		21
v 24.964 		-35.478 		0
v -29.003 		-30.108 		15
v -28.393 		29.144 		20
v -35 		-33.514 		20
v 33.202 		27.577 		20
v -35 		-36.361 		20
v -35 		-36.361 		21
v 28.147 		-38.661 		0
v -27.0509 		-30.8829 		2.503
v -28.264 		29.625 		20
v -34.519 		23.018 		20
v -34.519 		25.607 		20
v 30.736 		29 		20
v -24.858 		-35 		15
v -24.858 		-36.232 		0
v 28.018 		-39.144 		20
v -34.519 		-33.643 		20
v -26.152 		-38.473 		0
v -27.403 		-31.235 		2.503
v -26.504 		-31.754 		2.503
v -34.519 		-36.232 		20
v 27.889 		-39.625 		20
v 30.607 		28.519 		20
v 28.018 		18.856 		20
v 32.849 		27.224 		20
v -34.519 		23.018 		21
v 27.889 		18.375 		20
v -34.519 		25.607 		21
v -26.504 		-38.121 		0
v -28.522 		-39.286 		0
v 34.144 		24.982 		20
v -26.152 		-31.402 		19.998
v -24.858 		-33.643 		19.998
v -34.519 		-33.643 		21
v 25.423 		-30.423 		20
v -25.339 		-36.103 		0
v 27.889 		-29 		20
v -30.982 		19.483 		19.998
v -34.519 		-36.232 		21
v -30.982 		19.483 		0
v -24.858 		-36.232 		19.998
v 34.144 		22.393 		20
v -30 		19.483 		15
v -25.985 		-32.653 		2.503
v 25.776 		20.151 		20
v 32.849 		20.151 		20
v -30.982 		29.142 		19.998
v -30.982 		29.142 		0
v 25.423 		19.798 		20
v -2.69 		-35 		5.003
v -2.6106 		-35 		5.003
v -33.223 		27.848 		0
v -33.223 		27.848 		19.998
v -2.568 		-35 		5.273
v -26.152 		-38.473 		19.998
v 30.736 		-29 		20
v -24.858 		24.003 		15
v -2.212 		-35 		5.971
v 33.202 		-30.423 		20
v -1.658 		-35 		6.525
v -0.961 		-35 		6.88
v 24.483 		24.003 		15
v -34.517 		25.607 		0
v -34.517 		25.607 		19.998
v 34.625 		-32.889 		20
v -0.188 		-35 		7.003
v 28.018 		28.519 		20
v -33.223 		20.777 		19.998
v -33.223 		20.777 		0
v 0.586 		-35 		6.88
v -34.517 		23.018 		19.998
v -34.517 		23.018 		0
v 34.625 		-35.736 		20
v -28.393 		-30.108 		19.998
v 1.283 		-35 		6.525
v -30 		-30.108 		15
v 1.837 		-35 		5.971
v 27.889 		29 		20
v 2.193 		-35 		5.273
v 33.202 		-38.202 		20
v -2.568 		-34.003 		5.273
v -2.6106 		-34.003 		5.003
v -2.69 		-34.003 		5.003
v 2.2356 		-35 		5.003
v 2.315 		-35 		5.003
v 25.776 		27.224 		20
v -2.212 		-34.003 		5.971
v -30.853 		19.964 		19.998
v -32.871 		21.129 		19.998
v 25.423 		27.577 		20
v -1.658 		-34.003 		6.525
v -28.522 		-30.589 		19.998
v -26.504 		-31.754 		19.998
v -0.961 		-34.003 		6.88
v -34.036 		23.147 		19.998
v -34.517 		-36.232 		19.998
v -34.036 		25.478 		19.998
v -34.517 		-33.643 		19.998
v 32.849 		-37.849 		20
v -34.517 		-33.643 		0
v -32.871 		27.496 		19.998
v -34.517 		-36.232 		0
v -0.188 		-34.003 		7.003
v -26.504 		-38.121 		19.998
v -28.522 		-39.286 		19.998
v -30.853 		28.661 		19.998
v 0.586 		-34.003 		6.88
v -31.111 		-40.25 		21
v -31.111 		-40.25 		20
v 34.144 		-35.607 		20
v -25.339 		-36.103 		19.998
v 1.283 		-34.003 		6.525
v -30.982 		-39.769 		20
v 34.144 		-33.018 		20
v -25.339 		-33.772 		19.998
v 1.837 		-34.003 		5.971
v 32.849 		-30.776 		20
v -30.982 		-39.769 		21
v 25.423 		-38.202 		20
v 2.193 		-34.003 		5.273
v 30.607 		-29.481 		20
v -24.858 		25.607 		0
v 2.315 		-34.003 		5.003
v -24.858 		25 		15
v 2.2356 		-34.003 		5.003
v -26.152 		27.848 		0
v -32.871 		21.129 		0
v -30.853 		19.964 		0
v -34.036 		23.147 		0
v 24.483 		-34.003 		15
v -30.982 		-39.767 		19.998
v -30.982 		-39.767 		0
v -32.871 		27.496 		0
v -34.036 		25.478 		0
v -28.393 		29.142 		0
v -30.853 		28.661 		0
v -28.522 		28.661 		0
v -26.504 		27.496 		0
v -33.223 		-38.473 		19.998
v -33.223 		-38.473 		0
v -25.339 		25.478 		0
v -30.853 		-30.589 		0
v 28.018 		28.517 		0
v -28.393 		19.483 		19.998
v -32.871 		-31.754 		0
v -30.982 		-30.108 		0
v -29.003 		19.483 		15
v -24.858 		23.018 		19.998
v -34.036 		-33.772 		0
v -26.152 		20.777 		19.998
v 25.777 		27.223 		0
v -33.223 		-31.402 		19.998
v -33.223 		-31.402 		0
v -34.036 		-36.103 		0
v -24.858 		25.607 		19.998
v -32.871 		-38.121 		0
v -30.982 		-30.108 		19.998
v -30.853 		-39.286 		0
v -26.152 		27.848 		19.998
v -30.853 		-30.589 		19.998
v 26.129 		26.871 		0
v 28.147 		28.036 		0
v -28.393 		29.142 		19.998
v -32.871 		-31.754 		19.998
v -34.036 		-33.772 		19.998
v -32.871 		-38.121 		19.998
v -34.036 		-36.103 		19.998
v -30.853 		-39.286 		19.998
v -26.504 		21.129 		19.998
v -26.152 		20.777 		2.503
v -25.6329 		21.6759 		2.503
v -28.522 		19.964 		19.998
v 29.003 		18.858 		15
v -28.522 		28.661 		19.998
v -26.504 		27.496 		19.998
v -25.339 		25.478 		19.998
v -25.339 		23.147 		19.998
v -27.0509 		20.2579 		2.503
v -27.0509 		20.2579 		0
v -26.504 		21.129 		2.503
v -27.403 		20.61 		2.503
v -27.403 		20.61 		0
v -25.985 		22.028 		2.503
# 494 vertices

g group_0_15277357

usemtl color_15277357
s 0

f 1 	2 	3
f 9 	1 	11
f 136 	17 	18
f 6 	23 	15
f 31 	25 	29
f 30 	31 	29
f 7 	32 	33
f 7 	33 	424
f 5 	16 	34
f 22 	34 	16
f 100 	22 	16
f 10 	11 	1
f 1 	3 	10
f 14 	10 	3
f 47 	21 	38
f 28 	39 	27
f 26 	27 	39
f 253 	40 	2
f 149 	2 	40
f 41 	51 	34
f 51 	5 	34
f 47 	132 	21
f 36 	35 	13
f 36 	13 	12
f 49 	51 	41
f 19 	46 	43
f 45 	44 	220
f 43 	220 	44
f 53 	58 	48
f 253 	2 	9
f 1 	9 	2
f 55 	62 	49
f 51 	49 	62
f 46 	109 	43
f 54 	56 	59
f 54 	59 	61
f 64 	86 	65
f 40 	11 	10
f 66 	50 	57
f 40 	10 	14
f 40 	14 	149
f 56 	67 	70
f 42 	50 	52
f 74 	47 	73
f 38 	73 	47
f 72 	83 	55
f 62 	55 	75
f 52 	20 	42
f 25 	31 	78
f 77 	78 	31
f 80 	246 	79
f 81 	94 	71
f 69 	71 	82
f 67 	56 	54
f 76 	47 	74
f 75 	55 	83
f 86 	52 	50
f 64 	52 	86
f 85 	100 	78
f 66 	57 	93
f 91 	94 	81
f 82 	71 	94
f 63 	65 	86
f 63 	86 	95
f 68 	89 	90
f 68 	90 	69
f 84 	88 	70
f 84 	70 	67
f 4 	96 	8
f 87 	8 	96
f 22 	100 	85
f 25 	78 	100
f 97 	94 	91
f 101 	110 	91
f 97 	91 	110
f 65 	63 	93
f 66 	93 	63
f 4 	108 	96
f 103 	124 	99
f 96 	34 	22
f 96 	22 	87
f 92 	52 	93
f 102 	41 	34
f 102 	34 	96
f 102 	96 	108
f 106 	102 	108
f 106 	108 	116
f 60 	109 	101
f 60 	43 	109
f 110 	101 	109
f 88 	84 	15
f 6 	15 	84
f 41 	102 	106
f 41 	106 	49
f 305 	90 	104
f 89 	104 	90
f 114 	115 	112
f 105 	112 	115
f 107 	105 	115
f 42 	132 	57
f 127 	113 	116
f 106 	116 	113
f 93 	52 	64
f 93 	64 	65
f 49 	106 	113
f 49 	113 	55
f 121 	117 	119
f 98 	99 	124
f 123 	124 	103
f 127 	129 	113
f 120 	113 	129
f 121 	119 	19
f 24 	19 	119
f 128 	130 	118
f 130 	131 	118
f 129 	133 	120
f 13 	258 	134
f 111 	57 	132
f 132 	83 	111
f 72 	111 	83
f 55 	113 	120
f 55 	120 	72
f 146 	79 	137
f 42 	57 	50
f 31 	50 	66
f 31 	66 	77
f 140 	148 	139
f 73 	126 	74
f 142 	152 	137
f 134 	141 	136
f 141 	143 	136
f 138 	139 	148
f 145 	148 	140
f 44 	144 	147
f 45 	144 	44
f 20 	92 	21
f 52 	92 	20
f 126 	21 	92
f 150 	158 	142
f 158 	152 	142
f 146 	137 	152
f 92 	93 	57
f 73 	38 	21
f 73 	21 	126
f 155 	158 	150
f 59 	125 	122
f 59 	122 	61
f 147 	144 	153
f 161 	162 	156
f 151 	156 	162
f 151 	162 	164
f 160 	163 	157
f 154 	157 	163
f 17 	244 	149
f 149 	159 	2
f 165 	157 	155
f 158 	155 	175
f 170 	166 	168
f 167 	168 	166
f 473 	85 	78
f 175 	155 	157
f 157 	165 	160
f 176 	169 	174
f 452 	179 	177
f 181 	219 	180
f 154 	173 	175
f 154 	175 	157
f 247 	170 	168
f 135 	137 	79
f 174 	182 	183
f 169 	182 	174
f 85 	473 	87
f 85 	87 	22
f 131 	228 	118
f 222 	115 	180
f 114 	180 	115
f 182 	71 	183
f 158 	175 	185
f 173 	185 	175
f 7 	186 	32
f 187 	32 	186
f 57 	111 	126
f 92 	57 	126
f 74 	126 	111
f 63 	95 	171
f 179 	193 	95
f 177 	179 	95
f 171 	95 	193
f 191 	192 	194
f 188 	201 	128
f 158 	195 	152
f 187 	186 	198
f 197 	198 	186
f 172 	178 	189
f 196 	189 	178
f 185 	195 	158
f 200 	201 	188
f 130 	128 	201
f 203 	151 	164
f 111 	72 	74
f 120 	74 	72
f 191 	199 	192
f 198 	197 	204
f 202 	204 	197
f 211 	212 	213
f 167 	166 	204
f 167 	204 	202
f 214 	225 	205
f 208 	209 	123
f 103 	312 	123
f 208 	123 	216
f 66 	63 	77
f 98 	124 	206
f 195 	207 	146
f 195 	146 	152
f 201 	200 	210
f 205 	215 	200
f 221 	223 	164
f 203 	164 	223
f 210 	200 	215
f 224 	225 	214
f 215 	205 	225
f 222 	180 	219
f 226 	225 	224
f 229 	232 	224
f 226 	224 	232
f 184 	118 	228
f 178 	172 	228
f 184 	228 	172
f 212 	211 	218
f 217 	218 	211
f 230 	145 	140
f 24 	220 	227
f 266 	275 	220
f 231 	234 	229
f 163 	190 	154
f 222 	154 	190
f 107 	115 	190
f 141 	134 	258
f 80 	79 	207
f 146 	207 	79
f 122 	125 	218
f 196 	234 	189
f 231 	189 	234
f 232 	229 	234
f 18 	430 	235
f 222 	190 	115
f 237 	80 	236
f 143 	244 	136
f 122 	218 	217
f 241 	233 	240
f 240 	233 	235
f 207 	195 	236
f 17 	136 	244
f 159 	149 	244
f 40 	253 	245
f 248 	170 	247
f 239 	285 	238
f 284 	103 	238
f 99 	238 	103
f 248 	247 	249
f 248 	249 	250
f 166 	170 	59
f 195 	252 	242
f 242 	236 	195
f 35 	272 	279
f 230 	254 	145
f 58 	145 	254
f 48 	58 	254
f 70 	204 	56
f 251 	245 	253
f 185 	255 	252
f 195 	185 	252
f 238 	206 	239
f 258 	13 	35
f 279 	256 	35
f 258 	35 	256
f 250 	249 	257
f 56 	204 	59
f 204 	166 	59
f 173 	154 	255
f 185 	173 	255
f 167 	61 	168
f 165 	105 	107
f 165 	107 	160
f 253 	261 	251
f 259 	251 	261
f 206 	238 	99
f 206 	99 	98
f 350 	263 	265
f 264 	265 	263
f 260 	255 	154
f 247 	168 	122
f 263 	269 	264
f 76 	133 	107
f 74 	120 	76
f 120 	133 	76
f 160 	107 	133
f 6 	84 	7
f 261 	268 	259
f 268 	273 	259
f 207 	236 	80
f 124 	281 	206
f 186 	7 	84
f 197 	186 	84
f 236 	137 	135
f 236 	135 	237
f 242 	142 	137
f 242 	137 	236
f 220 	24 	45
f 267 	259 	273
f 272 	267 	273
f 84 	67 	197
f 202 	197 	67
f 206 	219 	181
f 266 	270 	275
f 274 	275 	270
f 252 	150 	142
f 252 	142 	242
f 277 	216 	278
f 277 	278 	262
f 273 	279 	272
f 54 	61 	202
f 67 	54 	202
f 167 	202 	61
f 122 	168 	61
f 255 	155 	150
f 255 	150 	252
f 219 	206 	281
f 89 	68 	182
f 282 	79 	246
f 280 	196 	178
f 280 	178 	338
f 112 	105 	276
f 296 	276 	105
f 260 	165 	155
f 260 	155 	255
f 19 	24 	46
f 227 	46 	24
f 219 	281 	285
f 180 	276 	239
f 206 	181 	239
f 180 	239 	181
f 282 	246 	286
f 227 	275 	46
f 289 	262 	288
f 114 	112 	276
f 114 	276 	180
f 104 	89 	169
f 243 	286 	246
f 220 	43 	266
f 291 	292 	287
f 291 	287 	283
f 135 	319 	237
f 189 	290 	335
f 189 	335 	172
f 182 	169 	89
f 243 	246 	288
f 196 	280 	234
f 294 	234 	280
f 176 	104 	169
f 160 	301 	163
f 154 	222 	260
f 296 	260 	222
f 109 	275 	274
f 109 	274 	110
f 270 	295 	274
f 300 	274 	295
f 232 	234 	299
f 296 	222 	285
f 222 	219 	285
f 110 	274 	97
f 300 	97 	274
f 294 	299 	234
f 161 	297 	162
f 302 	314 	306
f 301 	160 	133
f 278 	286 	262
f 243 	262 	286
f 293 	246 	237
f 293 	288 	246
f 80 	237 	246
f 232 	303 	226
f 162 	304 	164
f 300 	295 	306
f 302 	306 	295
f 305 	307 	308
f 305 	308 	309
f 284 	281 	289
f 284 	285 	281
f 281 	262 	289
f 243 	288 	262
f 117 	144 	119
f 153 	144 	117
f 303 	232 	299
f 94 	97 	300
f 306 	94 	300
f 148 	145 	313
f 314 	182 	321
f 311 	315 	317
f 311 	317 	318
f 284 	238 	285
f 225 	226 	316
f 321 	306 	314
f 82 	306 	321
f 117 	308 	153
f 312 	289 	310
f 288 	310 	289
f 24 	119 	45
f 144 	45 	119
f 82 	94 	306
f 138 	148 	320
f 310 	288 	319
f 293 	319 	288
f 323 	307 	176
f 176 	307 	104
f 303 	316 	226
f 182 	68 	321
f 68 	69 	321
f 199 	264 	192
f 194 	192 	264
f 269 	194 	264
f 307 	323 	322
f 322 	153 	308
f 307 	322 	308
f 227 	220 	275
f 105 	260 	296
f 215 	316 	324
f 352 	326 	325
f 203 	325 	326
f 69 	82 	321
f 265 	264 	199
f 215 	225 	316
f 328 	315 	257
f 257 	315 	213
f 285 	239 	276
f 285 	276 	296
f 317 	332 	265
f 317 	265 	199
f 46 	275 	109
f 333 	327 	3
f 333 	430 	327
f 14 	3 	327
f 218 	248 	212
f 213 	212 	250
f 257 	213 	250
f 237 	319 	293
f 331 	404 	330
f 403 	140 	330
f 139 	330 	140
f 315 	328 	332
f 315 	332 	317
f 43 	60 	266
f 338 	360 	335
f 330 	320 	331
f 205 	336 	214
f 334 	336 	205
f 309 	121 	337
f 147 	337 	121
f 329 	366 	271
f 312 	284 	289
f 356 	335 	360
f 170 	248 	218
f 250 	212 	248
f 174 	90 	339
f 182 	314 	71
f 320 	330 	139
f 320 	139 	138
f 340 	341 	416
f 342 	224 	214
f 342 	214 	336
f 162 	297 	344
f 343 	344 	297
f 343 	297 	298
f 339 	305 	337
f 305 	309 	337
f 125 	170 	218
f 71 	302 	81
f 314 	302 	71
f 422 	347 	340
f 350 	318 	191
f 348 	36 	346
f 36 	12 	346
f 12 	233 	346
f 295 	91 	81
f 302 	295 	81
f 254 	354 	351
f 349 	351 	354
f 345 	311 	350
f 249 	211 	345
f 311 	318 	350
f 151 	347 	422
f 353 	229 	342
f 224 	342 	229
f 331 	355 	404
f 91 	295 	270
f 91 	270 	101
f 101 	270 	266
f 101 	266 	60
f 307 	305 	104
f 156 	151 	355
f 404 	355 	426
f 151 	426 	355
f 130 	292 	291
f 130 	291 	131
f 229 	353 	357
f 229 	357 	231
f 304 	344 	325
f 352 	325 	344
f 344 	304 	162
f 297 	355 	331
f 320 	298 	331
f 297 	331 	298
f 291 	283 	360
f 309 	117 	121
f 361 	362 	365
f 231 	357 	290
f 231 	290 	189
f 366 	329 	352
f 326 	352 	329
f 141 	241 	240
f 141 	240 	143
f 161 	156 	355
f 161 	355 	297
f 359 	363 	364
f 359 	364 	358
f 117 	309 	308
f 322 	337 	153
f 147 	153 	337
f 375 	364 	374
f 363 	374 	364
f 324 	334 	389
f 339 	323 	176
f 339 	176 	174
f 367 	279 	370
f 273 	370 	279
f 368 	95 	373
f 323 	339 	337
f 323 	337 	322
f 368 	177 	95
f 377 	325 	372
f 37 	271 	366
f 318 	317 	199
f 318 	199 	191
f 370 	273 	376
f 268 	376 	273
f 380 	379 	382
f 380 	382 	383
f 171 	77 	63
f 315 	311 	213
f 211 	213 	311
f 148 	313 	385
f 385 	313 	387
f 376 	268 	384
f 261 	384 	268
f 334 	378 	389
f 351 	379 	380
f 148 	385 	320
f 394 	392 	393
f 395 	396 	390
f 345 	328 	257
f 345 	257 	249
f 379 	351 	349
f 343 	320 	385
f 287 	128 	118
f 287 	118 	283
f 384 	261 	391
f 253 	391 	261
f 350 	265 	332
f 320 	343 	298
f 379 	349 	400
f 389 	378 	401
f 397 	401 	378
f 371 	372 	325
f 381 	277 	377
f 386 	277 	381
f 388 	390 	277
f 390 	396 	277
f 328 	345 	350
f 328 	350 	332
f 343 	385 	404
f 406 	382 	400
f 253 	9 	391
f 382 	375 	374
f 382 	374 	383
f 216 	277 	396
f 386 	388 	277
f 325 	377 	277
f 397 	287 	401
f 292 	401 	287
f 385 	471 	403
f 403 	404 	385
f 412 	375 	408
f 407 	409 	411
f 407 	411 	413
f 402 	304 	405
f 245 	410 	11
f 40 	245 	11
f 216 	396 	208
f 356 	360 	283
f 416 	37 	415
f 134 	233 	12
f 134 	12 	13
f 417 	358 	412
f 375 	412 	364
f 6 	419 	420
f 410 	245 	421
f 251 	421 	245
f 136 	18 	235
f 269 	424 	420
f 269 	420 	194
f 366 	352 	415
f 422 	415 	352
f 367 	432 	348
f 304 	441 	414
f 233 	134 	136
f 233 	136 	235
f 421 	251 	425
f 259 	425 	251
f 364 	412 	358
f 426 	422 	352
f 333 	3 	159
f 2 	159 	3
f 425 	259 	428
f 267 	428 	259
f 426 	344 	404
f 352 	344 	426
f 344 	343 	404
f 361 	365 	325
f 325 	365 	369
f 369 	371 	325
f 18 	327 	430
f 6 	7 	429
f 263 	191 	429
f 6 	429 	419
f 428 	267 	432
f 272 	432 	267
f 223 	361 	203
f 203 	361 	325
f 423 	441 	427
f 420 	419 	194
f 191 	194 	419
f 366 	415 	37
f 399 	400 	349
f 483 	399 	349
f 240 	235 	430
f 433 	466 	435
f 433 	435 	179
f 35 	36 	272
f 432 	272 	36
f 18 	17 	149
f 18 	149 	327
f 379 	400 	382
f 375 	382 	406
f 375 	406 	408
f 434 	436 	431
f 241 	346 	233
f 149 	14 	327
f 429 	424 	269
f 429 	269 	263
f 403 	330 	404
f 438 	400 	399
f 438 	399 	439
f 423 	418 	441
f 418 	414 	441
f 405 	304 	414
f 7 	424 	429
f 437 	466 	433
f 290 	280 	335
f 338 	335 	280
f 400 	438 	440
f 400 	440 	406
f 178 	228 	360
f 443 	271 	442
f 37 	442 	271
f 444 	412 	408
f 444 	408 	445
f 415 	340 	416
f 357 	353 	294
f 447 	417 	412
f 447 	412 	444
f 351 	438 	439
f 178 	360 	338
f 441 	123 	434
f 441 	434 	431
f 431 	427 	441
f 280 	290 	294
f 357 	294 	290
f 340 	415 	422
f 88 	198 	70
f 70 	198 	204
f 380 	383 	438
f 351 	380 	438
f 172 	335 	356
f 209 	434 	123
f 303 	299 	342
f 417 	447 	448
f 444 	445 	374
f 426 	151 	422
f 299 	294 	353
f 353 	342 	299
f 398 	304 	402
f 392 	394 	304
f 164 	304 	394
f 221 	164 	394
f 398 	392 	304
f 374 	363 	444
f 363 	359 	444
f 336 	316 	342
f 303 	342 	316
f 15 	187 	88
f 198 	88 	187
f 406 	440 	445
f 406 	445 	408
f 15 	32 	187
f 447 	444 	359
f 485 	448 	486
f 449 	486 	448
f 324 	316 	334
f 48 	254 	439
f 254 	351 	439
f 486 	449 	452
f 469 	479 	341
f 374 	445 	440
f 440 	438 	383
f 374 	440 	383
f 215 	324 	389
f 215 	389 	210
f 442 	450 	451
f 442 	451 	443
f 125 	59 	170
f 457 	230 	453
f 140 	453 	230
f 401 	201 	389
f 413 	451 	450
f 336 	334 	316
f 201 	210 	389
f 373 	30 	368
f 435 	368 	30
f 456 	457 	453
f 349 	354 	455
f 458 	455 	354
f 284 	312 	103
f 413 	450 	407
f 401 	292 	201
f 130 	201 	292
f 461 	482 	459
f 460 	411 	456
f 457 	456 	464
f 30 	29 	435
f 409 	463 	464
f 409 	464 	411
f 392 	365 	362
f 392 	362 	393
f 467 	413 	465
f 370 	432 	367
f 36 	348 	432
f 462 	193 	29
f 435 	466 	368
f 459 	368 	466
f 469 	443 	467
f 413 	467 	451
f 362 	361 	394
f 362 	394 	393
f 457 	464 	468
f 463 	468 	464
f 368 	459 	39
f 325 	277 	304
f 441 	304 	277
f 360 	228 	291
f 131 	291 	228
f 376 	425 	370
f 432 	370 	428
f 271 	443 	341
f 469 	341 	443
f 451 	467 	443
f 398 	369 	365
f 398 	365 	392
f 457 	468 	387
f 457 	387 	230
f 466 	437 	470
f 402 	371 	369
f 402 	369 	398
f 184 	356 	118
f 283 	118 	356
f 385 	387 	468
f 25 	462 	29
f 464 	456 	411
f 411 	460 	465
f 411 	465 	413
f 384 	425 	376
f 428 	370 	425
f 77 	171 	78
f 472 	78 	171
f 405 	372 	371
f 405 	371 	402
f 473 	78 	472
f 287 	397 	128
f 188 	128 	397
f 414 	377 	372
f 414 	372 	405
f 391 	421 	384
f 425 	384 	421
f 43 	44 	19
f 468 	475 	471
f 385 	468 	471
f 470 	437 	474
f 446 	474 	437
f 188 	378 	200
f 397 	378 	188
f 418 	381 	377
f 418 	377 	414
f 19 	44 	121
f 147 	121 	44
f 391 	9 	410
f 463 	409 	475
f 468 	463 	475
f 474 	359 	358
f 423 	386 	381
f 423 	381 	418
f 11 	410 	9
f 391 	410 	421
f 354 	387 	313
f 478 	407 	477
f 334 	205 	200
f 334 	200 	378
f 446 	359 	474
f 386 	423 	427
f 386 	427 	388
f 450 	442 	477
f 172 	356 	184
f 313 	458 	354
f 183 	90 	174
f 305 	339 	90
f 479 	477 	442
f 37 	416 	442
f 479 	442 	416
f 129 	83 	301
f 129 	301 	133
f 388 	427 	431
f 388 	431 	390
f 450 	477 	407
f 409 	407 	478
f 409 	478 	476
f 476 	475 	409
f 256 	348 	346
f 256 	346 	258
f 390 	431 	436
f 390 	436 	395
f 179 	435 	193
f 29 	193 	435
f 90 	183 	69
f 71 	69 	183
f 127 	75 	129
f 348 	279 	367
f 434 	396 	395
f 434 	395 	436
f 129 	75 	83
f 140 	403 	453
f 453 	403 	471
f 53 	455 	458
f 53 	458 	58
f 279 	348 	256
f 122 	217 	247
f 116 	62 	127
f 475 	456 	453
f 475 	453 	471
f 217 	211 	247
f 481 	482 	461
f 480 	483 	455
f 484 	190 	301
f 476 	460 	456
f 476 	456 	475
f 333 	159 	244
f 333 	244 	430
f 127 	62 	75
f 249 	247 	211
f 311 	345 	211
f 108 	51 	116
f 485 	358 	417
f 477 	467 	465
f 477 	465 	478
f 263 	350 	191
f 240 	430 	143
f 39 	459 	482
f 39 	482 	26
f 434 	209 	396
f 486 	474 	485
f 358 	485 	474
f 479 	469 	467
f 479 	467 	477
f 143 	430 	244
f 419 	429 	191
f 163 	301 	190
f 116 	51 	62
f 177 	368 	39
f 209 	208 	396
f 487 	466 	486
f 466 	470 	486
f 474 	486 	470
f 286 	278 	310
f 51 	4 	5
f 416 	341 	479
f 223 	394 	361
f 488 	459 	487
f 459 	466 	487
f 319 	282 	310
f 282 	286 	310
f 4 	51 	108
f 478 	465 	460
f 478 	460 	476
f 461 	459 	480
f 455 	461 	480
f 488 	480 	459
f 79 	282 	319
f 79 	319 	135
f 5 	4 	8
f 5 	8 	16
f 481 	461 	489
f 141 	258 	241
f 312 	310 	278
f 278 	216 	312
f 216 	123 	312
f 346 	241 	258
f 329 	271 	340
f 341 	340 	271
f 394 	223 	221
f 490 	489 	53
f 349 	455 	483
f 347 	326 	340
f 326 	329 	340
f 387 	354 	230
f 455 	489 	461
f 203 	326 	347
f 203 	347 	151
f 230 	354 	254
f 491 	492 	480
f 489 	455 	53
f 485 	417 	448
f 483 	480 	492
f 448 	447 	359
f 458 	313 	58
f 145 	58 	313
f 359 	446 	448
f 449 	448 	446
f 446 	437 	449
f 437 	433 	449
f 452 	449 	433
f 452 	487 	486
f 493 	48 	492
f 48 	483 	492
f 23 	6 	420
f 433 	179 	452
f 48 	439 	399
f 491 	489 	492
f 452 	488 	487
f 15 	23 	32
f 472 	171 	193
f 492 	489 	490
f 492 	490 	493
f 193 	462 	472
f 462 	454 	472
f 33 	32 	23
f 23 	420 	33
f 424 	33 	420
f 107 	484 	76
f 452 	28 	488
f 473 	472 	454
f 87 	473 	454
f 454 	8 	87
f 107 	190 	484
f 491 	480 	494
f 488 	494 	480
f 27 	494 	28
f 488 	28 	494
f 490 	53 	493
f 48 	493 	53
f 30 	373 	31
f 50 	31 	373
f 260 	105 	165
f 481 	491 	482
f 489 	491 	481
f 494 	482 	491
f 39 	28 	177
f 452 	177 	28
f 124 	441 	281
f 262 	281 	441
f 262 	441 	277
f 27 	26 	482
f 27 	482 	494
f 483 	48 	399
f 373 	95 	86
f 373 	86 	50
f 47 	484 	132
f 83 	132 	484
f 83 	484 	301
f 123 	441 	124
f 21 	42 	20
f 76 	484 	47
f 42 	21 	132
f 100 	16 	454
f 8 	454 	16
f 25 	100 	462
f 454 	462 	100
# 1004 faces

 #end of obj_0

