# Object Export From Tinkercad Server 2015

mtllib obj.mtl

o obj_0
v 0 		0.525 		121
v -3.8268 		0.525 		120.6194
v -3.5355 		0.1589 		120.6194
v -2.706 		-0.1515 		120.6194
v -1.4645 		-0.3589 		120.6194
v 0 		-0.4317 		120.6194
v 1.4645 		-0.3589 		120.6194
v 2.706 		-0.1515 		120.6194
v 3.5355 		0.1589 		120.6194
v 3.8268 		0.525 		120.6194
v 3.5355 		0.8911 		120.6194
v 2.706 		1.2015 		120.6194
v 1.4645 		1.4089 		120.6194
v 0 		1.4817 		120.6194
v -1.4645 		1.4089 		120.6194
v -2.706 		1.2015 		120.6194
v -3.5355 		0.8911 		120.6194
v -6.5328 		-0.1515 		119.5355
v -7.0711 		0.525 		119.5355
v -5 		-0.725 		119.5355
v -2.706 		-1.1082 		119.5355
v 0 		-1.2428 		119.5355
v 2.706 		-1.1082 		119.5355
v 5 		-0.725 		119.5355
v 6.5328 		-0.1515 		119.5355
v 7.0711 		0.525 		119.5355
v 6.5328 		1.2015 		119.5355
v 5 		1.775 		119.5355
v 2.706 		2.1582 		119.5355
v 0 		2.2928 		119.5355
v -2.706 		2.1582 		119.5355
v -5 		1.775 		119.5355
v -6.5328 		1.2015 		119.5355
v -8.5355 		-0.3589 		117.9134
v -9.2388 		0.525 		117.9134
v -6.5328 		-1.1082 		117.9134
v -3.5355 		-1.6089 		117.9134
v 0 		-1.7847 		117.9134
v 3.5355 		-1.6089 		117.9134
v 6.5328 		-1.1082 		117.9134
v 8.5355 		-0.3589 		117.9134
v 9.2388 		0.525 		117.9134
v 8.5355 		1.4089 		117.9134
v 6.5328 		2.1582 		117.9134
v 3.5355 		2.6589 		117.9134
v 0 		2.8347 		117.9134
v -3.5355 		2.6589 		117.9134
v -6.5328 		2.1582 		117.9134
v -8.5355 		1.4089 		117.9134
v -9.2388 		-0.4317 		116
v -10 		0.525 		116
v -7.0711 		-1.2428 		116
v -3.8268 		-1.7847 		116
v 0 		-1.975 		116
v 3.8268 		-1.7847 		116
v 7.0711 		-1.2428 		116
v 9.2388 		-0.4317 		116
v 10 		0.525 		116
v 9.2388 		1.4817 		116
v 7.0711 		2.2928 		116
v 3.8268 		2.8347 		116
v 0 		3.025 		116
v -3.8268 		2.8347 		116
v -7.0711 		2.2928 		116
v -9.2388 		1.4817 		116
v -8.5355 		-0.3589 		114.0866
v -9.2388 		0.525 		114.0866
v -6.5328 		-1.1082 		114.0866
v -3.5355 		-1.6089 		114.0866
v 0 		-1.7847 		114.0866
v 3.5355 		-1.6089 		114.0866
v 6.5328 		-1.1082 		114.0866
v 8.5355 		-0.3589 		114.0866
v 9.2388 		0.525 		114.0866
v 8.5355 		1.4089 		114.0866
v 6.5328 		2.1582 		114.0866
v 3.5355 		2.6589 		114.0866
v 0 		2.8347 		114.0866
v -3.5355 		2.6589 		114.0866
v -6.5328 		2.1582 		114.0866
v -8.5355 		1.4089 		114.0866
v -6.5328 		-0.1515 		112.4645
v -7.0711 		0.525 		112.4645
v -5 		-0.725 		112.4645
v -2.706 		-1.1082 		112.4645
v 0 		-1.2428 		112.4645
v 2.706 		-1.1082 		112.4645
v 5 		-0.725 		112.4645
v 6.5328 		-0.1515 		112.4645
v 7.0711 		0.525 		112.4645
v 6.5328 		1.2015 		112.4645
v 5 		1.775 		112.4645
v 2.706 		2.1582 		112.4645
v 0 		2.2928 		112.4645
v -2.706 		2.1582 		112.4645
v -5 		1.775 		112.4645
v -6.5328 		1.2015 		112.4645
v -3.5355 		0.1589 		111.3806
v -3.8268 		0.525 		111.3806
v -2.706 		-0.1515 		111.3806
v -1.4645 		-0.3589 		111.3806
v 0 		-0.4317 		111.3806
v 1.4645 		-0.3589 		111.3806
v 2.706 		-0.1515 		111.3806
v 3.5355 		0.1589 		111.3806
v 3.8268 		0.525 		111.3806
v 3.5355 		0.8911 		111.3806
v 2.706 		1.2015 		111.3806
v 1.4645 		1.4089 		111.3806
v 0 		1.4817 		111.3806
v -1.4645 		1.4089 		111.3806
v -2.706 		1.2015 		111.3806
v -3.5355 		0.8911 		111.3806
v 0 		0.525 		111
# 114 vertices

g group_0_15308428

usemtl color_15308428
s 0

f 1 	2 	3
f 1 	3 	4
f 1 	4 	5
f 1 	5 	6
f 1 	6 	7
f 1 	7 	8
f 1 	8 	9
f 1 	9 	10
f 1 	10 	11
f 1 	11 	12
f 1 	12 	13
f 1 	13 	14
f 1 	14 	15
f 1 	15 	16
f 1 	16 	17
f 1 	17 	2
f 3 	2 	18
f 2 	19 	18
f 4 	3 	20
f 3 	18 	20
f 5 	4 	21
f 4 	20 	21
f 6 	5 	22
f 5 	21 	22
f 7 	6 	23
f 6 	22 	23
f 8 	7 	24
f 7 	23 	24
f 9 	8 	25
f 8 	24 	25
f 10 	9 	26
f 9 	25 	26
f 11 	10 	27
f 10 	26 	27
f 12 	11 	28
f 11 	27 	28
f 13 	12 	29
f 12 	28 	29
f 14 	13 	30
f 13 	29 	30
f 15 	14 	31
f 14 	30 	31
f 16 	15 	32
f 15 	31 	32
f 17 	16 	33
f 16 	32 	33
f 2 	17 	19
f 17 	33 	19
f 18 	19 	34
f 19 	35 	34
f 20 	18 	36
f 18 	34 	36
f 21 	20 	37
f 20 	36 	37
f 22 	21 	38
f 21 	37 	38
f 23 	22 	39
f 22 	38 	39
f 24 	23 	40
f 23 	39 	40
f 25 	24 	41
f 24 	40 	41
f 26 	25 	42
f 25 	41 	42
f 27 	26 	43
f 26 	42 	43
f 28 	27 	44
f 27 	43 	44
f 29 	28 	45
f 28 	44 	45
f 30 	29 	46
f 29 	45 	46
f 31 	30 	47
f 30 	46 	47
f 32 	31 	48
f 31 	47 	48
f 33 	32 	49
f 32 	48 	49
f 19 	33 	35
f 33 	49 	35
f 34 	35 	50
f 35 	51 	50
f 36 	34 	52
f 34 	50 	52
f 37 	36 	53
f 36 	52 	53
f 38 	37 	54
f 37 	53 	54
f 39 	38 	55
f 38 	54 	55
f 40 	39 	56
f 39 	55 	56
f 41 	40 	57
f 40 	56 	57
f 42 	41 	58
f 41 	57 	58
f 43 	42 	59
f 42 	58 	59
f 44 	43 	60
f 43 	59 	60
f 45 	44 	61
f 44 	60 	61
f 46 	45 	62
f 45 	61 	62
f 47 	46 	63
f 46 	62 	63
f 48 	47 	64
f 47 	63 	64
f 49 	48 	65
f 48 	64 	65
f 35 	49 	51
f 49 	65 	51
f 50 	51 	66
f 51 	67 	66
f 52 	50 	68
f 50 	66 	68
f 53 	52 	69
f 52 	68 	69
f 54 	53 	70
f 53 	69 	70
f 55 	54 	71
f 54 	70 	71
f 56 	55 	72
f 55 	71 	72
f 57 	56 	73
f 56 	72 	73
f 58 	57 	74
f 57 	73 	74
f 59 	58 	75
f 58 	74 	75
f 60 	59 	76
f 59 	75 	76
f 61 	60 	77
f 60 	76 	77
f 62 	61 	78
f 61 	77 	78
f 63 	62 	79
f 62 	78 	79
f 64 	63 	80
f 63 	79 	80
f 65 	64 	81
f 64 	80 	81
f 51 	65 	67
f 65 	81 	67
f 66 	67 	82
f 67 	83 	82
f 68 	66 	84
f 66 	82 	84
f 69 	68 	85
f 68 	84 	85
f 70 	69 	86
f 69 	85 	86
f 71 	70 	87
f 70 	86 	87
f 72 	71 	88
f 71 	87 	88
f 73 	72 	89
f 72 	88 	89
f 74 	73 	90
f 73 	89 	90
f 75 	74 	91
f 74 	90 	91
f 76 	75 	92
f 75 	91 	92
f 77 	76 	93
f 76 	92 	93
f 78 	77 	94
f 77 	93 	94
f 79 	78 	95
f 78 	94 	95
f 80 	79 	96
f 79 	95 	96
f 81 	80 	97
f 80 	96 	97
f 67 	81 	83
f 81 	97 	83
f 82 	83 	98
f 83 	99 	98
f 84 	82 	100
f 82 	98 	100
f 85 	84 	101
f 84 	100 	101
f 86 	85 	102
f 85 	101 	102
f 87 	86 	103
f 86 	102 	103
f 88 	87 	104
f 87 	103 	104
f 89 	88 	105
f 88 	104 	105
f 90 	89 	106
f 89 	105 	106
f 91 	90 	107
f 90 	106 	107
f 92 	91 	108
f 91 	107 	108
f 93 	92 	109
f 92 	108 	109
f 94 	93 	110
f 93 	109 	110
f 95 	94 	111
f 94 	110 	111
f 96 	95 	112
f 95 	111 	112
f 97 	96 	113
f 96 	112 	113
f 83 	97 	99
f 97 	113 	99
f 98 	99 	114
f 100 	98 	114
f 101 	100 	114
f 102 	101 	114
f 103 	102 	114
f 104 	103 	114
f 105 	104 	114
f 106 	105 	114
f 107 	106 	114
f 108 	107 	114
f 109 	108 	114
f 110 	109 	114
f 111 	110 	114
f 112 	111 	114
f 113 	112 	114
f 99 	113 	114
# 224 faces

 #end of obj_0

