# Object Export From Tinkercad Server 2015

mtllib obj.mtl

o obj_0
v 0 		0.525 		120
v -0.4635 		0.525 		119.8042
v -0.4408 		0.1908 		119.8042
v -0.375 		-0.1107 		119.8042
v -0.2725 		-0.35 		119.8042
v -0.1432 		-0.5036 		119.8042
v 0 		-0.5566 		119.8042
v 0.1432 		-0.5036 		119.8042
v 0.2725 		-0.35 		119.8042
v 0.375 		-0.1107 		119.8042
v 0.4408 		0.1908 		119.8042
v 0.4635 		0.525 		119.8042
v 0.4408 		0.8592 		119.8042
v 0.375 		1.1607 		119.8042
v 0.2725 		1.4 		119.8042
v 0.1432 		1.5536 		119.8042
v 0 		1.6066 		119.8042
v -0.1432 		1.5536 		119.8042
v -0.2725 		1.4 		119.8042
v -0.375 		1.1607 		119.8042
v -0.4408 		0.8592 		119.8042
v -0.8385 		-0.1107 		119.2361
v -0.8817 		0.525 		119.2361
v -0.7133 		-0.6842 		119.2361
v -0.5182 		-1.1393 		119.2361
v -0.2725 		-1.4316 		119.2361
v 0 		-1.5322 		119.2361
v 0.2725 		-1.4316 		119.2361
v 0.5182 		-1.1393 		119.2361
v 0.7133 		-0.6842 		119.2361
v 0.8385 		-0.1107 		119.2361
v 0.8817 		0.525 		119.2361
v 0.8385 		1.1607 		119.2361
v 0.7133 		1.7342 		119.2361
v 0.5182 		2.1893 		119.2361
v 0.2725 		2.4816 		119.2361
v 0 		2.5822 		119.2361
v -0.2725 		2.4816 		119.2361
v -0.5182 		2.1893 		119.2361
v -0.7133 		1.7342 		119.2361
v -0.8385 		1.1607 		119.2361
v -1.1541 		-0.35 		118.3511
v -1.2135 		0.525 		118.3511
v -0.9818 		-1.1393 		118.3511
v -0.7133 		-1.7658 		118.3511
v -0.375 		-2.168 		118.3511
v 0 		-2.3066 		118.3511
v 0.375 		-2.168 		118.3511
v 0.7133 		-1.7658 		118.3511
v 0.9818 		-1.1393 		118.3511
v 1.1541 		-0.35 		118.3511
v 1.2135 		0.525 		118.3511
v 1.1541 		1.4 		118.3511
v 0.9818 		2.1893 		118.3511
v 0.7133 		2.8158 		118.3511
v 0.375 		3.218 		118.3511
v 0 		3.3566 		118.3511
v -0.375 		3.218 		118.3511
v -0.7133 		2.8158 		118.3511
v -0.9818 		2.1893 		118.3511
v -1.1541 		1.4 		118.3511
v -1.3568 		-0.5036 		117.2361
v -1.4266 		0.525 		117.2361
v -1.1541 		-1.4316 		117.2361
v -0.8385 		-2.168 		117.2361
v -0.4408 		-2.6408 		117.2361
v 0 		-2.8037 		117.2361
v 0.4408 		-2.6408 		117.2361
v 0.8385 		-2.168 		117.2361
v 1.1541 		-1.4316 		117.2361
v 1.3568 		-0.5036 		117.2361
v 1.4266 		0.525 		117.2361
v 1.3568 		1.5536 		117.2361
v 1.1541 		2.4816 		117.2361
v 0.8385 		3.218 		117.2361
v 0.4408 		3.6908 		117.2361
v 0 		3.8537 		117.2361
v -0.4408 		3.6908 		117.2361
v -0.8385 		3.218 		117.2361
v -1.1541 		2.4816 		117.2361
v -1.3568 		1.5536 		117.2361
v -1.4266 		-0.5566 		116
v -1.5 		0.525 		116
v -1.2135 		-1.5322 		116
v -0.8817 		-2.3066 		116
v -0.4635 		-2.8037 		116
v 0 		-2.975 		116
v 0.4635 		-2.8037 		116
v 0.8817 		-2.3066 		116
v 1.2135 		-1.5322 		116
v 1.4266 		-0.5566 		116
v 1.5 		0.525 		116
v 1.4266 		1.6066 		116
v 1.2135 		2.5822 		116
v 0.8817 		3.3566 		116
v 0.4635 		3.8537 		116
v 0 		4.025 		116
v -0.4635 		3.8537 		116
v -0.8817 		3.3566 		116
v -1.2135 		2.5822 		116
v -1.4266 		1.6066 		116
v -1.3568 		-0.5036 		114.7639
v -1.4266 		0.525 		114.7639
v -1.1541 		-1.4316 		114.7639
v -0.8385 		-2.168 		114.7639
v -0.4408 		-2.6408 		114.7639
v 0 		-2.8037 		114.7639
v 0.4408 		-2.6408 		114.7639
v 0.8385 		-2.168 		114.7639
v 1.1541 		-1.4316 		114.7639
v 1.3568 		-0.5036 		114.7639
v 1.4266 		0.525 		114.7639
v 1.3568 		1.5536 		114.7639
v 1.1541 		2.4816 		114.7639
v 0.8385 		3.218 		114.7639
v 0.4408 		3.6908 		114.7639
v 0 		3.8537 		114.7639
v -0.4408 		3.6908 		114.7639
v -0.8385 		3.218 		114.7639
v -1.1541 		2.4816 		114.7639
v -1.3568 		1.5536 		114.7639
v -1.1541 		-0.35 		113.6489
v -1.2135 		0.525 		113.6489
v -0.9818 		-1.1393 		113.6489
v -0.7133 		-1.7658 		113.6489
v -0.375 		-2.168 		113.6489
v 0 		-2.3066 		113.6489
v 0.375 		-2.168 		113.6489
v 0.7133 		-1.7658 		113.6489
v 0.9818 		-1.1393 		113.6489
v 1.1541 		-0.35 		113.6489
v 1.2135 		0.525 		113.6489
v 1.1541 		1.4 		113.6489
v 0.9818 		2.1893 		113.6489
v 0.7133 		2.8158 		113.6489
v 0.375 		3.218 		113.6489
v 0 		3.3566 		113.6489
v -0.375 		3.218 		113.6489
v -0.7133 		2.8158 		113.6489
v -0.9818 		2.1893 		113.6489
v -1.1541 		1.4 		113.6489
v -0.8385 		-0.1107 		112.7639
v -0.8817 		0.525 		112.7639
v -0.7133 		-0.6842 		112.7639
v -0.5182 		-1.1393 		112.7639
v -0.2725 		-1.4316 		112.7639
v 0 		-1.5322 		112.7639
v 0.2725 		-1.4316 		112.7639
v 0.5182 		-1.1393 		112.7639
v 0.7133 		-0.6842 		112.7639
v 0.8385 		-0.1107 		112.7639
v 0.8817 		0.525 		112.7639
v 0.8385 		1.1607 		112.7639
v 0.7133 		1.7342 		112.7639
v 0.5182 		2.1893 		112.7639
v 0.2725 		2.4816 		112.7639
v 0 		2.5822 		112.7639
v -0.2725 		2.4816 		112.7639
v -0.5182 		2.1893 		112.7639
v -0.7133 		1.7342 		112.7639
v -0.8385 		1.1607 		112.7639
v -0.4408 		0.1908 		112.1958
v -0.4635 		0.525 		112.1958
v -0.375 		-0.1107 		112.1958
v -0.2725 		-0.35 		112.1958
v -0.1432 		-0.5036 		112.1958
v 0 		-0.5566 		112.1958
v 0.1432 		-0.5036 		112.1958
v 0.2725 		-0.35 		112.1958
v 0.375 		-0.1107 		112.1958
v 0.4408 		0.1908 		112.1958
v 0.4635 		0.525 		112.1958
v 0.4408 		0.8592 		112.1958
v 0.375 		1.1607 		112.1958
v 0.2725 		1.4 		112.1958
v 0.1432 		1.5536 		112.1958
v 0 		1.6066 		112.1958
v -0.1432 		1.5536 		112.1958
v -0.2725 		1.4 		112.1958
v -0.375 		1.1607 		112.1958
v -0.4408 		0.8592 		112.1958
v 0 		0.525 		112
# 182 vertices

g group_0_40919

usemtl color_40919
s 0

f 1 	2 	3
f 1 	3 	4
f 1 	4 	5
f 1 	5 	6
f 1 	6 	7
f 1 	7 	8
f 1 	8 	9
f 1 	9 	10
f 1 	10 	11
f 1 	11 	12
f 1 	12 	13
f 1 	13 	14
f 1 	14 	15
f 1 	15 	16
f 1 	16 	17
f 1 	17 	18
f 1 	18 	19
f 1 	19 	20
f 1 	20 	21
f 1 	21 	2
f 3 	2 	22
f 2 	23 	22
f 4 	3 	24
f 3 	22 	24
f 5 	4 	25
f 4 	24 	25
f 6 	5 	26
f 5 	25 	26
f 7 	6 	27
f 6 	26 	27
f 8 	7 	28
f 7 	27 	28
f 9 	8 	29
f 8 	28 	29
f 10 	9 	30
f 9 	29 	30
f 11 	10 	31
f 10 	30 	31
f 12 	11 	32
f 11 	31 	32
f 13 	12 	33
f 12 	32 	33
f 14 	13 	34
f 13 	33 	34
f 15 	14 	35
f 14 	34 	35
f 16 	15 	36
f 15 	35 	36
f 17 	16 	37
f 16 	36 	37
f 18 	17 	38
f 17 	37 	38
f 19 	18 	39
f 18 	38 	39
f 20 	19 	40
f 19 	39 	40
f 21 	20 	41
f 20 	40 	41
f 2 	21 	23
f 21 	41 	23
f 22 	23 	42
f 23 	43 	42
f 24 	22 	44
f 22 	42 	44
f 25 	24 	45
f 24 	44 	45
f 26 	25 	46
f 25 	45 	46
f 27 	26 	47
f 26 	46 	47
f 28 	27 	48
f 27 	47 	48
f 29 	28 	49
f 28 	48 	49
f 30 	29 	50
f 29 	49 	50
f 31 	30 	51
f 30 	50 	51
f 32 	31 	52
f 31 	51 	52
f 33 	32 	53
f 32 	52 	53
f 34 	33 	54
f 33 	53 	54
f 35 	34 	55
f 34 	54 	55
f 36 	35 	56
f 35 	55 	56
f 37 	36 	57
f 36 	56 	57
f 38 	37 	58
f 37 	57 	58
f 39 	38 	59
f 38 	58 	59
f 40 	39 	60
f 39 	59 	60
f 41 	40 	61
f 40 	60 	61
f 23 	41 	43
f 41 	61 	43
f 42 	43 	62
f 43 	63 	62
f 44 	42 	64
f 42 	62 	64
f 45 	44 	65
f 44 	64 	65
f 46 	45 	66
f 45 	65 	66
f 47 	46 	67
f 46 	66 	67
f 48 	47 	68
f 47 	67 	68
f 49 	48 	69
f 48 	68 	69
f 50 	49 	70
f 49 	69 	70
f 51 	50 	71
f 50 	70 	71
f 52 	51 	72
f 51 	71 	72
f 53 	52 	73
f 52 	72 	73
f 54 	53 	74
f 53 	73 	74
f 55 	54 	75
f 54 	74 	75
f 56 	55 	76
f 55 	75 	76
f 57 	56 	77
f 56 	76 	77
f 58 	57 	78
f 57 	77 	78
f 59 	58 	79
f 58 	78 	79
f 60 	59 	80
f 59 	79 	80
f 61 	60 	81
f 60 	80 	81
f 43 	61 	63
f 61 	81 	63
f 62 	63 	82
f 63 	83 	82
f 64 	62 	84
f 62 	82 	84
f 65 	64 	85
f 64 	84 	85
f 66 	65 	86
f 65 	85 	86
f 67 	66 	87
f 66 	86 	87
f 68 	67 	88
f 67 	87 	88
f 69 	68 	89
f 68 	88 	89
f 70 	69 	90
f 69 	89 	90
f 71 	70 	91
f 70 	90 	91
f 72 	71 	92
f 71 	91 	92
f 73 	72 	93
f 72 	92 	93
f 74 	73 	94
f 73 	93 	94
f 75 	74 	95
f 74 	94 	95
f 76 	75 	96
f 75 	95 	96
f 77 	76 	97
f 76 	96 	97
f 78 	77 	98
f 77 	97 	98
f 79 	78 	99
f 78 	98 	99
f 80 	79 	100
f 79 	99 	100
f 81 	80 	101
f 80 	100 	101
f 63 	81 	83
f 81 	101 	83
f 82 	83 	102
f 83 	103 	102
f 84 	82 	104
f 82 	102 	104
f 85 	84 	105
f 84 	104 	105
f 86 	85 	106
f 85 	105 	106
f 87 	86 	107
f 86 	106 	107
f 88 	87 	108
f 87 	107 	108
f 89 	88 	109
f 88 	108 	109
f 90 	89 	110
f 89 	109 	110
f 91 	90 	111
f 90 	110 	111
f 92 	91 	112
f 91 	111 	112
f 93 	92 	113
f 92 	112 	113
f 94 	93 	114
f 93 	113 	114
f 95 	94 	115
f 94 	114 	115
f 96 	95 	116
f 95 	115 	116
f 97 	96 	117
f 96 	116 	117
f 98 	97 	118
f 97 	117 	118
f 99 	98 	119
f 98 	118 	119
f 100 	99 	120
f 99 	119 	120
f 101 	100 	121
f 100 	120 	121
f 83 	101 	103
f 101 	121 	103
f 102 	103 	122
f 103 	123 	122
f 104 	102 	124
f 102 	122 	124
f 105 	104 	125
f 104 	124 	125
f 106 	105 	126
f 105 	125 	126
f 107 	106 	127
f 106 	126 	127
f 108 	107 	128
f 107 	127 	128
f 109 	108 	129
f 108 	128 	129
f 110 	109 	130
f 109 	129 	130
f 111 	110 	131
f 110 	130 	131
f 112 	111 	132
f 111 	131 	132
f 113 	112 	133
f 112 	132 	133
f 114 	113 	134
f 113 	133 	134
f 115 	114 	135
f 114 	134 	135
f 116 	115 	136
f 115 	135 	136
f 117 	116 	137
f 116 	136 	137
f 118 	117 	138
f 117 	137 	138
f 119 	118 	139
f 118 	138 	139
f 120 	119 	140
f 119 	139 	140
f 121 	120 	141
f 120 	140 	141
f 103 	121 	123
f 121 	141 	123
f 122 	123 	142
f 123 	143 	142
f 124 	122 	144
f 122 	142 	144
f 125 	124 	145
f 124 	144 	145
f 126 	125 	146
f 125 	145 	146
f 127 	126 	147
f 126 	146 	147
f 128 	127 	148
f 127 	147 	148
f 129 	128 	149
f 128 	148 	149
f 130 	129 	150
f 129 	149 	150
f 131 	130 	151
f 130 	150 	151
f 132 	131 	152
f 131 	151 	152
f 133 	132 	153
f 132 	152 	153
f 134 	133 	154
f 133 	153 	154
f 135 	134 	155
f 134 	154 	155
f 136 	135 	156
f 135 	155 	156
f 137 	136 	157
f 136 	156 	157
f 138 	137 	158
f 137 	157 	158
f 139 	138 	159
f 138 	158 	159
f 140 	139 	160
f 139 	159 	160
f 141 	140 	161
f 140 	160 	161
f 123 	141 	143
f 141 	161 	143
f 142 	143 	162
f 143 	163 	162
f 144 	142 	164
f 142 	162 	164
f 145 	144 	165
f 144 	164 	165
f 146 	145 	166
f 145 	165 	166
f 147 	146 	167
f 146 	166 	167
f 148 	147 	168
f 147 	167 	168
f 149 	148 	169
f 148 	168 	169
f 150 	149 	170
f 149 	169 	170
f 151 	150 	171
f 150 	170 	171
f 152 	151 	172
f 151 	171 	172
f 153 	152 	173
f 152 	172 	173
f 154 	153 	174
f 153 	173 	174
f 155 	154 	175
f 154 	174 	175
f 156 	155 	176
f 155 	175 	176
f 157 	156 	177
f 156 	176 	177
f 158 	157 	178
f 157 	177 	178
f 159 	158 	179
f 158 	178 	179
f 160 	159 	180
f 159 	179 	180
f 161 	160 	181
f 160 	180 	181
f 143 	161 	163
f 161 	181 	163
f 162 	163 	182
f 164 	162 	182
f 165 	164 	182
f 166 	165 	182
f 167 	166 	182
f 168 	167 	182
f 169 	168 	182
f 170 	169 	182
f 171 	170 	182
f 172 	171 	182
f 173 	172 	182
f 174 	173 	182
f 175 	174 	182
f 176 	175 	182
f 177 	176 	182
f 178 	177 	182
f 179 	178 	182
f 180 	179 	182
f 181 	180 	182
f 163 	181 	182
# 360 faces

 #end of obj_0

