# Object Export From Tinkercad Server 2015

mtllib obj.mtl

o obj_0
v 29.312 		-34.312 		31
v 29.312 		-39.312 		21
v 32.848 		-37.848 		21
v -33.223 		-31.402 		21
v -29.688 		-34.937 		31
v -29.688 		-39.937 		21
v -26.152 		-38.473 		21
v 34.312 		-34.312 		21
v -24.688 		-34.937 		21
v -34.688 		-34.937 		21
v 32.848 		-30.777 		21
v -26.152 		-31.402 		21
v -29.688 		-29.937 		21
v -33.223 		-38.473 		21
v 29.312 		-29.312 		21
v 25.777 		-30.777 		21
v 24.312 		-34.312 		21
v 32.848 		20.152 		21
v 34.312 		23.688 		21
v 29.312 		23.688 		31
v 32.848 		27.223 		21
v 25.777 		-37.848 		21
v 29.312 		28.688 		21
v -29.688 		24.312 		31
v -29.688 		19.312 		21
v -26.152 		20.777 		21
v -24.688 		24.312 		21
v 29.312 		18.688 		21
v 25.777 		20.152 		21
v -33.223 		20.777 		21
v 24.312 		23.688 		21
v 25.777 		27.223 		21
v -26.152 		27.848 		21
v -34.688 		24.312 		21
v -33.223 		27.848 		21
v -29.688 		29.312 		21
# 36 vertices

g group_0_8273816

usemtl color_8273816
s 0

f 1 	2 	3
f 5 	6 	7
f 7 	9 	5
f 3 	8 	1
f 4 	10 	5
f 9 	12 	5
f 12 	13 	5
f 8 	11 	1
f 10 	14 	5
f 14 	6 	5
f 11 	15 	1
f 13 	4 	5
f 16 	17 	1
f 7 	6 	9
f 12 	9 	6
f 12 	6 	14
f 12 	14 	10
f 12 	10 	4
f 12 	4 	13
f 18 	19 	20
f 15 	16 	1
f 19 	21 	20
f 21 	23 	20
f 17 	22 	1
f 22 	2 	1
f 24 	25 	26
f 26 	27 	24
f 3 	2 	8
f 11 	8 	2
f 11 	2 	22
f 11 	22 	17
f 11 	17 	16
f 11 	16 	15
f 20 	28 	18
f 29 	28 	20
f 30 	25 	24
f 18 	28 	19
f 21 	19 	28
f 21 	28 	29
f 21 	29 	31
f 21 	31 	32
f 21 	32 	23
f 25 	30 	26
f 27 	26 	30
f 33 	27 	30
f 34 	35 	30
f 36 	30 	35
f 33 	30 	36
f 23 	32 	20
f 32 	31 	20
f 31 	29 	20
f 27 	33 	24
f 33 	36 	24
f 36 	35 	24
f 35 	34 	24
f 34 	30 	24
# 56 faces

 #end of obj_0

