# Object Export From Tinkercad Server 2015

mtllib obj.mtl

o obj_0
v -3.326 		3.449 		20
v -3.449 		-3.623 		20
v -3.449 		-3.623 		21
v 3.623 		-3.746 		21
v 3.746 		3.326 		21
v 1.527 		4.659 		21
v -3.326 		3.449 		21
v -1.062 		4.705 		21
v -1.062 		4.705 		20
v 4.957 		-1.527 		21
v 4.957 		-1.527 		20
v 5.002 		1.062 		21
v 5.002 		1.062 		20
v -1.23 		-4.957 		21
v -1.23 		-4.957 		20
v 1.359 		-5.002 		21
v 1.359 		-5.002 		20
v -4.659 		1.23 		21
v -4.659 		1.23 		20
v -4.705 		-1.359 		21
v -4.705 		-1.359 		20
v -2.926 		-2.815 		0
v -1.0021 		-3.9705 		0
v 1.0021 		-4.0481 		0
v 1.402 		-4.055 		0
v 3.44 		-2.926 		0
v 4.64 		-0.928 		0
v 3.622 		-3.745 		0
v 4.681 		1.402 		0
v 3.551 		3.44 		0
v 1.553 		4.64 		0
v 3.745 		3.325 		0
v -0.776 		4.681 		0
v 1.527 		4.658 		0
v -2.815 		3.551 		0
v -4.015 		1.553 		0
v -3.325 		3.448 		0
v -4.055 		-0.776 		0
v -3.448 		-3.622 		0
v -1.061 		4.703 		0
v 5 		1.061 		0
v 4.955 		-1.527 		0
v 0.9852 		-4.9935 		0
v 1.358 		-5 		0
v -1.0198 		-4.9586 		0
v -1.23 		-4.955 		0
v -4.703 		-1.358 		0
v -4.658 		1.23 		0
v -3.448 		-3.622 		19.998
v -4.703 		-1.358 		19.998
v -4.658 		1.23 		19.998
v -3.325 		3.448 		19.998
v -1.061 		4.703 		19.998
v 1.527 		4.658 		19.998
v 3.745 		3.325 		19.998
v 4.64 		-0.928 		19.998
v 4.681 		1.402 		19.998
v 3.551 		3.44 		19.998
v 1.553 		4.64 		19.998
v -0.776 		4.681 		19.998
v -2.815 		3.551 		19.998
v -4.015 		1.553 		19.998
v -4.055 		-0.776 		19.998
v -2.926 		-2.815 		19.998
v 4.955 		-1.527 		19.998
v 5 		1.061 		19.998
v 1.358 		-5 		19.998
v 1.402 		-4.055 		19.998
v -1.23 		-4.955 		19.998
v 0.9852 		-4.9935 		2.503
v -1.0198 		-4.9586 		2.503
v 3.623 		-3.746 		20
v 3.746 		3.326 		20
v 4.105 		3.672 		20
v 1.527 		4.659 		20
v -3.672 		3.808 		20
v -3.808 		-3.969 		20
v -1.182 		5.188 		20
v 1.665 		5.138 		20
v 5.485 		1.182 		20
v 5.435 		-1.665 		20
v 3.969 		-4.105 		20
v 1.479 		-5.485 		20
v -1.367 		-5.435 		20
v -5.188 		-1.479 		20
v -5.138 		1.367 		20
v 4.105 		3.672 		21
v -3.672 		3.808 		21
v -3.808 		-3.969 		21
v 1.665 		5.138 		21
v -1.182 		5.188 		21
v 5.435 		-1.665 		21
v 5.485 		1.182 		21
v 3.969 		-4.105 		21
v -1.367 		-5.435 		21
v 1.479 		-5.485 		21
v -5.138 		1.367 		21
v -5.188 		-1.479 		21
v 3.622 		-3.745 		19.998
v -0.928 		-4.015 		2.503
v -1.0021 		-3.9705 		2.503
v -0.928 		-4.015 		19.998
v 1.0021 		-4.0481 		2.503
v 3.44 		-2.926 		19.998
# 104 vertices

g group_0_16089887

usemtl color_16089887
s 0

f 2 	21 	20
f 8 	7 	1
f 18 	1 	7
f 20 	3 	2
f 6 	8 	9
f 4 	10 	11
f 11 	10 	13
f 12 	13 	10
f 2 	3 	15
f 14 	15 	3
f 15 	14 	16
f 15 	16 	17
f 4 	17 	16
f 1 	18 	19
f 20 	21 	18
f 19 	18 	21
f 45 	46 	23
f 27 	42 	26
f 42 	28 	26
f 29 	41 	27
f 30 	32 	29
f 31 	34 	30
f 41 	29 	32
f 33 	34 	31
f 32 	30 	34
f 33 	35 	40
f 36 	37 	35
f 40 	35 	37
f 38 	48 	36
f 47 	38 	22
f 39 	22 	23
f 47 	22 	39
f 34 	33 	40
f 42 	27 	41
f 25 	44 	24
f 26 	28 	25
f 44 	25 	28
f 43 	24 	44
f 39 	23 	46
f 37 	36 	48
f 47 	48 	38
f 49 	50 	47
f 49 	47 	39
f 50 	51 	48
f 50 	48 	47
f 51 	52 	37
f 37 	48 	51
f 40 	37 	53
f 52 	53 	37
f 34 	40 	54
f 53 	54 	40
f 32 	34 	55
f 54 	55 	34
f 56 	57 	29
f 56 	29 	27
f 56 	104 	65
f 57 	58 	30
f 57 	30 	29
f 66 	55 	57
f 30 	58 	59
f 30 	59 	31
f 55 	54 	58
f 58 	57 	55
f 31 	59 	60
f 31 	60 	33
f 60 	59 	54
f 59 	58 	54
f 33 	60 	61
f 33 	61 	35
f 61 	60 	53
f 35 	61 	62
f 35 	62 	36
f 62 	61 	52
f 53 	52 	61
f 36 	62 	63
f 36 	63 	38
f 52 	51 	62
f 63 	64 	22
f 63 	22 	38
f 50 	49 	64
f 50 	64 	63
f 54 	53 	60
f 66 	56 	65
f 57 	56 	66
f 24 	43 	70
f 63 	62 	51
f 50 	63 	51
f 11 	81 	72
f 82 	72 	81
f 13 	73 	74
f 75 	79 	73
f 9 	78 	75
f 78 	9 	76
f 76 	1 	86
f 1 	19 	86
f 15 	84 	2
f 1 	76 	9
f 78 	79 	75
f 74 	73 	79
f 13 	80 	11
f 74 	80 	13
f 80 	81 	11
f 17 	83 	15
f 82 	83 	17
f 17 	72 	82
f 77 	2 	84
f 83 	84 	15
f 85 	86 	21
f 85 	21 	77
f 21 	2 	77
f 19 	21 	86
f 16 	94 	4
f 12 	87 	5
f 87 	90 	5
f 6 	5 	90
f 7 	8 	88
f 18 	7 	97
f 88 	97 	7
f 20 	89 	3
f 91 	88 	8
f 90 	91 	6
f 8 	6 	91
f 10 	4 	92
f 94 	92 	4
f 92 	93 	10
f 12 	10 	93
f 87 	12 	93
f 89 	95 	3
f 14 	3 	95
f 95 	96 	14
f 16 	14 	96
f 94 	16 	96
f 20 	18 	97
f 97 	98 	20
f 89 	20 	98
f 98 	85 	89
f 77 	89 	85
f 97 	86 	85
f 97 	85 	98
f 88 	76 	97
f 86 	97 	76
f 88 	91 	76
f 78 	76 	91
f 90 	79 	78
f 90 	78 	91
f 74 	79 	87
f 90 	87 	79
f 74 	87 	80
f 80 	87 	93
f 92 	81 	80
f 92 	80 	93
f 94 	81 	92
f 94 	82 	81
f 83 	82 	94
f 83 	94 	96
f 83 	96 	95
f 83 	95 	84
f 84 	95 	77
f 89 	77 	95
f 4 	72 	17
f 4 	11 	72
f 73 	13 	5
f 12 	5 	13
f 6 	75 	5
f 73 	5 	75
f 75 	6 	9
f 9 	8 	1
f 41 	32 	66
f 55 	66 	32
f 66 	65 	42
f 66 	42 	41
f 42 	99 	28
f 99 	42 	65
f 99 	67 	28
f 28 	67 	44
f 67 	69 	70
f 44 	67 	70
f 44 	70 	43
f 71 	70 	69
f 69 	46 	71
f 45 	71 	46
f 39 	46 	49
f 69 	49 	46
f 64 	102 	101
f 100 	101 	102
f 23 	22 	101
f 64 	101 	22
f 64 	49 	102
f 49 	69 	102
f 103 	100 	102
f 102 	68 	103
f 68 	25 	103
f 24 	103 	25
f 102 	67 	68
f 67 	102 	69
f 101 	100 	71
f 70 	71 	100
f 103 	70 	100
f 24 	70 	103
f 101 	71 	45
f 101 	45 	23
f 68 	104 	26
f 68 	26 	25
f 67 	99 	68
f 104 	56 	27
f 104 	27 	26
f 99 	65 	104
f 104 	68 	99
# 208 faces

 #end of obj_0

