# Object Export From Tinkercad Server 2015

mtllib obj.mtl

o obj_0
v -3.4482 		-3.6218 		21
v -1.2297 		-4.9548 		21
v 0.1485 		-0.1485 		31
v 1.3581 		-5 		21
v 3.6218 		-3.7452 		21
v 4.9548 		-1.5267 		21
v 5 		1.0611 		21
v 3.7452 		3.3248 		21
v 1.5267 		4.6578 		21
v -1.0611 		4.703 		21
v -3.3248 		3.4482 		21
v -4.6578 		1.2297 		21
v -4.703 		-1.3581 		21
v 0.1485 		-0.1485 		21
# 14 vertices

g group_0_8273816

usemtl color_8273816
s 0

f 1 	2 	3
f 2 	4 	3
f 4 	5 	3
f 5 	6 	3
f 6 	7 	3
f 7 	8 	3
f 8 	9 	3
f 9 	10 	3
f 10 	11 	3
f 11 	12 	3
f 12 	13 	3
f 13 	1 	3
f 2 	1 	14
f 4 	2 	14
f 5 	4 	14
f 6 	5 	14
f 7 	6 	14
f 8 	7 	14
f 9 	8 	14
f 10 	9 	14
f 11 	10 	14
f 12 	11 	14
f 13 	12 	14
f 1 	13 	14
# 24 faces

 #end of obj_0

