# Object Export From Tinkercad Server 2015

mtllib obj.mtl

o obj_0
v 0.309 		-0.9511 		0
v 0 		-1 		0
v 0 		0 		0
v 0.5878 		-0.809 		0
v 0.809 		-0.5878 		0
v 0.9511 		-0.309 		0
v 1 		0 		0
v 0.9511 		0.309 		0
v 0.809 		0.5878 		0
v 0.5878 		0.809 		0
v 0.309 		0.9511 		0
v 0 		1 		0
v -0.309 		0.9511 		0
v -0.5878 		0.809 		0
v -0.809 		0.5878 		0
v -0.9511 		0.309 		0
v -1 		0 		0
v -0.9511 		-0.309 		0
v -0.809 		-0.5878 		0
v -0.5878 		-0.809 		0
v -0.309 		-0.9511 		0
v 0 		-1 		6
v 0.309 		-0.9511 		6
v 0 		0 		6
v 0.5878 		-0.809 		6
v 0.809 		-0.5878 		6
v 0.9511 		-0.309 		6
v 1 		0 		6
v 0.9511 		0.309 		6
v 0.809 		0.5878 		6
v 0.5878 		0.809 		6
v 0.309 		0.9511 		6
v 0 		1 		6
v -0.309 		0.9511 		6
v -0.5878 		0.809 		6
v -0.809 		0.5878 		6
v -0.9511 		0.309 		6
v -1 		0 		6
v -0.9511 		-0.309 		6
v -0.809 		-0.5878 		6
v -0.5878 		-0.809 		6
v -0.309 		-0.9511 		6
# 42 vertices

g group_0_16089887

usemtl color_16089887
s 0

f 1 	2 	3
f 4 	1 	3
f 5 	4 	3
f 6 	5 	3
f 7 	6 	3
f 8 	7 	3
f 9 	8 	3
f 10 	9 	3
f 11 	10 	3
f 12 	11 	3
f 13 	12 	3
f 14 	13 	3
f 15 	14 	3
f 16 	15 	3
f 17 	16 	3
f 18 	17 	3
f 19 	18 	3
f 20 	19 	3
f 21 	20 	3
f 2 	21 	3
f 22 	23 	24
f 23 	25 	24
f 25 	26 	24
f 26 	27 	24
f 27 	28 	24
f 28 	29 	24
f 29 	30 	24
f 30 	31 	24
f 31 	32 	24
f 32 	33 	24
f 33 	34 	24
f 34 	35 	24
f 35 	36 	24
f 36 	37 	24
f 37 	38 	24
f 38 	39 	24
f 39 	40 	24
f 40 	41 	24
f 41 	42 	24
f 42 	22 	24
f 2 	1 	1
f 1 	4 	4
f 4 	5 	5
f 5 	6 	6
f 6 	7 	7
f 7 	8 	8
f 8 	9 	9
f 9 	10 	10
f 10 	11 	11
f 11 	12 	12
f 12 	13 	13
f 13 	14 	14
f 14 	15 	15
f 15 	16 	16
f 16 	17 	17
f 17 	18 	18
f 18 	19 	19
f 19 	20 	20
f 20 	21 	21
f 21 	2 	2
f 2 	1 	23
f 2 	23 	22
f 1 	4 	25
f 1 	25 	23
f 4 	5 	26
f 4 	26 	25
f 5 	6 	27
f 5 	27 	26
f 6 	7 	28
f 6 	28 	27
f 7 	8 	29
f 7 	29 	28
f 8 	9 	30
f 8 	30 	29
f 9 	10 	31
f 9 	31 	30
f 10 	11 	32
f 10 	32 	31
f 11 	12 	33
f 11 	33 	32
f 12 	13 	34
f 12 	34 	33
f 13 	14 	35
f 13 	35 	34
f 14 	15 	36
f 14 	36 	35
f 15 	16 	37
f 15 	37 	36
f 16 	17 	38
f 16 	38 	37
f 17 	18 	39
f 17 	39 	38
f 18 	19 	40
f 18 	40 	39
f 19 	20 	41
f 19 	41 	40
f 20 	21 	42
f 20 	42 	41
f 21 	2 	22
f 21 	22 	42
f 22 	23 	23
f 23 	25 	25
f 25 	26 	26
f 26 	27 	27
f 27 	28 	28
f 28 	29 	29
f 29 	30 	30
f 30 	31 	31
f 31 	32 	32
f 32 	33 	33
f 33 	34 	34
f 34 	35 	35
f 35 	36 	36
f 36 	37 	37
f 37 	38 	38
f 38 	39 	39
f 39 	40 	40
f 40 	41 	41
f 41 	42 	42
f 42 	22 	22
# 120 faces

 #end of obj_0

