# Object Export From Tinkercad Server 2015

mtllib obj.mtl

o obj_0
v 1.5188 		-0.2812 		13.846
v 1.8 		0 		13.846
v 2.8333 		0 		9
v 1.9948 		-0.8757 		12
v 0.3749 		2.0251 		11.462
v 1.5081 		-1.0772 		12
v 0.2488 		1.9729 		11.462
v 0 		2.2217 		11.462
v 2.939 		-1.267 		10.231
v 0 		2.4 		11.462
v 2.5069 		-0.3264 		9
v -1.6064 		1.9531 		9
v 3.485 		-1.515 		6
v 3.2733 		-0.6159 		7.538
v 2.6997 		-1.1895 		7.538
v -2.151 		-2.151 		12
v 2.956 		1.225 		10.231
v -0.585 		3.3042 		7.538
v -1.1895 		2.6997 		7.538
v -1.9437 		2.6997 		7.538
v -1.531 		3.696 		7.538
v 2.091 		2.091 		12
v 2.2365 		-0.9879 		10.231
v 2.2032 		-0.9076 		10.231
v 0 		0 		18
v 0 		-0.0255 		17.9413
v 0.6476 		-0.2936 		15.8279
v 2.6182 		-0.4926 		10.231
v 4 		0 		9
v 0.4926 		2.6182 		10.231
v -1.5561 		-1.0223 		12
v 0.0434 		0.0434 		17.7995
v 2.2217 		0 		11.462
v 1.9729 		-0.2488 		11.462
v 0 		5 		6
v -0.0075 		-0.0075 		17.9656
v 2.8486 		-1.1514 		9
v 1.4798 		-0.187 		13.846
v 1.6668 		0 		13.846
v 0.9135 		2.2055 		10.231
v 0.9078 		2.2031 		10.231
v -2.956 		-1.225 		10.231
v 2.2341 		0.8767 		10.231
v -0.018 		-0.018 		18
v 2.2585 		0.9355 		10.231
v 0.6395 		-0.3022 		15.8543
v 0 		4 		9
v 0 		2.8333 		9
v -2.2402 		-0.8707 		10.231
v -2.2402 		-0.8913 		10.231
v -2.2585 		-0.9355 		10.231
v -0.2955 		2.5378 		9
v -1.515 		3.485 		6
v -0.7238 		-0.2742 		15.6969
v 1.515 		3.485 		6
v 2.8795 		1.1205 		9
v -2.8795 		-1.1205 		9
v -2.4699 		-0.9658 		9.7812
v 1.1516 		2.8484 		9
v 3.485 		3.485 		6
v -0.7066 		-0.2926 		15.7531
v -0.0255 		0 		17.9413
v 1.8998 		2.6997 		7.538
v 2.5378 		0.2955 		9
v 1.5625 		1.9531 		9
v 1.9531 		1.9531 		9
v 3.696 		1.531 		7.538
v -2.8333 		0 		9
v 1.1895 		2.6997 		7.538
v -2.5378 		-0.2955 		9
v 3.3042 		0.585 		7.538
v -3.586 		3.485 		6
v -3.696 		-1.531 		7.538
v -2.0537 		1.9531 		9
v -3.3042 		-0.585 		7.538
v 2.217 		0.918 		12.923
v -0.0615 		0 		17.8581
v 1.5081 		1.0422 		12
v 1.5081 		1.5081 		12
v -1.5561 		-1.5561 		12
v -1.721 		-1.192 		11.462
v 1.673 		1.2119 		11.462
v -1.721 		-1.721 		11.462
v 1.673 		1.673 		11.462
v 1.1396 		1.6197 		12.923
v 0 		-0.0615 		17.8581
v -0.918 		2.217 		12.923
v -1.6113 		-1.2374 		11.462
v -1.6113 		-1.6113 		11.462
v -2.2402 		-1.5214 		10.231
v 2.204 		-0.95 		12.923
v 1.9636 		-0.3698 		12.923
v -2.2402 		-0.9431 		10.231
v -2.869 		-2.869 		9
v -1.291 		-0.8936 		13.846
v 1.5308 		1.2707 		11.462
v 1.5308 		1.5308 		11.462
v -2.869 		-1.227 		9
v 2.1594 		1.5548 		10.231
v -0.9085 		1.255 		13.846
v 2.1594 		0.9766 		10.231
v 2.788 		2.788 		9
v 2.788 		1.2606 		9
v -1.291 		-1.291 		13.846
v 1.255 		-0.9351 		13.846
v -0.7137 		1.6197 		12.923
v -1.2085 		-0.9278 		13.846
v -1.2085 		-1.2085 		13.846
v -0.909 		2.091 		12
v -1.0568 		-1.5561 		12
v 0.905 		2.186 		12.923
v -1.2265 		-1.721 		11.462
v -1.2719 		-1.6113 		11.462
v -1.5559 		-2.2402 		10.231
v 1.6197 		-0.7137 		12.923
v -0.3538 		1.8131 		12
v -0.8337 		2.0118 		12
v 3 		0 		12
v -0.3504 		2.0496 		11.462
v -0.2244 		1.9974 		11.462
v 2.091 		-0.909 		12
v 0.3177 		0.7059 		15.6379
v 0.2927 		0.7067 		15.6935
v -0.4682 		2.6427 		10.231
v -1.291 		1.255 		13.846
v -2.0537 		-1.5647 		9
v -2.0537 		-2.0537 		9
v -0.9198 		-1.291 		13.846
v -0.9527 		1.1484 		13.846
v -1.2085 		1.1484 		13.846
v 0.2809 		1.5191 		13.846
v -2.8005 		-1.9019 		7.538
v -0.954 		-1.2085 		13.846
v 2.1669 		0 		12
v -1.1655 		1.6197 		12.923
v -2.8005 		-1.0888 		7.538
v -5 		0 		6
v 1.7887 		-0.3782 		12
v 2.4 		0 		11.462
v 2.0252 		-0.3749 		11.462
v 0.7137 		1.6197 		12.923
v -0.2745 		-0.6634 		15.8939
v 0.909 		2.091 		12
v 0.6642 		0.275 		15.8325
v -3.586 		-1.414 		6
v -0.2562 		-0.6804 		15.8383
v -3.586 		1.414 		6
v 1.0072 		1.5081 		12
v 0.816 		1.9698 		12
v -2.8005 		1.8577 		7.538
v 1.1768 		1.673 		11.462
v 1.255 		0.9085 		13.846
v -1.1668 		-1.6797 		12.923
v -2.0537 		1.5206 		9
v 1.2357 		1.5308 		11.462
v -2.8005 		1.0888 		7.538
v -3.586 		-3.586 		6
v 1.5196 		2.1594 		10.231
v 0 		1.8 		13.846
v 0.6633 		0.3001 		15.7767
v 0 		-3 		12
v -1.291 		0.8678 		13.846
v 1.6197 		0.7137 		12.923
v 0.1867 		1.4801 		13.846
v 0 		1.6668 		13.846
v -1.2085 		0.902 		13.846
v 2.091 		0.909 		12
v 0.3694 		1.9641 		12.923
v 1.8131 		0.3538 		12
v 2.0118 		0.8337 		12
v 2.0496 		0.3504 		11.462
v 1.9974 		0.2244 		11.462
v 1.5374 		0.2626 		13.846
v 2.6427 		0.4682 		10.231
v 1.4983 		0.1685 		13.846
v -0.3324 		-2.001 		12.923
v 1.255 		1.255 		13.846
v 1.9822 		0.3513 		12.923
v 1.225 		-2.956 		10.231
v 1.1484 		0.9527 		13.846
v 1.1484 		1.1484 		13.846
v 1.6197 		1.1655 		12.923
v -0.2626 		1.5374 		13.846
v 0.3538 		-1.8131 		12
v -0.1685 		1.4983 		13.846
v 0.3266 		2.5067 		9
v -0.931 		-2.249 		12.923
v 0.9355 		-2.2585 		10.231
v 0.9431 		-2.2402 		10.231
v 1.227 		-2.869 		9
v 1.5647 		-2.0537 		9
v 1.9531 		-2.0537 		9
v 1.531 		-3.696 		7.538
v 1.509 		3.643 		7.538
v 1.9019 		-2.8005 		7.538
v 0.8825 		1.255 		13.846
v -0.6537 		-1.6797 		12.923
v -0.849 		-2.151 		12
v 0.9267 		1.1484 		13.846
v 0 		-2.1669 		12
v 0.6161 		3.2731 		7.538
v 0 		-2.4 		11.462
v 0.3504 		-2.0496 		11.462
v -0.8507 		-2.0538 		12
v 1.9531 		1.6064 		9
v 2.6997 		1.9437 		7.538
v 0 		-2.2217 		11.462
v 0.2244 		-1.9974 		11.462
v -1.225 		2.956 		10.231
v 2.6997 		1.1895 		7.538
v 0.4682 		-2.6427 		10.231
v -0.2438 		-1.5562 		13.846
v -2.974 		1.183 		10.231
v -2.151 		2.091 		12
v -3 		0 		12
v 0.8707 		-2.2402 		10.231
v 0.8913 		-2.2402 		10.231
v 0 		-4 		9
v 0.2626 		-1.5374 		13.846
v -1.8378 		0.3291 		12
v 1.1205 		-2.8795 		9
v 0.9658 		-2.4699 		9.7812
v -0.8767 		2.2341 		10.231
v -0.9355 		2.2585 		10.231
v 0 		-1.8 		13.846
v -1.1205 		2.8795 		9
v -2.2402 		0.899 		10.231
v -2.2799 		0.8825 		10.231
v 0 		-1.6668 		13.846
v 0.1685 		-1.4983 		13.846
v -2.869 		1.1828 		9
v 5 		0 		6
v -3.717 		1.478 		7.538
v -0.3291 		-1.8378 		12
v -1.0422 		1.5081 		12
v -1.5561 		1.5081 		12
v -0.3257 		-2.0743 		11.462
v -0.1497 		-1.5172 		13.846
v -1.2119 		1.673 		11.462
v -1.721 		1.673 		11.462
v -0.1996 		-2.0221 		11.462
v -2.1669 		0 		12
v -1.6797 		1.115 		12.923
v -0.4435 		-2.6674 		10.231
v 3.485 		1.515 		6
v -2.0743 		0.3256 		11.462
v -2.4 		0 		11.462
v 3.485 		-3.586 		6
v 2.6997 		-1.9866 		7.538
v -1.9822 		-0.3513 		12.923
v 1.9531 		-1.6495 		9
v -1.2707 		1.5308 		11.462
v 0 		-2.8333 		9
v 0.2955 		-2.5378 		9
v -1.6113 		1.5308 		11.462
v -1.5548 		2.1594 		10.231
v -0.9766 		2.1594 		10.231
v 0.585 		-3.3042 		7.538
v -2.869 		2.788 		9
v 1.0888 		-2.8005 		7.538
v -2.0221 		0.1996 		11.462
v -2.2217 		0 		11.462
v 0 		-5 		6
v -2.6676 		0.4433 		10.231
v -2.2648 		0.8461 		10.231
v -1.2606 		2.788 		9
v -4 		0 		9
v 1.414 		-3.586 		6
v -1.242 		-2.998 		10.231
v 0.2926 		-0.7066 		15.7531
v -2.91 		1.09 		9
v -0.9862 		-2.2402 		10.231
v -0.9569 		-2.3109 		10.231
v -1.2699 		-2.869 		9
v -2.23 		0.887 		12.923
v -1.6076 		-2.0537 		9
v -1.552 		-3.748 		7.538
v -1.9446 		-2.8005 		7.538
v -0.846 		-2.2649 		10.231
v -1.0898 		-2.9102 		9
v 1.5081 		-1.5561 		12
v 1.673 		-1.721 		11.462
v 1.673 		-1.2468 		11.462
v -1.5557 		0.2443 		13.846
v -0.2649 		-2.5684 		9
v -2.217 		-0.918 		12.923
v 0.918 		-2.217 		12.923
v 1.1406 		-1.6797 		12.923
v -0.7078 		0.2676 		15.749
v -0.7082 		0.2562 		15.7744
v -0.5545 		-3.3348 		7.538
v -1.0888 		-2.8005 		7.538
v -1.6797 		0.6537 		12.923
v 1.207 		2.914 		10.231
v -2.151 		0.849 		12
v -1.6797 		-0.6537 		12.923
v 0 		3 		12
v -2.151 		-0.849 		12
v -1.414 		-3.586 		6
v 1.5308 		-1.3057 		11.462
v 1.5308 		-1.6113 		11.462
v 3.674 		-1.583 		7.538
v -1.5561 		0.9877 		12
v -2.0295 		0.7917 		12
v 2.1594 		-1.5898 		10.231
v 1.255 		-1.291 		13.846
v -1.721 		1.1573 		11.462
v 2.1594 		-1.0199 		10.231
v 0.3783 		1.7886 		12
v -1.8131 		-0.3538 		12
v -2.0118 		-0.8337 		12
v -1.6113 		1.2027 		11.462
v 1.1484 		-0.9793 		13.846
v -2.0496 		-0.3504 		11.462
v 2.788 		-2.869 		9
v -2.2402 		1.4868 		10.231
v 1.1484 		-1.2085 		13.846
v -1.9974 		-0.2244 		11.462
v 1.6197 		-1.1921 		12.923
v -2.6427 		-0.4682 		10.231
v -1.8 		0 		13.846
v -0.275 		0.6642 		15.8325
v 2.788 		-1.3037 		9
v 2.091 		-2.151 		12
v -1.6797 		-1.1406 		12.923
v -0.3001 		0.6633 		15.7767
v -1.5167 		0.1501 		13.846
v -1.6668 		0 		13.846
v 0.9515 		2.1594 		10.231
v 0.9193 		2.1916 		10.231
v -2.0005 		0.3329 		12.923
v 1.1606 		2.664 		9.2428
v 1.2166 		2.788 		9
v 0.6537 		-1.6797 		12.923
v 0.849 		-2.151 		12
v 0 		2.1669 		12
v 0.8337 		-2.0118 		12
v 1.0223 		-1.5561 		12
v 1.192 		-1.721 		11.462
v -2.5682 		0.2651 		9
v 1.2374 		-1.6113 		11.462
v 1.5214 		-2.2402 		10.231
v 0.3513 		-1.9822 		12.923
v -3.3345 		0.5547 		7.538
v -0.3513 		1.9822 		12.923
v 0.2742 		-0.7238 		15.6969
v 0.8936 		-1.291 		13.846
v -1.5374 		-0.2626 		13.846
v 0.9278 		-1.2085 		13.846
v -1.4983 		-0.1685 		13.846
# 350 vertices

g group_0_1206582

usemtl color_1206582
s 0

f 6 	283 	4
f 5 	7 	8
f 5 	8 	10
f 13 	14 	15
f 20 	21 	19
f 18 	19 	21
f 26 	27 	25
f 2 	25 	27
f 1 	2 	27
f 24 	28 	23
f 28 	9 	23
f 34 	28 	33
f 29 	33 	28
f 2 	32 	25
f 149 	294 	5
f 26 	25 	36
f 37 	29 	28
f 37 	28 	24
f 38 	39 	1
f 2 	1 	39
f 170 	17 	82
f 30 	40 	41
f 44 	306 	26
f 306 	46 	26
f 27 	26 	46
f 17 	174 	45
f 17 	45 	99
f 52 	48 	18
f 35 	18 	48
f 320 	49 	50
f 320 	50 	51
f 90 	42 	51
f 19 	18 	53
f 35 	53 	18
f 47 	8 	30
f 33 	172 	171
f 7 	30 	8
f 26 	36 	44
f 49 	320 	58
f 55 	53 	35
f 59 	47 	30
f 59 	30 	41
f 50 	49 	58
f 29 	174 	33
f 65 	66 	63
f 60 	63 	66
f 62 	36 	25
f 43 	56 	45
f 67 	45 	56
f 69 	63 	55
f 60 	55 	63
f 11 	3 	37
f 37 	3 	29
f 125 	44 	62
f 58 	57 	51
f 50 	58 	51
f 73 	51 	57
f 56 	71 	67
f 64 	71 	56
f 36 	62 	44
f 12 	20 	74
f 72 	74 	20
f 53 	72 	20
f 53 	20 	19
f 73 	57 	75
f 57 	70 	75
f 125 	77 	44
f 82 	84 	79
f 82 	79 	78
f 81 	83 	80
f 81 	80 	31
f 110 	204 	80
f 111 	196 	85
f 59 	48 	47
f 44 	86 	306
f 186 	48 	59
f 83 	112 	80
f 81 	88 	89
f 81 	89 	83
f 88 	81 	90
f 42 	90 	81
f 31 	311 	81
f 199 	181 	85
f 85 	22 	143
f 141 	85 	143
f 93 	90 	51
f 320 	51 	42
f 92 	1 	91
f 1 	27 	91
f 46 	91 	27
f 22 	79 	143
f 38 	1 	92
f 94 	89 	90
f 88 	90 	89
f 98 	94 	90
f 98 	90 	93
f 96 	97 	82
f 84 	82 	97
f 78 	170 	82
f 96 	82 	99
f 99 	45 	101
f 122 	123 	32
f 97 	99 	102
f 96 	99 	97
f 103 	102 	99
f 103 	99 	101
f 110 	80 	112
f 113 	112 	89
f 83 	89 	112
f 105 	46 	306
f 84 	151 	79
f 87 	135 	100
f 155 	151 	97
f 333 	332 	102
f 86 	270 	306
f 107 	108 	95
f 104 	95 	108
f 87 	106 	135
f 98 	127 	94
f 205 	66 	103
f 46 	105 	91
f 105 	319 	91
f 109 	297 	117
f 92 	91 	115
f 297 	336 	117
f 114 	112 	113
f 39 	92 	118
f 116 	336 	119
f 92 	39 	38
f 120 	119 	8
f 10 	8 	119
f 133 	128 	108
f 121 	118 	92
f 121 	92 	115
f 89 	94 	114
f 116 	119 	117
f 209 	117 	119
f 124 	209 	119
f 113 	89 	114
f 124 	119 	120
f 85 	141 	111
f 175 	173 	39
f 2 	39 	173
f 126 	127 	98
f 93 	51 	98
f 73 	98 	51
f 178 	175 	39
f 104 	108 	128
f 73 	132 	98
f 125 	100 	130
f 162 	125 	130
f 129 	130 	100
f 4 	134 	121
f 118 	121 	134
f 126 	98 	132
f 132 	73 	136
f 136 	73 	75
f 153 	128 	133
f 129 	100 	135
f 138 	134 	4
f 145 	75 	137
f 133 	108 	153
f 138 	140 	134
f 68 	137 	75
f 68 	75 	70
f 109 	214 	135
f 44 	104 	86
f 111 	141 	168
f 139 	134 	140
f 214 	130 	135
f 129 	135 	130
f 32 	2 	144
f 32 	144 	160
f 136 	75 	145
f 135 	106 	109
f 147 	53 	145
f 147 	145 	137
f 148 	149 	79
f 143 	79 	149
f 146 	86 	142
f 148 	79 	151
f 130 	166 	162
f 72 	150 	74
f 154 	74 	150
f 84 	97 	151
f 156 	150 	147
f 72 	147 	150
f 157 	127 	132
f 148 	151 	149
f 158 	294 	151
f 158 	151 	155
f 130 	214 	243
f 132 	127 	126
f 108 	16 	153
f 145 	157 	132
f 145 	132 	136
f 16 	198 	153
f 235 	236 	117
f 152 	177 	160
f 76 	182 	152
f 128 	142 	104
f 164 	165 	131
f 159 	131 	165
f 183 	159 	165
f 25 	322 	62
f 167 	118 	170
f 111 	168 	131
f 164 	131 	168
f 22 	182 	167
f 166 	243 	162
f 243 	275 	162
f 78 	79 	170
f 168 	165 	164
f 144 	76 	160
f 168 	141 	143
f 168 	143 	297
f 2 	173 	144
f 114 	269 	112
f 169 	171 	170
f 17 	170 	171
f 17 	171 	174
f 243 	166 	130
f 174 	171 	172
f 165 	185 	183
f 204 	269 	237
f 144 	173 	76
f 175 	178 	173
f 76 	173 	178
f 8 	47 	124
f 32 	160 	177
f 180 	181 	152
f 177 	152 	181
f 143 	149 	297
f 124 	120 	8
f 177 	122 	32
f 180 	152 	182
f 309 	336 	149
f 152 	160 	76
f 76 	163 	182
f 163 	76 	178
f 118 	167 	178
f 39 	118 	178
f 22 	181 	182
f 204 	234 	198
f 180 	182 	181
f 163 	167 	182
f 178 	167 	163
f 196 	122 	177
f 189 	342 	188
f 153 	197 	187
f 199 	196 	181
f 169 	170 	134
f 118 	134 	170
f 197 	153 	198
f 176 	187 	197
f 169 	134 	171
f 22 	85 	181
f 139 	171 	134
f 190 	191 	192
f 34 	33 	140
f 139 	140 	33
f 171 	139 	33
f 167 	170 	79
f 22 	167 	79
f 188 	193 	190
f 189 	188 	190
f 97 	102 	158
f 197 	198 	176
f 193 	195 	190
f 191 	190 	195
f 41 	40 	59
f 194 	59 	40
f 155 	97 	158
f 194 	201 	59
f 199 	85 	196
f 158 	102 	332
f 177 	181 	196
f 184 	337 	200
f 186 	59 	201
f 196 	111 	122
f 123 	122 	111
f 69 	194 	63
f 201 	194 	69
f 202 	203 	200
f 184 	200 	203
f 16 	80 	204
f 16 	204 	198
f 102 	103 	66
f 110 	112 	204
f 186 	201 	48
f 35 	48 	201
f 101 	45 	103
f 67 	103 	45
f 161 	176 	198
f 142 	187 	146
f 103 	67 	206
f 161 	198 	200
f 205 	103 	206
f 55 	35 	201
f 55 	201 	69
f 208 	203 	207
f 203 	202 	207
f 99 	82 	17
f 146 	212 	225
f 71 	210 	67
f 210 	206 	67
f 179 	337 	203
f 211 	179 	203
f 43 	45 	174
f 131 	159 	123
f 211 	203 	208
f 172 	33 	174
f 29 	56 	174
f 43 	174 	56
f 217 	179 	216
f 188 	179 	217
f 211 	216 	179
f 212 	146 	187
f 123 	111 	131
f 109 	117 	236
f 109 	236 	214
f 207 	218 	211
f 56 	29 	3
f 3 	64 	56
f 211 	208 	207
f 221 	222 	218
f 211 	218 	222
f 216 	211 	222
f 235 	117 	239
f 209 	239 	117
f 223 	224 	124
f 209 	124 	224
f 346 	225 	219
f 237 	202 	200
f 223 	124 	226
f 47 	226 	124
f 183 	322 	159
f 213 	316 	228
f 47 	48 	226
f 52 	226 	48
f 230 	219 	229
f 219 	225 	229
f 207 	244 	218
f 227 	316 	231
f 230 	343 	219
f 224 	226 	21
f 223 	226 	224
f 52 	18 	226
f 218 	253 	221
f 21 	226 	18
f 217 	216 	222
f 322 	183 	87
f 227 	231 	228
f 233 	228 	231
f 161 	343 	229
f 150 	233 	231
f 154 	150 	231
f 200 	198 	234
f 200 	234 	237
f 225 	212 	229
f 238 	229 	212
f 250 	215 	298
f 239 	240 	236
f 239 	236 	235
f 202 	237 	207
f 241 	207 	237
f 232 	71 	3
f 64 	3 	71
f 234 	204 	237
f 100 	326 	87
f 210 	71 	245
f 232 	245 	71
f 241 	237 	244
f 269 	273 	244
f 245 	232 	13
f 220 	246 	242
f 247 	242 	246
f 280 	218 	244
f 229 	238 	176
f 176 	161 	229
f 244 	207 	241
f 214 	295 	243
f 243 	295 	293
f 248 	249 	192
f 251 	192 	249
f 280 	244 	279
f 248 	13 	249
f 15 	249 	13
f 187 	176 	212
f 66 	206 	60
f 328 	215 	250
f 205 	206 	66
f 245 	60 	206
f 245 	206 	210
f 254 	221 	253
f 239 	252 	255
f 239 	255 	240
f 326 	125 	62
f 298 	215 	242
f 310 	311 	242
f 222 	221 	188
f 217 	222 	188
f 193 	188 	221
f 252 	239 	256
f 209 	256 	239
f 254 	258 	221
f 257 	256 	224
f 209 	224 	256
f 193 	221 	258
f 195 	193 	260
f 260 	193 	258
f 246 	261 	262
f 314 	247 	262
f 246 	262 	247
f 268 	258 	263
f 259 	255 	256
f 261 	246 	264
f 213 	264 	246
f 220 	304 	246
f 254 	253 	258
f 54 	321 	348
f 252 	256 	255
f 265 	264 	228
f 213 	228 	264
f 266 	259 	256
f 266 	256 	257
f 263 	258 	253
f 303 	304 	236
f 261 	264 	262
f 267 	262 	264
f 260 	258 	268
f 240 	307 	236
f 204 	112 	269
f 271 	267 	264
f 271 	264 	265
f 312 	307 	255
f 153 	187 	128
f 244 	237 	269
f 114 	272 	273
f 279 	244 	273
f 114 	273 	269
f 142 	128 	187
f 272 	114 	274
f 94 	274 	114
f 86 	146 	225
f 259 	266 	74
f 12 	74 	266
f 276 	274 	127
f 310 	242 	314
f 242 	247 	314
f 94 	127 	274
f 238 	212 	176
f 262 	318 	314
f 272 	274 	273
f 277 	273 	274
f 274 	278 	277
f 61 	54 	286
f 348 	286 	54
f 28 	140 	9
f 4 	9 	140
f 34 	140 	28
f 138 	4 	140
f 278 	274 	276
f 267 	320 	262
f 243 	293 	275
f 285 	253 	280
f 271 	68 	267
f 282 	283 	281
f 6 	281 	283
f 218 	280 	253
f 349 	347 	288
f 279 	273 	280
f 277 	280 	273
f 346 	86 	225
f 277 	291 	280
f 325 	286 	296
f 250 	296 	286
f 285 	280 	291
f 291 	277 	292
f 278 	292 	277
f 61 	286 	95
f 107 	95 	325
f 95 	286 	325
f 324 	288 	335
f 149 	151 	294
f 253 	291 	263
f 335 	337 	324
f 165 	168 	297
f 253 	285 	291
f 296 	250 	298
f 299 	263 	291
f 299 	291 	292
f 282 	301 	283
f 300 	283 	301
f 302 	37 	23
f 24 	23 	37
f 299 	268 	263
f 77 	125 	289
f 302 	14 	37
f 4 	283 	9
f 305 	9 	283
f 304 	295 	236
f 214 	236 	295
f 16 	325 	298
f 305 	283 	300
f 14 	11 	37
f 303 	236 	307
f 297 	149 	336
f 16 	298 	311
f 298 	242 	311
f 123 	159 	32
f 25 	32 	159
f 9 	305 	23
f 308 	23 	305
f 191 	195 	192
f 248 	192 	195
f 240 	255 	307
f 268 	248 	195
f 268 	195 	260
f 25 	159 	322
f 105 	306 	317
f 313 	105 	317
f 303 	307 	304
f 213 	304 	307
f 307 	316 	213
f 300 	301 	305
f 316 	307 	312
f 315 	305 	301
f 276 	127 	278
f 157 	278 	127
f 105 	313 	319
f 311 	314 	42
f 310 	314 	311
f 314 	320 	42
f 315 	323 	305
f 308 	305 	323
f 326 	62 	322
f 292 	278 	299
f 157 	299 	278
f 320 	314 	318
f 319 	115 	91
f 7 	5 	30
f 309 	149 	5
f 30 	5 	294
f 284 	327 	328
f 284 	328 	321
f 158 	329 	294
f 294 	329 	330
f 294 	330 	40
f 294 	40 	30
f 248 	268 	13
f 299 	53 	268
f 13 	268 	53
f 245 	13 	53
f 157 	145 	299
f 145 	53 	299
f 72 	53 	147
f 53 	55 	245
f 60 	245 	55
f 327 	284 	331
f 282 	339 	301
f 319 	313 	317
f 324 	319 	317
f 322 	87 	326
f 332 	330 	329
f 275 	331 	284
f 325 	108 	107
f 301 	342 	315
f 115 	319 	121
f 324 	121 	319
f 296 	298 	325
f 275 	293 	331
f 100 	125 	326
f 142 	86 	104
f 329 	158 	332
f 31 	80 	311
f 16 	311 	80
f 349 	317 	347
f 215 	328 	331
f 327 	331 	328
f 331 	295 	215
f 102 	66 	333
f 42 	81 	311
f 65 	333 	66
f 330 	332 	40
f 194 	40 	332
f 194 	332 	333
f 293 	295 	331
f 346 	219 	287
f 57 	58 	267
f 63 	194 	333
f 333 	65 	63
f 317 	288 	324
f 288 	287 	334
f 343 	334 	287
f 318 	262 	320
f 334 	343 	335
f 320 	267 	58
f 288 	334 	335
f 57 	68 	70
f 6 	4 	281
f 4 	121 	281
f 324 	281 	121
f 281 	324 	337
f 338 	281 	337
f 335 	200 	337
f 281 	338 	339
f 282 	281 	339
f 61 	104 	77
f 340 	68 	271
f 57 	267 	68
f 341 	301 	339
f 265 	228 	271
f 233 	271 	228
f 342 	339 	179
f 337 	179 	339
f 341 	339 	342
f 338 	337 	339
f 95 	104 	61
f 5 	10 	336
f 309 	5 	336
f 271 	233 	344
f 287 	219 	343
f 340 	271 	344
f 185 	345 	183
f 87 	183 	345
f 344 	233 	156
f 150 	156 	233
f 86 	346 	270
f 304 	242 	295
f 215 	295 	242
f 161 	335 	343
f 230 	229 	343
f 345 	106 	87
f 346 	287 	270
f 161 	200 	335
f 220 	242 	304
f 109 	345 	297
f 165 	297 	345
f 165 	345 	185
f 347 	306 	270
f 184 	203 	337
f 137 	68 	344
f 179 	188 	342
f 306 	347 	317
f 68 	340 	344
f 341 	342 	301
f 190 	315 	342
f 345 	109 	106
f 350 	348 	328
f 321 	328 	348
f 147 	137 	344
f 147 	344 	156
f 190 	342 	189
f 287 	288 	347
f 270 	287 	347
f 190 	192 	315
f 77 	54 	61
f 116 	117 	336
f 315 	192 	323
f 251 	323 	192
f 23 	323 	302
f 308 	323 	23
f 108 	325 	16
f 323 	249 	302
f 250 	286 	348
f 249 	323 	251
f 250 	348 	350
f 14 	302 	15
f 249 	15 	302
f 10 	119 	336
f 44 	77 	104
f 11 	14 	3
f 288 	317 	349
f 232 	14 	13
f 232 	3 	14
f 350 	328 	250
f 213 	246 	304
f 227 	228 	316
f 259 	231 	316
f 255 	259 	316
f 289 	290 	77
f 321 	77 	290
f 312 	255 	316
f 154 	231 	74
f 259 	74 	231
f 257 	224 	266
f 21 	266 	224
f 12 	266 	20
f 266 	21 	20
f 290 	289 	275
f 290 	284 	321
f 290 	275 	284
f 162 	289 	125
f 162 	275 	289
f 77 	321 	54
# 696 faces

 #end of obj_0

