# Object Export From Tinkercad Server 2015

mtllib obj.mtl

o obj_0
v -10.231 		6.5747 		98.998
v 10.409 		-6.689 		92.154
v -9.064 		2.661 		81.903
v 11.872 		-3.486 		92.154
v -9.447 		0 		81.903
v -11.3854 		4.0472 		98.998
v -11.6691 		3.4263 		98.998
v 3.924 		8.593 		81.903
v 1.344 		9.351 		81.903
v -12.1615 		0 		98.998
v -12.0644 		0.6755 		98.998
v 12.373 		0 		92.154
v -4.513 		-2.219 		85.544
v -6.44 		-1.032 		87.393
v -6.44 		-8.968 		87.393
v -9.8145 		-7.375 		97.846
v 10.91 		-3.203 		86.692
v 5.2876 		6.1017 		80
v 6.186 		7.139 		81.903
v 5.2883 		6.101 		80
v 6.1497 		5.107 		80
v 6.7923 		4.3653 		80
v 11.37 		0 		86.692
v -11.7661 		-2.7508 		98.998
v 4.4611 		6.6326 		80
v 3.3539 		7.3444 		80
v -8.0491 		-8.7674 		89.83
v 3.3538 		7.3444 		80
v -7.993 		-0.076 		89.83
v -8.9734 		-8.3455 		92.154
v 2.412 		7.6211 		80
v -11.6691 		-3.4263 		98.998
v 1.149 		7.9921 		80
v -10.231 		-6.5747 		98.998
v 6.8242 		10.1723 		92.154
v 6.8452 		10.1589 		92.1795
v -9.2033 		-8.0803 		92.712
v 7.9345 		0.9719 		80
v 7.747 		2.2746 		80
v -3.924 		-8.593 		81.903
v -9.5176 		-7.7175 		94.3372
v 8.0744 		0 		80
v -9.8145 		-7.375 		95.872
v 7.3392 		3.1679 		80
v -1.344 		-9.351 		81.903
v -10.5147 		-5.9538 		98.998
v -0.849 		0.595 		84.39
v -8.0065 		9.379 		98.0004
v -7.9953 		9.4196 		97.846
v -8.102 		9.351 		97.846
v -7.9345 		-0.9719 		80
v -7.747 		-2.2746 		80
v -8.0744 		0 		80
v -7.3392 		-3.1679 		80
v -10.409 		6.689 		97.846
v -0.289 		0.94 		84.39
v -7.947 		-5.107 		81.903
v -7.1486 		9.9638 		92.712
v -7.9953 		9.4196 		95.872
v -7.714 		9.6004 		94.8223
v 8.792 		6.535 		98.998
v -6.186 		-7.139 		81.903
v -9.353 		-5 		92.712
v -8.102 		9.351 		92.154
v 9.641 		0.94 		98.998
v -9.93 		-5 		95.872
v -4.116 		0.4 		85.544
v -6.7923 		-4.3653 		80
v -5.2876 		-6.1017 		80
v -5.2883 		-6.101 		80
v -6.1497 		-5.107 		80
v -4.4611 		-6.6326 		80
v -3.3539 		-7.3444 		80
v -3.3538 		-7.3444 		80
v -3.479 		2.705 		85.544
v -9.565 		-6.147 		86.692
v -2.412 		-7.6211 		80
v -1.149 		-7.9921 		80
v -11.872 		3.486 		97.846
v -12.373 		0 		97.846
v 9.8309 		-7.0365 		98.998
v 9.8297 		-7.0612 		98.9139
v -10.409 		6.689 		92.154
v -11.872 		3.486 		92.154
v 4.723 		10.343 		86.692
v -12.373 		0 		92.154
v 4.9446 		10.8277 		89.5946
v 5.2381 		10.6898 		89.83
v 8.5 		0 		80
v 0 		8.5 		80
v -5.873 		2.705 		87.393
v 1.6441 		11.4362 		87.6897
v 9.93 		-5 		98.998
v 2.3618 		11.255 		87.8455
v 6.877 		4.996 		80
v 1.618 		11.255 		86.692
v -9.064 		-2.661 		81.903
v 2.4624 		11.2296 		87.8674
v 4.996 		6.877 		80
v -7.446 		8.593 		86.692
v 3.2942 		11.0826 		88.381
v 4.3876 		10.8892 		89.0559
v 2.627 		8.084 		80
v 8.4527 		-8.583 		90.8448
v 8.084 		2.627 		80
v 0.796 		11.3767 		87.3621
v 0.9244 		11.3823 		87.393
v 7.7744 		-8.9725 		89.4265
v -2.627 		8.084 		80
v -1.149 		7.9921 		80
v -4.996 		6.877 		80
v -3.3538 		7.3444 		80
v -2.0908 		7.7155 		80
v -1.648 		5.864 		85.544
v 7.446 		-8.593 		86.692
v 7.7338 		-8.9854 		89.3655
v 6.9001 		-9.2512 		88.115
v -5.2876 		6.1017 		80
v -5.2873 		6.1019 		80
v -4.1803 		6.8135 		80
v 6.8652 		-9.2634 		88.0676
v -6.7923 		4.3653 		80
v -6.7922 		4.3655 		80
v -5.9303 		5.36 		80
v -6.877 		4.996 		80
v 8.792 		6.535 		95.872
v 5.5092 		-9.8377 		86.692
v -7.747 		2.2746 		80
v -7.747 		2.2746 		80
v -7.2002 		3.472 		80
v 6.3689 		-9.4367 		87.393
v -8.084 		2.627 		80
v 9.641 		0.94 		95.872
v -4.965 		5.994 		87.393
v -10.91 		3.203 		86.692
v 6.504 		-9.3895 		87.5766
v 9.081 		0.595 		92.712
v -7.8869 		1.3027 		80
v -11.37 		0 		86.692
v -8.5 		0 		80
v -2.641 		4.562 		85.544
v 7.747 		-2.2746 		80
v 7.747 		-2.2746 		80
v 7.2002 		-3.472 		80
v 8.084 		-2.627 		80
v -11.872 		-3.486 		97.846
v 7.8869 		-1.3027 		80
v -10.409 		-6.689 		97.846
v 2.627 		-8.084 		80
v 1.149 		-7.9921 		80
v 9.565 		6.147 		86.692
v 4.996 		-6.877 		80
v 3.3538 		-7.3444 		80
v 2.0908 		-7.7155 		80
v 5.2876 		-6.1017 		80
v 5.2873 		-6.1019 		80
v 4.1803 		-6.8135 		80
v -11.872 		-3.486 		92.154
v -0.56 		6.535 		85.544
v -10.409 		-6.689 		92.154
v -6.162 		8.645 		89.83
v 6.7923 		-4.3653 		80
v 6.7922 		-4.3655 		80
v 5.9303 		-5.36 		80
v 6.877 		-4.996 		80
v 8.0491 		-8.7673 		89.83
v 2.352 		10.502 		87.393
v 0 		-8.5 		80
v -8.084 		-2.627 		80
v 9.447 		0 		81.903
v 9.064 		2.661 		81.903
v -7.289 		4.562 		89.83
v -6.877 		-4.996 		80
v -4.996 		-6.877 		80
v 9.8145 		-7.375 		97.846
v -2.627 		-8.084 		80
v 8.9733 		-8.3456 		92.154
v -10.91 		-3.203 		86.692
v 9.2033 		-8.0803 		92.712
v 9.8145 		-7.375 		95.872
v 9.4865 		-7.7534 		94.1768
v -7.0222 		10.0451 		92.4903
v -6.8452 		10.1589 		92.1795
v -6.8243 		10.1723 		92.154
v -5.8837 		10.4791 		90.7747
v -5.7839 		10.5116 		90.6288
v 8.7548 		-8.4453 		91.6047
v 4.8844 		-9.9896 		86.1638
v 1.493 		-10.3862 		84.5068
v 0.8092 		-10.3325 		84.3716
v 0.259 		-10.3236 		84.3493
v 9.353 		-5 		92.712
v 5.108 		-9.9353 		86.353
v -1.6441 		11.4362 		87.6898
v 1.4874 		-10.3854 		84.5048
v -1.618 		11.255 		86.692
v 1.0434 		-10.3398 		84.39
v -0.8124 		11.3774 		87.366
v -0.796 		11.3767 		87.3621
v 9.93 		-5 		95.872
v 1.3819 		-10.3746 		84.4775
v -0.9244 		11.3823 		87.393
v 2.5089 		-10.2265 		84.8418
v 2.368 		-10.244 		84.784
v 9.565 		-6.147 		86.692
v 1.9949 		-10.3046 		84.6657
v -3.768 		8.645 		87.393
v 1.36 		-9.924 		84.39
v 4.5939 		-10.0603 		85.9183
v 3.9578 		-10.0498 		85.4421
v 3.8565 		-10.0596 		85.394
v 9.064 		-2.661 		81.903
v -3.401 		11.0634 		88.4464
v -2.4623 		11.2295 		87.8673
v -6.186 		7.139 		81.903
v -3.6786 		11.0143 		88.6179
v -2.1278 		11.314 		87.7948
v -7.947 		5.107 		81.903
v -4.723 		10.343 		86.692
v 8.4106 		8.6752 		98.998
v 8.0355 		9.2741 		98.4
v 8.1027 		9.0306 		98.998
v 1.792 		-8.968 		84.39
v -8.0355 		9.2741 		98.4
v -8.1027 		9.0307 		98.998
v 0 		-5 		83.998
v 8.5 		0 		40
v 8.084 		2.627 		40
v 6.877 		4.996 		40
v 4.996 		6.877 		40
v 2.627 		8.084 		40
v 0 		8.5 		40
v -2.627 		8.084 		40
v 6.44 		-8.968 		87.393
v -1.344 		9.351 		81.903
v -4.996 		6.877 		40
v -6.877 		4.996 		40
v -3.924 		8.593 		81.903
v -8.084 		2.627 		40
v -8.5 		0 		40
v 8.102 		9.351 		97.846
v 0 		-8.5 		40
v 2.627 		-8.084 		40
v 4.996 		-6.877 		40
v 6.877 		-4.996 		40
v 7.9953 		9.4196 		97.846
v 8.084 		-2.627 		40
v 8.102 		9.351 		92.154
v -4.9446 		10.8277 		89.5947
v -4.7287 		10.8515 		89.3859
v -4.3876 		10.8892 		89.0558
v 7.1486 		9.9638 		92.712
v -8.084 		-2.627 		40
v 7.2818 		9.8783 		93.2088
v -6.877 		-4.996 		40
v 7.9953 		9.4196 		95.872
v 2.7855 		-10.1923 		84.9551
v -4.996 		-6.877 		40
v -2.627 		-8.084 		40
v -9.511 		3.09 		40
v -10 		0 		40
v 1.344 		-9.351 		81.903
v 10 		0 		40
v 9.511 		3.09 		40
v -5.2381 		10.6899 		89.83
v 0 		10 		40
v -3.09 		9.511 		40
v 3.924 		-8.593 		81.903
v 3.09 		9.511 		40
v 4.1722 		-10.029 		85.544
v 8.09 		5.878 		40
v 5.878 		8.09 		40
v 2.324 		-6.432 		84.39
v -5.878 		8.09 		40
v -8.09 		5.878 		40
v -9.511 		-3.09 		40
v 8.281 		5.864 		92.712
v -3.09 		-9.511 		40
v 0 		-10 		40
v 3.09 		-9.511 		40
v -8.3505 		-8.6298 		90.5875
v 9.511 		-3.09 		40
v 7.446 		8.593 		86.692
v 5.878 		-8.09 		40
v 8.09 		-5.878 		40
v -7.7744 		-8.9725 		89.4266
v -7.446 		-8.593 		86.692
v -8.09 		-5.878 		40
v -5.878 		-8.09 		40
v 2.394 		-5 		84.39
v 2.12 		-7.781 		84.39
v -4.5939 		-10.0602 		85.9182
v -4.7153 		-10.0307 		86.0208
v -1.493 		-10.3862 		84.5068
v -1.6881 		-10.3545 		84.5687
v -2.3681 		-10.2441 		84.7841
v -3.6126 		-10.0899 		85.2941
v -3.7871 		-10.0682 		85.3655
v 4.648 		-5 		85.544
v -3.8566 		-10.0596 		85.394
v -4.1722 		-10.029 		85.544
v -5.5093 		-9.8376 		86.692
v -6.3689 		-9.4366 		87.393
v -6.9 		-9.2512 		88.1149
v -0.259 		-10.3236 		84.3493
v -0.8092 		-10.3325 		84.3716
v -1.0434 		-10.3398 		84.39
v 3.768 		8.645 		87.393
v 0.289 		0.94 		84.39
v 4.513 		-7.781 		85.544
v 10 		0 		0
v 9.511 		3.09 		0
v 8.09 		5.878 		0
v -1.4874 		-10.3854 		84.5048
v 0.849 		0.595 		84.39
v -2.352 		10.502 		87.393
v 6.633 		-5 		87.393
v 6.162 		8.645 		89.83
v 3.479 		2.705 		85.544
v 5.878 		8.09 		0
v 3.09 		9.511 		0
v 0 		10 		0
v -3.09 		9.511 		0
v -9.7841 		7.0906 		98.998
v -5.878 		8.09 		0
v 1.36 		-0.076 		84.39
v 5.873 		2.705 		87.393
v -8.09 		5.878 		0
v -9.511 		3.09 		0
v 4.116 		0.4 		85.544
v -10 		0 		0
v 2.12 		-2.219 		84.39
v 0 		-10 		0
v 3.09 		-9.511 		0
v 5.878 		-8.09 		0
v 8.09 		-5.878 		0
v 2.324 		-3.568 		84.39
v 9.511 		-3.09 		0
v -9.511 		-3.09 		0
v -8.09 		-5.878 		0
v -5.878 		-8.09 		0
v -3.09 		-9.511 		0
v 1.792 		-1.032 		84.39
v 11.7661 		2.7508 		98.998
v 12.1615 		0 		98.998
v -9.641 		0.94 		98.998
v 11.6691 		3.4263 		98.998
v -8.792 		6.535 		98.998
v 10.231 		6.5747 		98.998
v 10.5147 		5.9538 		98.998
v 4.513 		-2.219 		85.544
v 0.56 		6.535 		85.544
v 10.231 		-6.5747 		98.998
v 1.648 		5.864 		85.544
v 11.3854 		-4.0472 		98.998
v 6.44 		-1.032 		87.393
v 11.6691 		-3.4263 		98.998
v -1.36 		-9.924 		84.39
v -8.232 		-5 		89.83
v 12.0644 		-0.6755 		98.998
v 12.373 		0 		97.846
v 11.872 		3.486 		97.846
v 7.993 		-0.076 		89.83
v 10.409 		6.689 		97.846
v -1.792 		-8.968 		84.39
v -4.648 		-5 		85.544
v -9.8309 		-7.0363 		98.998
v 2.641 		4.562 		85.544
v -4.513 		-7.781 		85.544
v 11.872 		3.486 		92.154
v 10.409 		6.689 		92.154
v 4.965 		5.994 		87.393
v -9.93 		-5 		98.998
v 8.232 		-5 		89.83
v 10.91 		3.203 		86.692
v 7.289 		4.562 		89.83
v -6.633 		-5 		87.393
v -9.641 		0.94 		95.872
v -9.081 		0.595 		92.712
v 10.409 		-6.689 		97.846
v -8.792 		6.535 		95.872
v 11.872 		-3.486 		97.846
v 6.186 		-7.139 		81.903
v -9.565 		6.147 		86.692
v 7.947 		-5.107 		81.903
v -2.12 		-7.781 		84.39
v -2.324 		-6.432 		84.39
v -8.281 		5.864 		92.712
v 7.947 		5.107 		81.903
v -2.394 		-5 		84.39
v -2.324 		-3.568 		84.39
v -1.36 		-0.076 		84.39
v -2.12 		-2.219 		84.39
v -1.792 		-1.032 		84.39
# 394 vertices

g group_0_2829873

usemtl color_2829873
s 0

f 55 	6 	1
f 4 	23 	12
f 3 	138 	5
f 7 	79 	11
f 19 	25 	8
f 17 	4 	2
f 18 	19 	20
f 20 	19 	21
f 11 	10 	346
f 24 	346 	10
f 11 	346 	7
f 23 	4 	17
f 10 	80 	24
f 18 	25 	19
f 36 	252 	248
f 41 	160 	37
f 43 	160 	41
f 35 	36 	248
f 172 	29 	14
f 33 	9 	31
f 32 	146 	46
f 48 	49 	50
f 49 	59 	50
f 225 	381 	224
f 30 	160 	281
f 58 	64 	60
f 59 	60 	64
f 64 	50 	59
f 93 	355 	65
f 37 	30 	63
f 344 	347 	65
f 69 	62 	70
f 66 	41 	63
f 37 	63 	41
f 70 	62 	71
f 57 	71 	62
f 41 	66 	43
f 68 	71 	57
f 62 	69 	72
f 43 	66 	16
f 73 	40 	72
f 40 	74 	77
f 55 	79 	6
f 133 	65 	61
f 83 	79 	55
f 74 	40 	73
f 72 	40 	62
f 6 	79 	7
f 11 	80 	10
f 79 	80 	11
f 134 	91 	67
f 78 	45 	77
f 40 	77 	45
f 79 	83 	84
f 80 	79 	86
f 84 	86 	79
f 87 	88 	85
f 97 	54 	57
f 68 	57 	54
f 83 	135 	84
f 50 	324 	224
f 13 	91 	14
f 13 	67 	91
f 92 	94 	96
f 355 	357 	65
f 97 	139 	5
f 52 	97 	51
f 99 	18 	20
f 21 	95 	20
f 99 	20 	95
f 5 	53 	51
f 98 	96 	94
f 21 	22 	95
f 61 	65 	350
f 5 	51 	97
f 26 	99 	28
f 25 	99 	26
f 18 	99 	25
f 103 	28 	99
f 85 	102 	87
f 31 	103 	33
f 28 	103 	31
f 33 	103 	90
f 101 	85 	98
f 52 	54 	97
f 175 	82 	93
f 82 	81 	93
f 85 	101 	102
f 39 	38 	105
f 89 	105 	38
f 42 	89 	38
f 39 	105 	44
f 22 	44 	95
f 105 	95 	44
f 96 	98 	85
f 107 	96 	106
f 110 	90 	109
f 33 	90 	110
f 96 	107 	92
f 109 	111 	112
f 109 	112 	113
f 113 	110 	109
f 111 	118 	119
f 111 	119 	120
f 117 	115 	116
f 108 	116 	115
f 120 	112 	111
f 159 	47 	56
f 121 	115 	117
f 124 	118 	125
f 111 	125 	118
f 123 	124 	125
f 122 	123 	125
f 309 	159 	56
f 122 	125 	130
f 125 	132 	130
f 129 	130 	132
f 128 	129 	132
f 75 	134 	67
f 131 	115 	136
f 127 	115 	131
f 115 	121 	136
f 128 	132 	138
f 53 	138 	140
f 384 	135 	83
f 135 	139 	84
f 140 	138 	132
f 137 	192 	200
f 84 	139 	86
f 200 	133 	137
f 165 	145 	144
f 24 	80 	146
f 61 	126 	133
f 146 	32 	24
f 145 	89 	147
f 42 	147 	89
f 142 	145 	147
f 148 	34 	46
f 93 	65 	133
f 168 	150 	78
f 146 	148 	46
f 149 	152 	153
f 149 	153 	154
f 149 	154 	150
f 16 	367 	148
f 16 	148 	43
f 160 	43 	148
f 152 	165 	155
f 152 	155 	156
f 152 	156 	157
f 80 	86 	158
f 80 	158 	146
f 157 	153 	152
f 158 	160 	148
f 158 	148 	146
f 47 	159 	114
f 30 	37 	160
f 163 	165 	162
f 164 	165 	163
f 155 	165 	164
f 143 	144 	145
f 142 	143 	145
f 114 	159 	198
f 151 	375 	389
f 166 	108 	205
f 162 	165 	144
f 205 	104 	166
f 115 	205 	108
f 106 	352 	107
f 51 	169 	52
f 53 	140 	51
f 140 	169 	51
f 23 	170 	171
f 98 	94 	167
f 94 	92 	167
f 107 	167 	92
f 91 	172 	14
f 169 	173 	54
f 68 	54 	173
f 98 	167 	101
f 54 	52 	169
f 170 	38 	171
f 174 	69 	70
f 71 	173 	70
f 174 	70 	173
f 167 	308 	101
f 71 	68 	173
f 73 	174 	74
f 72 	174 	73
f 69 	174 	72
f 176 	74 	174
f 76 	160 	158
f 77 	176 	78
f 74 	176 	77
f 168 	78 	176
f 87 	308 	88
f 177 	2 	179
f 86 	178 	158
f 88 	318 	35
f 36 	35 	318
f 179 	2 	181
f 149 	150 	168
f 178 	86 	139
f 183 	64 	182
f 180 	181 	2
f 184 	64 	183
f 178 	76 	158
f 58 	182 	64
f 177 	187 	2
f 227 	228 	89
f 64 	184 	100
f 139 	97 	178
f 57 	76 	178
f 104 	2 	187
f 230 	99 	95
f 186 	100 	185
f 185 	100 	184
f 97 	57 	178
f 316 	141 	114
f 230 	103 	99
f 188 	209 	383
f 268 	383 	209
f 374 	104 	187
f 198 	202 	114
f 183 	161 	184
f 159 	199 	198
f 236 	111 	109
f 236 	125 	111
f 374 	179 	192
f 187 	177 	374
f 179 	374 	177
f 115 	127 	383
f 188 	383 	193
f 193 	383 	127
f 161 	91 	134
f 201 	262 	195
f 197 	262 	201
f 189 	195 	262
f 192 	181 	200
f 180 	200 	181
f 190 	191 	262
f 132 	239 	240
f 140 	132 	240
f 181 	192 	179
f 197 	190 	262
f 172 	91 	161
f 133 	200 	93
f 243 	149 	168
f 180 	175 	200
f 93 	200 	175
f 262 	305 	45
f 134 	265 	161
f 152 	149 	243
f 152 	245 	165
f 75 	207 	134
f 189 	262 	206
f 141 	207 	75
f 247 	145 	165
f 205 	2 	104
f 316 	207 	141
f 268 	203 	204
f 204 	206 	268
f 205 	17 	2
f 197 	208 	190
f 161 	183 	172
f 227 	89 	247
f 145 	247 	89
f 190 	226 	191
f 251 	250 	207
f 9 	33 	110
f 316 	213 	207
f 205 	212 	17
f 240 	169 	140
f 199 	196 	198
f 202 	198 	196
f 17 	170 	23
f 169 	255 	173
f 106 	96 	199
f 96 	196 	199
f 194 	202 	196
f 173 	255 	174
f 258 	174 	255
f 216 	213 	219
f 258 	259 	174
f 214 	217 	196
f 194 	196 	217
f 196 	219 	214
f 17 	212 	170
f 214 	219 	213
f 105 	89 	228
f 105 	228 	95
f 212 	147 	170
f 193 	127 	310
f 103 	231 	90
f 90 	232 	109
f 233 	109 	232
f 222 	220 	221
f 241 	221 	220
f 233 	236 	109
f 125 	236 	237
f 237 	239 	132
f 237 	132 	125
f 168 	242 	243
f 244 	152 	243
f 224 	48 	50
f 317 	116 	374
f 244 	245 	152
f 203 	257 	223
f 204 	203 	223
f 165 	245 	247
f 223 	208 	206
f 195 	189 	208
f 169 	253 	255
f 204 	223 	206
f 176 	174 	259
f 259 	242 	176
f 168 	176 	242
f 228 	229 	95
f 182 	172 	183
f 364 	248 	241
f 229 	230 	95
f 103 	230 	231
f 265 	186 	161
f 232 	90 	231
f 185 	184 	161
f 131 	234 	310
f 256 	126 	246
f 127 	131 	310
f 196 	238 	219
f 215 	219 	238
f 217 	214 	316
f 241 	246 	221
f 9 	110 	235
f 217 	316 	194
f 193 	310 	188
f 113 	238 	235
f 251 	219 	250
f 116 	317 	117
f 235 	110 	113
f 169 	240 	253
f 254 	248 	252
f 216 	219 	251
f 249 	250 	219
f 256 	248 	254
f 166 	374 	108
f 222 	61 	220
f 203 	268 	257
f 257 	268 	211
f 211 	268 	210
f 246 	241 	256
f 248 	256 	241
f 136 	121 	234
f 117 	234 	121
f 136 	234 	131
f 104 	374 	166
f 261 	240 	260
f 222 	221 	126
f 263 	264 	227
f 206 	262 	268
f 266 	267 	232
f 271 	229 	264
f 227 	264 	228
f 228 	264 	229
f 272 	230 	271
f 270 	210 	268
f 229 	271 	230
f 231 	269 	232
f 266 	232 	269
f 272 	269 	230
f 231 	230 	269
f 290 	226 	273
f 78 	150 	45
f 274 	236 	267
f 232 	267 	233
f 262 	154 	268
f 112 	238 	113
f 233 	267 	236
f 275 	237 	274
f 236 	274 	237
f 239 	237 	260
f 291 	226 	223
f 118 	215 	119
f 275 	260 	237
f 223 	226 	208
f 119 	215 	120
f 120 	215 	238
f 239 	260 	240
f 120 	238 	112
f 240 	261 	276
f 118 	124 	215
f 280 	242 	279
f 278 	279 	242
f 242 	259 	278
f 122 	218 	123
f 123 	218 	124
f 215 	124 	218
f 227 	282 	263
f 248 	371 	283
f 284 	244 	280
f 280 	243 	242
f 209 	270 	268
f 281 	63 	30
f 363 	192 	137
f 243 	280 	244
f 285 	245 	284
f 244 	284 	245
f 285 	282 	245
f 249 	100 	265
f 310 	209 	188
f 126 	254 	277
f 245 	282 	247
f 186 	265 	100
f 283 	85 	248
f 227 	247 	282
f 126 	256 	254
f 249 	219 	100
f 288 	255 	276
f 240 	276 	253
f 277 	133 	126
f 278 	258 	289
f 253 	276 	255
f 289 	258 	288
f 281 	160 	27
f 277 	137 	133
f 196 	96 	235
f 255 	288 	258
f 88 	35 	248
f 85 	88 	248
f 258 	278 	259
f 9 	235 	96
f 122 	130 	218
f 211 	291 	257
f 221 	246 	126
f 61 	222 	126
f 128 	3 	129
f 85 	283 	8
f 272 	320 	269
f 218 	130 	3
f 291 	223 	257
f 252 	36 	277
f 321 	266 	269
f 206 	208 	189
f 9 	96 	85
f 137 	277 	376
f 252 	277 	254
f 208 	201 	195
f 129 	3 	130
f 333 	334 	279
f 128 	138 	3
f 226 	190 	208
f 53 	5 	138
f 201 	208 	197
f 210 	310 	273
f 336 	338 	285
f 226 	291 	273
f 311 	263 	338
f 270 	310 	210
f 209 	310 	270
f 273 	291 	210
f 211 	210 	291
f 8 	9 	85
f 289 	342 	278
f 278 	342 	279
f 294 	295 	45
f 311 	312 	263
f 271 	264 	313
f 298 	45 	297
f 297 	45 	296
f 313 	320 	271
f 272 	271 	320
f 371 	151 	283
f 321 	269 	320
f 321 	322 	266
f 299 	337 	290
f 322 	323 	266
f 267 	325 	274
f 27 	359 	281
f 63 	281 	359
f 325 	328 	274
f 151 	389 	19
f 300 	40 	298
f 280 	279 	334
f 151 	19 	283
f 280 	334 	284
f 335 	284 	334
f 284 	335 	285
f 336 	285 	335
f 282 	285 	338
f 282 	338 	263
f 191 	305 	262
f 160 	287 	27
f 261 	339 	276
f 339 	340 	288
f 339 	288 	276
f 286 	27 	287
f 289 	288 	341
f 340 	341 	288
f 306 	45 	305
f 341 	342 	289
f 317 	299 	234
f 333 	279 	342
f 76 	287 	160
f 310 	290 	273
f 264 	263 	312
f 290 	310 	299
f 312 	313 	264
f 314 	45 	307
f 286 	287 	304
f 234 	299 	310
f 235 	238 	196
f 102 	101 	308
f 303 	304 	287
f 45 	314 	294
f 302 	303 	287
f 307 	45 	306
f 102 	308 	87
f 309 	315 	354
f 358 	307 	306
f 316 	114 	202
f 307 	358 	314
f 15 	303 	302
f 293 	15 	302
f 308 	318 	88
f 15 	304 	303
f 106 	199 	352
f 15 	359 	304
f 234 	117 	317
f 352 	199 	159
f 250 	249 	134
f 134 	249 	265
f 287 	40 	302
f 134 	207 	250
f 57 	62 	76
f 293 	302 	40
f 108 	374 	116
f 316 	214 	213
f 251 	207 	216
f 292 	293 	40
f 287 	76 	62
f 277 	36 	318
f 213 	216 	207
f 226 	309 	56
f 316 	202 	194
f 226 	315 	309
f 185 	161 	186
f 267 	266 	323
f 323 	325 	267
f 315 	226 	326
f 314 	358 	294
f 275 	274 	328
f 1 	324 	55
f 62 	40 	287
f 260 	275 	328
f 329 	260 	328
f 326 	226 	343
f 260 	329 	261
f 331 	261 	329
f 365 	386 	297
f 343 	226 	332
f 332 	226 	337
f 319 	330 	327
f 191 	226 	305
f 261 	331 	339
f 295 	296 	45
f 301 	369 	292
f 331 	329 	328
f 331 	328 	325
f 331 	325 	323
f 331 	323 	322
f 331 	322 	321
f 331 	321 	320
f 331 	320 	313
f 331 	313 	312
f 331 	312 	311
f 330 	356 	327
f 326 	343 	319
f 341 	311 	342
f 340 	311 	341
f 339 	311 	340
f 331 	311 	339
f 333 	342 	311
f 333 	311 	338
f 333 	338 	336
f 333 	336 	335
f 333 	335 	334
f 292 	40 	301
f 300 	301 	40
f 345 	361 	344
f 343 	332 	330
f 347 	344 	362
f 292 	369 	293
f 347 	362 	350
f 343 	330 	319
f 363 	137 	376
f 349 	364 	220
f 45 	298 	40
f 351 	332 	337
f 159 	309 	352
f 351 	330 	332
f 350 	65 	347
f 220 	61 	349
f 286 	304 	359
f 81 	82 	353
f 354 	352 	309
f 299 	351 	337
f 380 	353 	82
f 337 	226 	290
f 315 	326 	368
f 355 	353 	380
f 355 	93 	353
f 324 	1 	348
f 315 	368 	354
f 356 	330 	351
f 348 	6 	346
f 348 	225 	324
f 357 	382 	360
f 326 	319 	368
f 317 	351 	299
f 32 	373 	24
f 7 	346 	6
f 1 	6 	348
f 350 	349 	61
f 81 	353 	93
f 360 	345 	65
f 360 	65 	357
f 344 	65 	345
f 351 	317 	356
f 373 	66 	346
f 362 	344 	361
f 352 	354 	167
f 295 	294 	358
f 381 	348 	346
f 381 	346 	378
f 363 	327 	356
f 364 	349 	350
f 225 	348 	381
f 327 	363 	376
f 364 	350 	362
f 296 	295 	365
f 358 	365 	295
f 363 	356 	374
f 241 	220 	364
f 34 	148 	367
f 248 	364 	371
f 386 	369 	300
f 374 	356 	317
f 361 	12 	370
f 361 	370 	362
f 298 	297 	386
f 300 	298 	386
f 364 	362 	371
f 370 	371 	362
f 366 	369 	387
f 319 	372 	368
f 66 	373 	16
f 374 	192 	363
f 297 	296 	365
f 367 	373 	34
f 14 	377 	366
f 151 	371 	370
f 346 	24 	373
f 34 	373 	46
f 14 	366 	13
f 375 	370 	12
f 32 	46 	373
f 327 	372 	319
f 15 	293 	369
f 378 	346 	66
f 367 	16 	373
f 369 	366 	377
f 375 	12 	23
f 50 	55 	324
f 225 	224 	324
f 377 	15 	369
f 370 	375 	151
f 83 	55 	64
f 50 	64 	55
f 29 	377 	14
f 376 	372 	327
f 64 	384 	83
f 377 	29 	359
f 27 	286 	359
f 23 	171 	375
f 212 	142 	147
f 63 	378 	66
f 42 	170 	147
f 359 	379 	63
f 378 	63 	379
f 142 	212 	143
f 388 	381 	379
f 143 	212 	144
f 378 	379 	381
f 380 	82 	175
f 355 	380 	382
f 359 	15 	377
f 2 	382 	380
f 379 	359 	29
f 355 	382 	357
f 167 	107 	352
f 360 	361 	345
f 385 	205 	115
f 360 	382 	361
f 308 	167 	354
f 115 	383 	385
f 2 	380 	180
f 175 	180 	380
f 226 	391 	390
f 3 	135 	384
f 382 	2 	4
f 385 	212 	205
f 308 	354 	368
f 135 	5 	139
f 3 	5 	135
f 391 	226 	393
f 4 	12 	361
f 4 	361 	382
f 384 	218 	3
f 372 	308 	368
f 393 	226 	394
f 155 	383 	156
f 156 	383 	157
f 383 	268 	157
f 383 	155 	164
f 162 	385 	163
f 318 	308 	372
f 163 	385 	164
f 383 	164 	385
f 47 	226 	56
f 385 	162 	144
f 385 	144 	212
f 376 	318 	372
f 262 	45 	150
f 153 	268 	154
f 150 	154 	262
f 376 	277 	318
f 268 	153 	157
f 305 	226 	306
f 306 	226 	358
f 29 	172 	388
f 39 	171 	38
f 358 	226 	365
f 182 	58 	172
f 170 	42 	38
f 22 	389 	44
f 226 	386 	365
f 171 	39 	44
f 386 	226 	387
f 19 	8 	283
f 226 	390 	387
f 26 	8 	25
f 28 	8 	26
f 28 	31 	8
f 8 	31 	9
f 388 	379 	29
f 388 	172 	58
f 386 	387 	369
f 59 	381 	60
f 388 	60 	381
f 60 	388 	58
f 375 	171 	389
f 301 	300 	369
f 224 	381 	48
f 59 	49 	381
f 48 	381 	49
f 171 	44 	389
f 64 	100 	384
f 389 	21 	19
f 389 	22 	21
f 215 	100 	219
f 366 	387 	390
f 100 	218 	384
f 215 	218 	100
f 394 	226 	392
f 393 	67 	391
f 393 	75 	67
f 394 	75 	393
f 390 	391 	13
f 13 	366 	390
f 394 	392 	141
f 394 	141 	75
f 114 	141 	392
f 392 	226 	47
f 114 	392 	47
f 67 	13 	391
# 784 faces

 #end of obj_0

