# Object Export From Tinkercad Server 2015

mtllib obj.mtl

o obj_0
v 0.5 		-0.1 		1
v 0.3 		-0.1 		1
v 0.3 		0.1 		1
v 0.5 		0.1 		1
v 0.3 		-0.1 		1.5
v 0.5 		-0.1 		2
v 0.5 		0.1 		2
v 0.3 		0.1 		1.5
v 0.2 		-0.1 		1.5
v 0 		-0.1 		1
v 0 		-0.1 		0
v 0.1 		-0.15 		2
v 0.1 		-0.15 		2.4
v 0.2 		-0.1 		0
v 0.2 		0.1 		1.5
v 0.2 		0.1 		0
v -0.1 		-0.1 		1
v 0 		0.1 		0
v -0.1 		0.1 		1
v 0.1 		0.15 		2.4
v 0 		0.1 		1
v 0.1 		0.15 		2
v -0.1 		-0.1 		0
v -0.3 		-0.1 		0
v -0.6 		0.1 		2
v -0.3 		0.1 		0
v -0.1 		0.1 		0
v 0.1 		-0.1 		2
v -0.2 		0.15 		2.4
v -0.6 		0.1 		1
v -0.2 		-0.15 		2.4
v -0.6 		-0.1 		1
v -0.6 		-0.1 		2
v 0.1 		0.1 		2
v -0.2 		-0.15 		2
v -0.4 		-0.1 		1
v -0.4 		0.1 		1
v -0.3 		-0.1 		1.5
v -0.4 		-0.1 		1.5
v -0.4 		0.1 		1.5
v -0.3 		0.1 		1.5
v -0.2 		0.15 		2
v -0.2 		-0.1 		2
v -0.2 		0.1 		2
# 44 vertices

g group_0_15277357

usemtl color_15277357
s 0

f 1 	2 	3
f 1 	3 	4
f 2 	1 	5
f 6 	5 	1
f 6 	1 	4
f 6 	4 	7
f 3 	8 	4
f 7 	4 	8
f 10 	11 	14
f 9 	14 	15
f 10 	17 	19
f 10 	19 	21
f 7 	34 	6
f 14 	16 	15
f 18 	21 	16
f 15 	16 	21
f 10 	9 	17
f 5 	9 	15
f 5 	15 	8
f 19 	41 	21
f 20 	22 	42
f 20 	42 	29
f 23 	24 	26
f 23 	26 	27
f 43 	28 	12
f 21 	18 	11
f 21 	11 	10
f 29 	31 	13
f 25 	30 	32
f 25 	32 	33
f 6 	28 	5
f 44 	42 	34
f 22 	34 	42
f 13 	12 	28
f 13 	28 	34
f 22 	20 	34
f 13 	34 	20
f 15 	34 	8
f 7 	8 	34
f 29 	13 	20
f 17 	23 	27
f 17 	27 	19
f 34 	28 	6
f 36 	32 	30
f 36 	30 	37
f 24 	23 	17
f 14 	9 	10
f 43 	38 	9
f 9 	5 	28
f 43 	9 	28
f 36 	39 	32
f 33 	32 	39
f 12 	13 	35
f 31 	35 	13
f 38 	39 	40
f 38 	40 	41
f 19 	27 	26
f 43 	12 	35
f 37 	30 	40
f 25 	40 	30
f 33 	43 	25
f 44 	25 	43
f 24 	38 	26
f 41 	26 	38
f 8 	3 	2
f 8 	2 	5
f 24 	17 	38
f 17 	9 	38
f 33 	39 	43
f 21 	41 	15
f 34 	15 	44
f 26 	41 	19
f 44 	15 	41
f 41 	40 	44
f 38 	43 	39
f 14 	11 	18
f 14 	18 	16
f 29 	42 	44
f 29 	44 	43
f 35 	31 	43
f 29 	43 	31
f 25 	44 	40
f 39 	36 	37
f 39 	37 	40
# 84 faces

 #end of obj_0

